<svg width="24" height="24" viewBox="0 0 24 24" fill="none" xmlns="http://www.w3.org/2000/svg">
<g clip-path="url(#clip0_1_696)">
<path d="M20.7723 21.5057C19.5588 21.5057 18.5715 20.5184 18.5715 19.3049C18.5715 18.0914 19.5588 17.1041 20.7723 17.1041C20.8228 17.1041 20.8726 17.1065 20.9222 17.1098V15.0317C20.8726 15.0351 20.8228 15.0374 20.7723 15.0374C19.5588 15.0374 18.5715 14.0501 18.5715 12.8366C18.5715 11.6231 19.5588 10.6359 20.7723 10.6359C20.8228 10.6359 20.8726 10.6382 20.9222 10.6416V8.5635C20.8726 8.56688 20.8228 8.56917 20.7723 8.56917C19.5588 8.56917 18.5715 7.58189 18.5715 6.36839C18.5715 5.15489 19.5588 4.16761 20.7723 4.16761C20.8228 4.16761 20.8726 4.16995 20.9222 4.17328V2.47552H6.73828V10.0368C7.50347 9.52599 8.42208 9.22772 9.40917 9.22772C12.0686 9.22772 14.2322 11.3913 14.2322 14.0508C14.2322 16.7102 12.0686 18.8738 9.40917 18.8738C8.42208 18.8738 7.50347 18.5756 6.73828 18.0647V22.7513C6.73828 23.441 7.29736 24 7.98698 24H19.6735C20.3631 24 20.9222 23.441 20.9222 22.7513V21.5001C20.8725 21.5034 20.8227 21.5057 20.7723 21.5057Z" fill="#F2FBFF"/>
<path d="M20.7722 21.5057C19.5587 21.5057 18.5715 20.5184 18.5715 19.3049C18.5715 18.0914 19.5587 17.1041 20.7722 17.1041C20.8227 17.1041 20.8725 17.1065 20.9221 17.1098V15.0317C20.8725 15.0351 20.8227 15.0374 20.7722 15.0374C19.5587 15.0374 18.5715 14.0501 18.5715 12.8366C18.5715 11.6231 19.5587 10.6359 20.7722 10.6359C20.8227 10.6359 20.8725 10.6382 20.9221 10.6416V8.5635C20.8725 8.56688 20.8227 8.56917 20.7722 8.56917C19.5587 8.56917 18.5715 7.58189 18.5715 6.36839C18.5715 5.15489 19.5587 4.16761 20.7722 4.16761C20.8227 4.16761 20.8725 4.16995 20.9221 4.17328V2.47552H18.4706V22.7513C18.4706 23.441 17.9115 24 17.2219 24H19.6734C20.363 24 20.9221 23.441 20.9221 22.7513V21.5001C20.8725 21.5034 20.8226 21.5057 20.7722 21.5057Z" fill="#DFF6FD"/>
<path d="M19.6735 0H9.85522V2.52239H20.9222V1.2487C20.9222 0.559078 20.3631 0 19.6735 0Z" fill="#26A6FE"/>
<path d="M18.4706 1.2487V2.52239H20.9221V1.2487C20.9221 0.559078 20.363 0 19.6734 0H17.2219C17.9116 0 18.4706 0.559078 18.4706 1.2487Z" fill="#0593FC"/>
<path d="M7.98698 0C7.29736 0 6.73828 0.559078 6.73828 1.2487V2.52239H9.90206V0H7.98698Z" fill="#60B7FF"/>
<path d="M22.3586 7.95902C23.2362 7.08139 23.2362 5.65847 22.3586 4.78083C21.481 3.9032 20.058 3.9032 19.1804 4.78083C18.3028 5.65847 18.3028 7.08139 19.1804 7.95902C20.058 8.83665 21.481 8.83665 22.3586 7.95902Z" fill="#6CF5C2"/>
<path d="M20.7723 4.12069C20.4897 4.12069 20.2196 4.17333 19.9705 4.26849C20.8158 4.59146 21.4163 5.40956 21.4163 6.36835C21.4163 7.32713 20.8158 8.14519 19.9705 8.4682C20.2196 8.56336 20.4897 8.616 20.7723 8.616C22.0136 8.616 23.0199 7.60969 23.0199 6.36835C23.0199 5.127 22.0136 4.12069 20.7723 4.12069Z" fill="#00F2A6"/>
<path d="M20.5693 7.48125C20.4807 7.48125 20.3952 7.44783 20.33 7.38718L19.4841 6.60094C19.3418 6.4688 19.3337 6.24633 19.4659 6.10407C19.5981 5.96189 19.8205 5.95374 19.9627 6.08593L20.5392 6.62175L21.5193 5.46661C21.645 5.31863 21.8668 5.30039 22.0148 5.42602C22.1629 5.55164 22.1811 5.7735 22.0554 5.92153L20.8373 7.35713C20.7752 7.43035 20.6859 7.47497 20.5901 7.48064C20.5831 7.48107 20.5762 7.48125 20.5693 7.48125Z" fill="white"/>
<path d="M17.1146 5.74064H12.0105C11.8163 5.74064 11.6589 5.58328 11.6589 5.38908C11.6589 5.19487 11.8163 5.03751 12.0105 5.03751H17.1146C17.3087 5.03751 17.4661 5.19487 17.4661 5.38908C17.4661 5.58328 17.3087 5.74064 17.1146 5.74064Z" fill="#60B7FF"/>
<path d="M10.8589 5.74064H9.4104C9.21624 5.74064 9.05884 5.58328 9.05884 5.38908C9.05884 5.19487 9.21624 5.03751 9.4104 5.03751H10.8589C11.053 5.03751 11.2104 5.19487 11.2104 5.38908C11.2104 5.58328 11.053 5.74064 10.8589 5.74064Z" fill="#60B7FF"/>
<path d="M17.1145 7.69922H15.6277C15.4335 7.69922 15.2761 7.54186 15.2761 7.34766C15.2761 7.15345 15.4335 6.99609 15.6277 6.99609H17.1145C17.3086 6.99609 17.466 7.15345 17.466 7.34766C17.466 7.54186 17.3086 7.69922 17.1145 7.69922Z" fill="#60B7FF"/>
<path d="M14.405 7.69922H9.4104C9.21624 7.69922 9.05884 7.54186 9.05884 7.34766C9.05884 7.15345 9.21624 6.99609 9.4104 6.99609H14.405C14.5992 6.99609 14.7566 7.15345 14.7566 7.34766C14.7566 7.54186 14.5992 7.69922 14.405 7.69922Z" fill="#60B7FF"/>
<path d="M20.7723 21.5526C22.0137 21.5526 23.02 20.5463 23.02 19.3049C23.02 18.0636 22.0137 17.0573 20.7723 17.0573C19.531 17.0573 18.5247 18.0636 18.5247 19.3049C18.5247 20.5463 19.531 21.5526 20.7723 21.5526Z" fill="#C5D3DD"/>
<path d="M20.7723 17.0573C20.4897 17.0573 20.2196 17.1099 19.9705 17.205C20.8158 17.528 21.4163 18.3461 21.4163 19.3049C21.4163 20.2637 20.8158 21.0818 19.9705 21.4048C20.2196 21.5 20.4897 21.5526 20.7723 21.5526C22.0136 21.5526 23.0199 20.5463 23.0199 19.3049C23.0199 18.0636 22.0136 17.0573 20.7723 17.0573Z" fill="#B6C4CF"/>
<path d="M17.1144 17.974H12.2112C11.7792 18.2835 11.2942 18.5232 10.7727 18.6772H17.1144C17.3086 18.6772 17.466 18.5198 17.466 18.3256C17.466 18.1314 17.3085 17.974 17.1144 17.974Z" fill="#60B7FF"/>
<path d="M17.1145 20.6357H15.6277C15.4335 20.6357 15.2761 20.4784 15.2761 20.2842C15.2761 20.09 15.4335 19.9326 15.6277 19.9326H17.1145C17.3086 19.9326 17.466 20.09 17.466 20.2842C17.466 20.4784 17.3086 20.6357 17.1145 20.6357Z" fill="#60B7FF"/>
<path d="M14.405 20.6357H9.4104C9.21624 20.6357 9.05884 20.4784 9.05884 20.2842C9.05884 20.09 9.21624 19.9326 9.4104 19.9326H14.405C14.5992 19.9326 14.7566 20.09 14.7566 20.2842C14.7566 20.4784 14.5992 20.6357 14.405 20.6357Z" fill="#60B7FF"/>
<path d="M22.3579 14.4266C23.2355 13.5489 23.2355 12.126 22.3579 11.2484C21.4802 10.3707 20.0573 10.3707 19.1797 11.2484C18.302 12.126 18.302 13.5489 19.1797 14.4266C20.0573 15.3042 21.4802 15.3042 22.3579 14.4266Z" fill="#FE646F"/>
<path d="M20.7723 10.589C20.4897 10.589 20.2196 10.6416 19.9705 10.7368C20.8158 11.0597 21.4163 11.8778 21.4163 12.8366C21.4163 13.7954 20.8158 14.6135 19.9705 14.9365C20.2196 15.0317 20.4897 15.0843 20.7723 15.0843C22.0136 15.0843 23.0199 14.078 23.0199 12.8366C23.0199 11.5953 22.0136 10.589 20.7723 10.589Z" fill="#FD4755"/>
<path d="M17.1146 11.5058H13.5044C13.6434 11.7287 13.7648 11.9637 13.8665 12.2089H17.1146C17.3087 12.2089 17.4661 12.0515 17.4661 11.8573C17.4661 11.6631 17.3087 11.5058 17.1146 11.5058Z" fill="#60B7FF"/>
<path d="M9.56034 12.2089H8.18555C7.99139 12.2089 7.83398 12.0515 7.83398 11.8573C7.83398 11.6631 7.99139 11.5058 8.18555 11.5058H9.56034C9.7545 11.5058 9.91191 11.6631 9.91191 11.8573C9.91191 12.0515 9.7545 12.2089 9.56034 12.2089Z" fill="black"/>
<path d="M17.1145 14.1675H16.377C16.1828 14.1675 16.0254 14.0101 16.0254 13.8159C16.0254 13.6217 16.1828 13.4644 16.377 13.4644H17.1145C17.3086 13.4644 17.466 13.6217 17.466 13.8159C17.466 14.0101 17.3086 14.1675 17.1145 14.1675Z" fill="#60B7FF"/>
<path d="M15.2282 13.4644H14.1965C14.2199 13.6566 14.2323 13.8523 14.2323 14.0507C14.2323 14.0898 14.2317 14.1287 14.2308 14.1675H15.2281C15.4223 14.1675 15.5797 14.0101 15.5797 13.8159C15.5797 13.6217 15.4223 13.4644 15.2282 13.4644Z" fill="#60B7FF"/>
<path d="M5.36853 16.6786L1.19918 20.8479C0.906588 21.1405 0.906588 21.6149 1.19918 21.9075L1.55234 22.2607C1.84493 22.5533 2.31931 22.5533 2.6119 22.2607L6.78124 18.0914C6.21804 17.7238 5.73607 17.2418 5.36853 16.6786Z" fill="#C5D3DD"/>
<path d="M2.61195 21.0522C2.31935 21.3448 1.84498 21.3448 1.55238 21.0522L1.27367 20.7735L1.19918 20.8479C0.906588 21.1405 0.906588 21.6149 1.19918 21.9075L1.55234 22.2607C1.84493 22.5533 2.31931 22.5533 2.6119 22.2607L6.78124 18.0914C6.54012 17.934 6.31498 17.7546 6.10624 17.5578L2.61195 21.0522Z" fill="#B6C4CF"/>
<path d="M12.8496 17.4933C14.7512 15.5918 14.7512 12.5088 12.8496 10.6072C10.9481 8.70567 7.8651 8.70567 5.96355 10.6072C4.06201 12.5088 4.06201 15.5918 5.96355 17.4933C7.8651 19.3948 10.9481 19.3948 12.8496 17.4933Z" fill="#7A8C98"/>
<path d="M9.40926 9.1808C9.05976 9.1808 8.71902 9.21793 8.39038 9.28791C9.60922 9.54741 10.6588 10.2633 11.3531 11.2476C12.2399 11.8637 12.8209 12.8891 12.8209 14.0507C12.8209 15.2123 12.2399 16.2377 11.3531 16.8539C10.6588 17.8382 9.60922 18.5541 8.39038 18.8136C8.71902 18.8836 9.05976 18.9207 9.40926 18.9207C12.0988 18.9207 14.2792 16.7403 14.2792 14.0507C14.2792 11.3611 12.0988 9.1808 9.40926 9.1808Z" fill="#596C76"/>
<path d="M11.8186 16.4623C13.1508 15.1302 13.1508 12.9703 11.8186 11.6382C10.4865 10.3061 8.32669 10.3061 6.99456 11.6382C5.66243 12.9703 5.66243 15.1302 6.99456 16.4623C8.32669 17.7944 10.4865 17.7944 11.8186 16.4623Z" fill="#DFF6FD"/>
<path d="M9.40906 10.6391C9.12598 10.6391 8.85115 10.6742 8.58813 10.7392C10.0757 11.1067 11.1789 12.4496 11.1789 14.0507C11.1789 15.6518 10.0757 16.9947 8.58813 17.3623C8.85115 17.4272 9.12598 17.4623 9.40906 17.4623C11.2932 17.4623 12.8207 15.9349 12.8207 14.0507C12.8207 12.1665 11.2933 10.6391 9.40906 10.6391Z" fill="#C8EFFE"/>
<path d="M9.40922 17.814C7.33415 17.814 5.646 16.1257 5.646 14.0507C5.646 11.9757 7.3342 10.2875 9.40922 10.2875C11.4842 10.2875 13.1724 11.9757 13.1724 14.0507C13.1724 16.1257 11.4843 17.814 9.40922 17.814ZM9.40922 10.9906C7.72186 10.9906 6.34912 12.3634 6.34912 14.0507C6.34912 15.7381 7.7219 17.1108 9.40922 17.1108C11.0965 17.1108 12.4693 15.7381 12.4693 14.0507C12.4693 12.3634 11.0966 10.9906 9.40922 10.9906Z" fill="#B6C4CF"/>
<path d="M11.1615 13.3731H9.33423C9.14007 13.3731 8.98267 13.2157 8.98267 13.0215C8.98267 12.8273 9.14007 12.6699 9.33423 12.6699H11.1615C11.3556 12.6699 11.513 12.8273 11.513 13.0215C11.513 13.2157 11.3556 13.3731 11.1615 13.3731Z" fill="#26A6FE"/>
<path d="M8.20335 13.3731H7.66504C7.47088 13.3731 7.31348 13.2157 7.31348 13.0215C7.31348 12.8273 7.47088 12.6699 7.66504 12.6699H8.20335C8.39751 12.6699 8.55491 12.8273 8.55491 13.0215C8.55491 13.2157 8.39751 13.3731 8.20335 13.3731Z" fill="#26A6FE"/>
<path d="M11.1615 15.3316H10.4331C10.2389 15.3316 10.0815 15.1743 10.0815 14.9801C10.0815 14.7859 10.2389 14.6285 10.4331 14.6285H11.1615C11.3557 14.6285 11.5131 14.7859 11.5131 14.9801C11.5131 15.1743 11.3557 15.3316 11.1615 15.3316Z" fill="#26A6FE"/>
<path d="M9.26338 15.3316H7.66504C7.47088 15.3316 7.31348 15.1743 7.31348 14.9801C7.31348 14.7859 7.47088 14.6285 7.66504 14.6285H9.26338C9.45754 14.6285 9.61495 14.7859 9.61495 14.9801C9.61495 15.1743 9.45754 15.3316 9.26338 15.3316Z" fill="#26A6FE"/>
<path d="M21.2695 12.8366L21.7702 12.336C21.9075 12.1987 21.9075 11.9761 21.7702 11.8388C21.6329 11.7016 21.4103 11.7016 21.273 11.8388L20.7724 12.3394L20.2718 11.8388C20.1345 11.7016 19.9119 11.7016 19.7746 11.8388C19.6373 11.9761 19.6373 12.1987 19.7746 12.336L20.2752 12.8366L19.7746 13.3373C19.6373 13.4746 19.6373 13.6972 19.7746 13.8345C19.8432 13.9031 19.9332 13.9374 20.0232 13.9374C20.1131 13.9374 20.2031 13.9031 20.2718 13.8345L20.7724 13.3338L21.273 13.8345C21.3416 13.9031 21.4316 13.9374 21.5216 13.9374C21.6115 13.9374 21.7015 13.9031 21.7702 13.8345C21.9075 13.6971 21.9075 13.4746 21.7702 13.3373L21.2695 12.8366Z" fill="white"/>
</g>
<defs>
<clipPath id="clip0_1_696">
<rect width="24" height="24" fill="white"/>
</clipPath>
</defs>
</svg>
