<svg width="24" height="24" viewBox="0 0 24 24" fill="none" xmlns="http://www.w3.org/2000/svg">
<path d="M22.7667 0H11.5526C11.4726 0 11.4077 0.064875 11.4077 0.144891V4.27861C11.4346 4.30402 11.4618 4.32891 11.4881 4.35516C13.0505 5.91764 13.0505 8.46005 11.4881 10.0225C11.4618 10.0488 11.4345 10.0736 11.4077 10.0991V13.7479H18.9248C18.9972 13.7479 19.0656 13.7814 19.11 13.8387L20.8781 16.1196H22.7668C22.8468 16.1196 22.9117 16.0547 22.9117 15.9747V0.144891C22.9116 0.064875 22.8468 0 22.7667 0Z" fill="#EAF6FF"/>
<path d="M17.3945 17.2501C17.3513 17.2501 17.3096 17.2296 17.2831 17.1955L14.6684 13.8222L14.5151 13.701L14.4683 13.9172V23.7985L14.5151 24H18.8749C18.9787 24 19.0628 23.9159 19.0628 23.8122V17.2969L19.0035 17.2501H17.3945Z" fill="#EA9B58"/>
<path d="M11.5526 0C11.4726 0 11.4077 0.064875 11.4077 0.144891V4.27861C11.4346 4.30402 11.4618 4.32891 11.4881 4.35516C13.0505 5.91764 13.0505 8.46005 11.4881 10.0225C11.4618 10.0488 11.4345 10.0736 11.4077 10.0991V13.7479H13.679V0.144891C13.679 0.064875 13.7439 0 13.8239 0L11.5526 0Z" fill="#D8ECFE"/>
<path d="M15.1589 4.98188C15.0084 4.85911 14.787 4.88152 14.6642 5.03194L14.1354 5.67966L13.8267 5.37094C13.6894 5.23369 13.4669 5.23364 13.3295 5.37098C13.1922 5.50828 13.1923 5.73089 13.3295 5.86814L13.9133 6.45183C13.9793 6.51792 14.0688 6.55477 14.1618 6.55477C14.1677 6.55477 14.1736 6.55463 14.1795 6.5543C14.2788 6.54933 14.3713 6.5025 14.4342 6.42548L15.2088 5.47645C15.3317 5.32613 15.3093 5.10464 15.1589 4.98188Z" fill="#8AC9FE"/>
<path d="M16.2583 6.16646H20.741C20.9351 6.16646 21.0925 6.0091 21.0925 5.8149C21.0925 5.62069 20.9351 5.46333 20.741 5.46333H16.2583C16.0641 5.46333 15.9067 5.62069 15.9067 5.8149C15.9067 6.0091 16.0641 6.16646 16.2583 6.16646Z" fill="#8AC9FE"/>
<path d="M15.1588 7.06476C15.0084 6.942 14.7869 6.96435 14.6641 7.11482L14.1354 7.76254L13.8267 7.45378C13.6894 7.31653 13.4668 7.31653 13.3295 7.45378C13.1922 7.59112 13.1922 7.81368 13.3295 7.95098L13.9133 8.53471C13.9794 8.60076 14.0688 8.63765 14.1618 8.63765C14.1678 8.63765 14.1737 8.63751 14.1796 8.63718C14.2788 8.63221 14.3713 8.58543 14.4342 8.50837L15.2088 7.55934C15.3316 7.40901 15.3092 7.18753 15.1588 7.06476Z" fill="#8AC9FE"/>
<path d="M20.741 7.54617H16.2583C16.0641 7.54617 15.9067 7.70353 15.9067 7.89774C15.9067 8.09194 16.0641 8.2493 16.2583 8.2493H20.741C20.9351 8.2493 21.0925 8.09194 21.0925 7.89774C21.0925 7.70353 20.9352 7.54617 20.741 7.54617Z" fill="#8AC9FE"/>
<path d="M15.1588 9.14762C15.0084 9.02485 14.7869 9.04721 14.6641 9.19768L14.1354 9.8454L13.8267 9.53663C13.6894 9.39938 13.4668 9.39938 13.3295 9.53663C13.1922 9.67398 13.1922 9.89654 13.3295 10.0338L13.9133 10.6176C13.9794 10.6836 14.0688 10.7205 14.1618 10.7205C14.1678 10.7205 14.1737 10.7204 14.1796 10.72C14.2788 10.7151 14.3713 10.6683 14.4342 10.5912L15.2088 9.64219C15.3316 9.49187 15.3092 9.27043 15.1588 9.14762Z" fill="#8AC9FE"/>
<path d="M20.741 9.62906H16.2583C16.0641 9.62906 15.9067 9.78642 15.9067 9.98062C15.9067 10.1748 16.0641 10.3322 16.2583 10.3322H20.741C20.9351 10.3322 21.0925 10.1748 21.0925 9.98062C21.0925 9.78642 20.9352 9.62906 20.741 9.62906Z" fill="#8AC9FE"/>
<path d="M15.1588 11.2305C15.0084 11.1078 14.7869 11.1301 14.6641 11.2806L14.1354 11.9283L13.8267 11.6195C13.6894 11.4823 13.4668 11.4823 13.3295 11.6195C13.1922 11.7569 13.1922 11.9794 13.3295 12.1167L13.9133 12.7005C13.9794 12.7665 14.0688 12.8034 14.1618 12.8034C14.1678 12.8034 14.1737 12.8032 14.1796 12.8029C14.2788 12.798 14.3713 12.7512 14.4342 12.6741L15.2088 11.7251C15.3316 11.5747 15.3092 11.3533 15.1588 11.2305Z" fill="#8AC9FE"/>
<path d="M20.741 11.7119H16.2583C16.0641 11.7119 15.9067 11.8693 15.9067 12.0635C15.9067 12.2577 16.0641 12.415 16.2583 12.415H20.741C20.9351 12.415 21.0925 12.2577 21.0925 12.0635C21.0925 11.8693 20.9352 11.7119 20.741 11.7119Z" fill="#8AC9FE"/>
<path d="M20.8635 3.5789H13.4557C13.3757 3.5789 13.3108 3.51403 13.3108 3.43401V2.13717C13.3108 2.05715 13.3757 1.99228 13.4557 1.99228H20.8635C20.9435 1.99228 21.0084 2.05715 21.0084 2.13717V3.43406C21.0084 3.51403 20.9435 3.5789 20.8635 3.5789Z" fill="#4FC123"/>
<path d="M14.9454 3.43406V2.13717C14.9454 2.05715 15.0103 1.99228 15.0903 1.99228H13.4557C13.3757 1.99228 13.3108 2.05715 13.3108 2.13717V3.43406C13.3108 3.51408 13.3757 3.57895 13.4557 3.57895H15.0903C15.0103 3.5789 14.9454 3.51403 14.9454 3.43406Z" fill="#47A920"/>
<path d="M14.5151 13.701V24H16.346V16.063L14.5151 13.701Z" fill="#D88A55"/>
<path d="M14.4207 13.7479L11.8034 17.1944C11.7769 17.2292 11.7349 17.2501 11.6911 17.2501H6.17969L6.06958 17.2969V23.8122C6.06958 23.9159 6.15367 24 6.25741 24H14.5151V13.701L14.4207 13.7479Z" fill="#F6A96C"/>
<path d="M8.13672 23.8122V17.2969H6.06958V23.8122C6.06958 23.9159 6.15367 24 6.25741 24H8.32455C8.22081 24 8.13672 23.9159 8.13672 23.8122Z" fill="#EA9B58"/>
<path d="M14.5151 13.701L17.2461 17.2242C17.2817 17.2701 17.3364 17.2969 17.3945 17.2969H21.4668C21.623 17.2969 21.711 17.1174 21.6153 16.9941L19.1331 13.7918C19.0887 13.7345 19.0203 13.701 18.9479 13.701H14.5151Z" fill="#FED2A4"/>
<path d="M18.8838 17.2242L16.1529 13.701H14.5151L17.2461 17.2242C17.2817 17.2701 17.3364 17.2969 17.3945 17.2969H19.0322C18.9742 17.2969 18.9194 17.2701 18.8838 17.2242Z" fill="#FFBD86"/>
<path d="M11.6911 17.2969H3.71721C3.56191 17.2969 3.47374 17.1192 3.56763 16.9955L5.99922 13.7936C6.04352 13.7353 6.11261 13.701 6.18588 13.701H14.5151L11.8406 17.2227C11.8051 17.2695 11.7498 17.2969 11.6911 17.2969Z" fill="#FED2A4"/>
<path d="M5.61594 16.9955L8.11785 13.701H6.18585C6.11259 13.701 6.04354 13.7353 5.99919 13.7936L3.56765 16.9955C3.47371 17.1192 3.56193 17.2969 3.71723 17.2969H5.76552C5.61023 17.2969 5.52205 17.1192 5.61594 16.9955Z" fill="#FFBD86"/>
<path d="M5.82074 10.0225C5.67576 9.8775 5.54437 9.72399 5.42629 9.56372L4.33813 10.6519L5.19135 11.5051L6.27923 10.4172C6.11821 10.2983 5.96493 10.1667 5.82074 10.0225Z" fill="#CBC4CC"/>
<path d="M1.38499 14.4583C1.7808 14.8541 2.42257 14.8541 2.81843 14.4583L5.35343 11.9233C5.44244 11.8343 5.44244 11.6899 5.35343 11.601L4.24235 10.4899C4.15333 10.4009 4.009 10.4009 3.92003 10.4899L1.38504 13.0249C0.989176 13.4207 0.989176 14.0625 1.38499 14.4583Z" fill="#7A6D79"/>
<path d="M1.38501 14.2637L3.92001 11.7287C4.00903 11.6397 4.15336 11.6397 4.24232 11.7287L4.89511 12.3816L5.3534 11.9233C5.44242 11.8342 5.44242 11.6899 5.3534 11.6009L4.24232 10.4898C4.15331 10.4008 4.00898 10.4008 3.92001 10.4898L1.38501 13.0248C1.02004 13.3898 0.992433 13.9634 1.30054 14.361C1.32661 14.3274 1.35417 14.2946 1.38501 14.2637Z" fill="#685E68"/>
<path d="M8.65441 11.2431C10.8935 11.2431 12.7087 9.42794 12.7087 7.1888C12.7087 4.94967 10.8935 3.13449 8.65441 3.13449C6.41528 3.13449 4.6001 4.94967 4.6001 7.1888C4.6001 9.42794 6.41528 11.2431 8.65441 11.2431Z" fill="#0593FC"/>
<path d="M7.37321 9.51366C7.1596 9.39582 6.95846 9.24704 6.77734 9.06591C5.74065 8.02923 5.74065 6.34843 6.77734 5.31174C6.95851 5.13057 7.1596 4.98183 7.37321 4.86399C7.50666 4.67382 7.65727 4.49194 7.8272 4.32202C8.35716 3.79205 8.99757 3.4404 9.67421 3.26523C8.32941 2.91704 6.8409 3.26869 5.78757 4.32202C4.20427 5.90537 4.20427 8.47238 5.78757 10.0557C6.8409 11.109 8.32941 11.4606 9.67421 11.1125C8.99757 10.9373 8.35716 10.5856 7.8272 10.0557C7.65723 9.88571 7.50666 9.70383 7.37321 9.51366Z" fill="#0182FC"/>
<path d="M8.65438 9.84343C10.1205 9.84343 11.309 8.65491 11.309 7.1888C11.309 5.7227 10.1205 4.53418 8.65438 4.53418C7.18827 4.53418 5.99976 5.7227 5.99976 7.1888C5.99976 8.65491 7.18827 9.84343 8.65438 9.84343Z" fill="white"/>
<path d="M8.38584 9.06591C7.34916 8.02922 7.34916 6.34842 8.38584 5.31174C8.697 5.00058 9.06637 4.78355 9.45877 4.65914C8.54386 4.36913 7.50305 4.5862 6.77752 5.31174C5.74083 6.34842 5.74083 8.02922 6.77752 9.06591C7.50305 9.79144 8.54386 10.0085 9.45877 9.7185C9.06637 9.5941 8.697 9.37706 8.38584 9.06591Z" fill="#F3F0F3"/>
<path d="M8.65438 10.1949C7.85141 10.1949 7.09649 9.88224 6.52869 9.31449C5.9609 8.7467 5.64819 7.99177 5.64819 7.1888C5.64819 6.38584 5.9609 5.63091 6.52869 5.06307C7.09649 4.49532 7.85141 4.18262 8.65438 4.18262C9.45735 4.18262 10.2123 4.49532 10.7801 5.06307C11.3479 5.63087 11.6606 6.38584 11.6606 7.1888C11.6606 7.99177 11.3479 8.7467 10.7801 9.31449C10.2123 9.88229 9.4574 10.1949 8.65438 10.1949ZM7.0259 5.56032C6.59094 5.99527 6.35136 6.57362 6.35136 7.1888C6.35136 7.80395 6.59094 8.38229 7.0259 8.81724C7.4609 9.25224 8.03924 9.49182 8.65443 9.49182C9.26961 9.49182 9.84791 9.25229 10.2829 8.81724C10.7179 8.38229 10.9575 7.80395 10.9575 7.1888C10.9575 6.57362 10.7179 5.99527 10.2829 5.56032C9.84791 5.12532 9.26957 4.88574 8.65443 4.88574C8.03929 4.88574 7.46085 5.12532 7.0259 5.56032Z" fill="#0172FB"/>
</svg>
