<svg width="21" height="21" viewBox="0 0 21 21" fill="none" xmlns="http://www.w3.org/2000/svg">
<g clip-path="url(#clip0_1_814)">
<path d="M20.3637 11.7346V9.26864L18.3178 8.75637C18.1142 7.83682 17.7515 6.97773 17.2583 6.20773L18.3433 4.39728L16.5997 2.65364L14.7892 3.73864C14.0192 3.24864 13.1601 2.88591 12.2406 2.6791L11.7347 0.636368H9.26875L8.75648 2.68228C7.83693 2.88591 6.97784 3.24864 6.20784 3.74182L4.39738 2.65682L2.65375 4.40046L3.73875 6.21091C3.24875 6.98091 2.88602 7.84 2.6792 8.75955L0.636475 9.26864V11.7346L2.68238 12.2468C2.88602 13.1664 3.24875 14.0255 3.74193 14.7955L2.65693 16.6059L4.40057 18.3496L6.21102 17.2646C6.98102 17.7546 7.84011 18.1173 8.75966 18.3241L9.26875 20.3636H11.7347L12.2469 18.3177C13.1665 18.1141 14.0256 17.7514 14.7956 17.2582L16.606 18.3432L18.3497 16.5996L17.2647 14.7891C17.7547 14.0191 18.1174 13.16 18.3242 12.2405L20.3637 11.7346ZM10.5001 14.8146C8.11693 14.8146 6.18557 12.8832 6.18557 10.5C6.18557 8.11682 8.11693 6.18546 10.5001 6.18546C12.8833 6.18546 14.8147 8.11682 14.8147 10.5C14.8147 12.8832 12.8833 14.8146 10.5001 14.8146Z" fill="#FFAB03"/>
<path d="M10.8183 15.9091V14.6364L9.76193 14.3723C9.65693 13.8982 9.4692 13.4559 9.21466 13.0582L9.77466 12.1227L8.8742 11.2223L7.93875 11.7823C7.54102 11.5277 7.09875 11.3432 6.62466 11.235L6.36375 10.1818H5.09102L4.82693 11.2382C4.35284 11.3432 3.91057 11.5309 3.51284 11.7855L2.57738 11.2223L1.67693 12.1227L2.23693 13.0582C1.98238 13.4559 1.79784 13.8982 1.68966 14.3723L0.636475 14.6364V15.9091L1.69284 16.1732C1.79784 16.6473 1.98557 17.0896 2.24011 17.4873L1.67693 18.4227L2.57738 19.3232L3.51284 18.7632C3.91057 19.0177 4.35284 19.2023 4.82693 19.3105L5.09102 20.3636H6.36375L6.62784 19.3073C7.10193 19.2023 7.5442 19.0146 7.94193 18.76L8.87738 19.32L9.77784 18.4196L9.21784 17.4841C9.47238 17.0864 9.65693 16.6441 9.76511 16.17L10.8183 15.9091ZM5.72738 17.5C4.49602 17.5 3.50011 16.5041 3.50011 15.2727C3.50011 14.0414 4.49602 13.0455 5.72738 13.0455C6.95875 13.0455 7.95466 14.0414 7.95466 15.2727C7.95466 16.5041 6.95875 17.5 5.72738 17.5Z" fill="#4E6575"/>
<g opacity="0.3">
<path d="M9.21773 13.0582L9.77773 12.1227L8.87727 11.2223L7.94182 11.7823C7.54409 11.5277 7.10182 11.3432 6.62773 11.235L6.36364 10.1818H5.09091L4.82682 11.2382C4.36864 11.34 3.94227 11.5182 3.55727 11.7568C3.52227 11.9859 3.5 12.2182 3.5 12.4568C3.5 13.0486 3.61455 13.615 3.815 14.1336C4.20318 13.4845 4.91273 13.0455 5.72727 13.0455C6.95864 13.0455 7.95455 14.0414 7.95455 15.2727C7.95455 15.9759 7.62682 16.6059 7.11455 17.0132C7.45818 17.0927 7.81455 17.1405 8.18364 17.1405C8.64182 17.1405 9.08409 17.0705 9.50409 16.9496C9.61546 16.7014 9.70455 16.4436 9.76182 16.1764L10.8182 15.9091V14.6364L9.76182 14.3723C9.65682 13.8982 9.46909 13.4559 9.21773 13.0582Z" fill="#E2E2E2"/>
</g>
<g opacity="0.3">
<path d="M17.2615 6.20773L18.3465 4.39728L16.6029 2.65364L14.7924 3.73864C14.0224 3.24864 13.1633 2.88591 12.2438 2.6791L11.7315 0.636368H9.2656L8.75333 2.68228C7.83378 2.88591 6.97469 3.24864 6.20469 3.74182L5.70833 3.44273C5.49833 4.235 5.38696 5.06546 5.38696 5.92137C5.38696 7.33091 5.68924 8.66728 6.23333 9.87319C6.5356 7.78591 8.32696 6.18228 10.497 6.18228C12.8801 6.18228 14.8115 8.11364 14.8115 10.4968C14.8115 12.6605 13.2174 14.4455 11.1429 14.7573C12.3392 15.2886 13.6629 15.5846 15.0533 15.5846C15.9124 15.5846 16.7461 15.47 17.5415 15.26L17.2583 14.7891C17.7483 14.0191 18.1111 13.16 18.3179 12.2405L20.3638 11.7314V9.26546L18.3179 8.75319C18.1142 7.83682 17.7515 6.97773 17.2615 6.20773Z" fill="#E2E2E2"/>
</g>
<path d="M20.3637 6.36364V5.09091L19.3073 4.82682C19.2023 4.35273 19.0146 3.91046 18.7601 3.51273L19.3201 2.57728L18.4228 1.67682L17.4873 2.23682C17.0896 1.98228 16.6473 1.79773 16.1732 1.68955L15.9092 0.636368H14.6364L14.3723 1.69273C13.8982 1.79773 13.456 1.98546 13.0582 2.24L12.1228 1.67682L11.2223 2.57728L11.7823 3.51273C11.5278 3.91046 11.3432 4.35273 11.2351 4.82682L10.1819 5.09091V6.36364L11.2382 6.62773C11.3432 7.10182 11.531 7.54409 11.7855 7.94182L11.2255 8.87728L12.126 9.77773L13.0614 9.21773C13.4592 9.47228 13.9014 9.65682 14.3755 9.765L14.6364 10.8182H15.9092L16.1732 9.76182C16.6473 9.65682 17.0896 9.46909 17.4873 9.21455L18.4228 9.77455L19.3232 8.87409L18.7632 7.93864C19.0178 7.54091 19.2023 7.09864 19.3105 6.62455L20.3637 6.36364ZM15.2728 7.95455C14.0414 7.95455 13.0455 6.95864 13.0455 5.72728C13.0455 4.49591 14.0414 3.5 15.2728 3.5C16.5042 3.5 17.5001 4.49591 17.5001 5.72728C17.5001 6.95864 16.5042 7.95455 15.2728 7.95455Z" fill="#EF4A51"/>
<g opacity="0.3">
<path d="M18.7631 3.51273L19.3231 2.57728L18.4227 1.67682L17.4872 2.23682C17.0895 1.98228 16.6472 1.79773 16.1731 1.68955L15.909 0.636368H14.6363L14.3722 1.69273C13.914 1.79455 13.4877 1.97273 13.1027 2.21137C13.0677 2.44046 13.0454 2.67273 13.0454 2.91137C13.0454 3.50319 13.16 4.06955 13.3604 4.58819C13.7486 3.9391 14.4581 3.5 15.2727 3.5C16.504 3.5 17.5 4.49591 17.5 5.72728C17.5 6.43046 17.1722 7.06046 16.66 7.46773C17.0036 7.54728 17.36 7.595 17.729 7.595C18.1872 7.595 18.6295 7.525 19.0495 7.4041C19.1609 7.15591 19.25 6.89819 19.3072 6.63091L20.3636 6.36364V5.09091L19.3072 4.82682C19.2022 4.35273 19.0145 3.91046 18.7631 3.51273Z" fill="#E2E2E2"/>
</g>
</g>
<defs>
<clipPath id="clip0_1_814">
<rect width="21" height="21" fill="white"/>
</clipPath>
</defs>
</svg>
