<svg width="30" height="30" viewBox="0 0 30 30" fill="none" xmlns="http://www.w3.org/2000/svg">
<rect width="30" height="30" rx="4" fill="#689F38"/>
<g clip-path="url(#clip0_917_1946)">
<path d="M19 23.375V21.625C19 20.6967 18.6839 19.8065 18.1213 19.1501C17.5587 18.4937 16.7956 18.125 16 18.125H10.75C9.95435 18.125 9.19129 18.4937 8.62868 19.1501C8.06607 19.8065 7.75 20.6967 7.75 21.625V23.375" stroke="white" stroke-width="2" stroke-linecap="round" stroke-linejoin="round"/>
<path d="M13.375 14.625C15.0319 14.625 16.375 13.058 16.375 11.125C16.375 9.192 15.0319 7.625 13.375 7.625C11.7181 7.625 10.375 9.192 10.375 11.125C10.375 13.058 11.7181 14.625 13.375 14.625Z" stroke="white" stroke-width="2" stroke-linecap="round" stroke-linejoin="round"/>
<path d="M22 12V17.25" stroke="white" stroke-width="2" stroke-linecap="round" stroke-linejoin="round"/>
<path d="M24.25 14.625H19.75" stroke="white" stroke-width="2" stroke-linecap="round" stroke-linejoin="round"/>
</g>
<defs>
<clipPath id="clip0_917_1946">
<rect width="18" height="21" fill="white" transform="translate(7 5)"/>
</clipPath>
</defs>
</svg>
