<svg width="31" height="31" viewBox="0 0 31 31" fill="none" xmlns="http://www.w3.org/2000/svg">
<g clip-path="url(#clip0_272_874)">
<path d="M20.9492 0.908692V26.4595C20.9492 26.968 20.5498 27.3677 20.041 27.3677H12.7754C12.2667 27.3677 11.8672 26.968 11.8672 26.4595L0.96875 0.908692C0.96875 0.399956 1.36822 0.000488281 1.87695 0.000488281H20.041C20.5498 0.000488281 20.9492 0.399956 20.9492 0.908692Z" fill="#07485E"/>
<path d="M20.9492 0.908692V26.4595C20.9492 26.968 20.5498 27.3677 20.041 27.3677H12.7754C12.2667 27.3677 11.8672 26.968 11.8672 26.4595L9.14258 20.1021V0.000488281H20.041C20.5498 0.000488281 20.9492 0.399956 20.9492 0.908692Z" fill="#156682"/>
<path d="M13.1749 5.54053L2.27642 0.0913081C2.0042 -0.035935 1.65889 -0.035935 1.40464 0.127731C1.13218 0.309135 0.96875 0.599807 0.96875 0.908691V26.4595C0.96875 26.8589 1.223 27.2043 1.58628 27.313L9.14258 29.838L12.4847 30.9459C12.7522 31.053 13.0949 30.9925 13.3021 30.8371C13.5384 30.6554 13.6836 30.383 13.6836 30.0923V6.35791C13.6836 6.01284 13.4837 5.70396 13.1749 5.54053Z" fill="#FFAD8D"/>
<path d="M13.6836 6.35806V30.0924C13.6836 30.3831 13.5381 30.6556 13.3021 30.8372C13.0968 30.9912 12.7548 31.0543 12.4847 30.946L9.14258 29.8382V3.52441L13.1749 5.54067C13.4837 5.7041 13.6836 6.01299 13.6836 6.35806Z" fill="#FF6B6B"/>
<path d="M23.2455 19.9949C22.9501 19.8371 22.7656 19.5294 22.7656 19.1941V18.2859H16.4082C15.9061 18.2859 15.5 17.8795 15.5 17.3777V13.7448C15.5 13.2427 15.9061 12.8366 16.4082 12.8366H22.7656V11.9284C22.7656 11.5931 22.9501 11.2854 23.2455 11.1274C23.54 10.9706 23.8992 10.9883 24.1776 11.1728L29.6268 14.8056C29.8796 14.974 30.0313 15.2578 30.0313 15.5612C30.0313 15.8645 29.8796 16.1483 29.6268 16.3167L24.1776 19.9495C23.8959 20.1375 23.5367 20.1512 23.2455 19.9949Z" fill="#FF6B6B"/>
<path d="M10.0508 13.7446V17.3774C10.0508 17.8859 9.65131 18.2856 9.14258 18.2856C8.63384 18.2856 8.23438 17.8859 8.23438 17.3774V13.7446C8.23438 13.2359 8.63384 12.8364 9.14258 12.8364C9.65131 12.8364 10.0508 13.2359 10.0508 13.7446Z" fill="#FFF5F5"/>
<path d="M10.0508 13.7446V17.3774C10.0508 17.8859 9.65131 18.2856 9.14258 18.2856V12.8364C9.65131 12.8364 10.0508 13.2359 10.0508 13.7446Z" fill="#EFE2DD"/>
</g>
<defs>
<clipPath id="clip0_272_874">
<rect width="31" height="31" fill="white"/>
</clipPath>
</defs>
</svg>
