<svg width="30" height="30" viewBox="0 0 30 30" fill="none" xmlns="http://www.w3.org/2000/svg">
<rect width="30" height="30" rx="4" fill="#7C3EFF"/>
<g clip-path="url(#clip0_917_1772)">
<path d="M20.4462 13.5914L15.0618 20.3292C14.0271 21.6241 12.1402 21.8347 10.8454 20.8C9.55053 19.7653 9.33986 17.8784 10.3746 16.5836L16.2272 9.25979C16.5377 8.87131 16.9897 8.62207 17.4839 8.56689C17.9781 8.51171 18.474 8.65511 18.8625 8.96555C19.251 9.276 19.5002 9.72804 19.5554 10.2223C19.6106 10.7165 19.4672 11.2124 19.1567 11.6008L14.2405 17.7528C13.983 18.075 13.5087 18.128 13.1864 17.8705C12.8642 17.613 12.8112 17.1386 13.0687 16.8164L17.5167 11.2503L16.6379 10.548L12.1899 16.1141C11.8794 16.5025 11.736 16.9984 11.7912 17.4926C11.8464 17.9869 12.0956 18.4389 12.4841 18.7493C12.8726 19.0598 13.3685 19.2032 13.8627 19.148C14.3569 19.0928 14.8089 18.8436 15.1194 18.4551L20.0356 12.3031C21.0703 11.0083 20.8596 9.12144 19.5648 8.0867C18.27 7.05196 16.3831 7.26263 15.3484 8.55747L9.49575 15.8812C8.0724 17.6624 8.36192 20.2555 10.1431 21.6788C11.9242 23.1022 14.5173 22.8127 15.9407 21.0315L21.3251 14.2937L20.4462 13.5914Z" fill="white"/>
</g>
<defs>
<clipPath id="clip0_917_1772">
<rect width="18" height="18" fill="white" transform="translate(13.5879 2.35059) rotate(38.6292)"/>
</clipPath>
</defs>
</svg>
