<svg width="24" height="24" viewBox="0 0 24 24" fill="none" xmlns="http://www.w3.org/2000/svg">
<g clip-path="url(#clip0_1_503)">
<path d="M10.7431 13.8942L16.8844 11.1455C16.9105 11.1338 16.9383 11.1279 16.9669 11.1279C16.9956 11.1279 17.0233 11.1338 17.0494 11.1455L17.9529 11.5499V2.77228H0.641357V22.5011C0.641357 23.0345 1.07378 23.4669 1.60717 23.4669H10.6237V22.7517C10.6237 22.6404 10.7143 22.5498 10.8256 22.5498H17.8808V15.3665H10.8256C10.7143 15.3665 10.6237 15.2759 10.6237 15.1646V14.0785C10.6237 13.999 10.6705 13.9267 10.7431 13.8942Z" fill="#F9F3F1"/>
<path d="M16.1045 15.3665H17.8807V22.5498H16.1045V15.3665Z" fill="#F3EAE6"/>
<path d="M16.1045 2.77228V11.4946L16.8844 11.1456C16.9105 11.1338 16.9382 11.1279 16.9669 11.1279C16.9955 11.1279 17.0232 11.1339 17.0494 11.1456L17.9528 11.5499V2.77228H16.1045Z" fill="#F3EAE6"/>
<path d="M16.9871 0H1.60717C1.07378 0 0.641357 0.432422 0.641357 0.965813V2.82061H17.9529V0.965813C17.9529 0.432422 17.5205 0 16.9871 0Z" fill="#0ED2B3"/>
<path d="M16.987 0H15.1387C15.6721 0 16.1045 0.432422 16.1045 0.965813V2.82061H17.9528V0.965813C17.9528 0.432422 17.5204 0 16.987 0Z" fill="#0AB69F"/>
<path d="M1.60717 0C1.07378 0 0.641357 0.432422 0.641357 0.965813V2.82061H3.86308V0H1.60717Z" fill="#5DE1C4"/>
<path d="M11.3733 15.387H12.8718V22.5293H11.3733V15.387Z" fill="#B9ACAC"/>
<path d="M14.6028 15.387H16.1013V22.5293H14.6028V15.387Z" fill="#B9ACAC"/>
<path d="M17.8323 15.387H19.3308V22.5293H17.8323V15.387Z" fill="#B9ACAC"/>
<path d="M21.062 15.387H22.5605V22.5293H21.062V15.387Z" fill="#B9ACAC"/>
<path d="M21.8525 15.387H22.5605V22.5293H21.8525V15.387Z" fill="#9E9797"/>
<path d="M18.623 15.387H19.331V22.5293H18.623V15.387Z" fill="#9E9797"/>
<path d="M15.3933 15.387H16.1013V22.5293H15.3933V15.387Z" fill="#9E9797"/>
<path d="M12.1638 15.387H12.8718V22.5293H12.1638V15.387Z" fill="#9E9797"/>
<path d="M10.5754 14.0785V15.1646C10.5754 15.3028 10.6875 15.4148 10.8257 15.4148H23.1083C23.2465 15.4148 23.3585 15.3028 23.3585 15.1646V14.0785C23.3585 13.9798 23.3005 13.8904 23.2105 13.8501L17.0691 11.1015C17.0041 11.0723 16.9297 11.0723 16.8647 11.1015L10.7233 13.8501C10.6334 13.8904 10.5754 13.9798 10.5754 14.0785Z" fill="#E1D3CE"/>
<path d="M23.2106 13.8501L17.0693 11.1015C17.0042 11.0723 16.9299 11.0723 16.8648 11.1015L15.6707 11.6359L21.7031 14.3358C21.7932 14.3761 21.8512 14.4656 21.8512 14.5642V15.4147H23.1084C23.2465 15.4147 23.3586 15.3027 23.3586 15.1645V14.0784C23.3586 13.9798 23.3006 13.8904 23.2106 13.8501Z" fill="#CDBFBA"/>
<path d="M10.5754 22.7518V23.7498C10.5754 23.888 10.6875 24 10.8257 24H23.1083C23.2465 24 23.3585 23.888 23.3585 23.7498V22.7518C23.3585 22.6136 23.2465 22.5015 23.1083 22.5015H10.8257C10.6875 22.5015 10.5754 22.6135 10.5754 22.7518Z" fill="#E1D3CE"/>
<path d="M23.1083 22.5015H21.6008C21.739 22.5015 21.851 22.6135 21.851 22.7518V23.7498C21.851 23.888 21.739 24 21.6008 24H23.1083C23.2465 24 23.3585 23.888 23.3585 23.7498V22.7518C23.3585 22.6135 23.2465 22.5015 23.1083 22.5015Z" fill="#CDBFBA"/>
<path d="M16.9671 14.2046C17.4158 14.2046 17.7796 13.8408 17.7796 13.392C17.7796 12.9433 17.4158 12.5795 16.9671 12.5795C16.5183 12.5795 16.1545 12.9433 16.1545 13.392C16.1545 13.8408 16.5183 14.2046 16.9671 14.2046Z" fill="#B9ACAC"/>
<path d="M16.9669 12.5795C16.8585 12.5795 16.7552 12.6012 16.6606 12.6397C16.9575 12.7607 17.1669 13.0517 17.1669 13.392C17.1669 13.7324 16.9575 14.0235 16.6606 14.1444C16.7552 14.1829 16.8585 14.2046 16.9669 14.2046C17.4157 14.2046 17.7795 13.8408 17.7795 13.392C17.7795 12.9433 17.4157 12.5795 16.9669 12.5795Z" fill="#9E9797"/>
<path d="M6.41193 11.402C8.31974 11.402 9.86633 9.85542 9.86633 7.94761C9.86633 6.03979 8.31974 4.4932 6.41193 4.4932C4.50411 4.4932 2.95752 6.03979 2.95752 7.94761C2.95752 9.85542 4.50411 11.402 6.41193 11.402Z" fill="#DFF6FD"/>
<path d="M6.41202 4.4932C6.24125 4.4932 6.07353 4.50609 5.90942 4.53C7.57897 4.77342 8.86124 6.21056 8.86124 7.94761C8.86124 9.68466 7.57897 11.1217 5.90942 11.3652C6.07353 11.3892 6.24125 11.402 6.41202 11.402C8.31983 11.402 9.86642 9.85542 9.86642 7.94761C9.86642 6.0398 8.31988 4.4932 6.41202 4.4932Z" fill="#C8EFFE"/>
<path d="M6.41197 11.4021C7.18087 11.4021 7.89088 11.1506 8.46482 10.7257C8.09005 9.97097 7.31183 9.45192 6.41197 9.45192C5.51211 9.45192 4.7339 9.97097 4.35913 10.7257C4.93312 11.1505 5.64308 11.4021 6.41197 11.4021Z" fill="#01D0FB"/>
<path d="M6.41203 9.59254C7.3205 9.59254 8.05697 8.85608 8.05697 7.94761C8.05697 7.03913 7.3205 6.30267 6.41203 6.30267C5.50355 6.30267 4.76709 7.03913 4.76709 7.94761C4.76709 8.85608 5.50355 9.59254 6.41203 9.59254Z" fill="#01D0FB"/>
<path d="M6.4119 6.30267C6.21502 6.30267 6.0263 6.33736 5.85132 6.40078C6.4838 6.63004 6.93572 7.236 6.93572 7.94761C6.93572 8.65922 6.4838 9.26522 5.85132 9.49444C6.0263 9.55786 6.21502 9.59254 6.4119 9.59254C7.32038 9.59254 8.05683 8.85609 8.05683 7.94761C8.05683 7.03912 7.32038 6.30267 6.4119 6.30267Z" fill="#01C0FA"/>
<path d="M4.793 16.0923H3.73035C3.49804 16.0923 3.30908 15.9034 3.30908 15.6711V15.4456C3.30908 15.2133 3.49808 15.0244 3.73035 15.0244H4.793C5.02532 15.0244 5.21427 15.2133 5.21427 15.4456C5.21427 15.6398 5.37168 15.7972 5.56583 15.7972C5.75999 15.7972 5.91739 15.6398 5.91739 15.4456C5.91739 14.8256 5.41297 14.3212 4.793 14.3212H4.61324V13.9644C4.61324 13.7702 4.45583 13.6128 4.26168 13.6128C4.06752 13.6128 3.91011 13.7702 3.91011 13.9644V14.3212H3.73035C3.11033 14.3212 2.60596 14.8257 2.60596 15.4456V15.6711C2.60596 16.2911 3.11038 16.7955 3.73035 16.7955H4.793C5.02532 16.7955 5.21427 16.9844 5.21427 17.2167V17.4421C5.21427 17.6745 5.02527 17.8634 4.793 17.8634H3.73035C3.49804 17.8634 3.30908 17.6745 3.30908 17.4421C3.30908 17.2479 3.15168 17.0906 2.95752 17.0906C2.76336 17.0906 2.60596 17.2479 2.60596 17.4421C2.60596 18.0622 3.11038 18.5665 3.73035 18.5665H3.91011V18.9234C3.91011 19.1176 4.06752 19.275 4.26168 19.275C4.45583 19.275 4.61324 19.1176 4.61324 18.9234V18.5665H4.793C5.41302 18.5665 5.91739 18.0621 5.91739 17.4421V17.2167C5.91744 16.5967 5.41302 16.0923 4.793 16.0923Z" fill="#0ED2B3"/>
<path d="M9.20036 14.6121H6.92969C6.73553 14.6121 6.57812 14.4548 6.57812 14.2605C6.57812 14.0663 6.73553 13.909 6.92969 13.909H9.20036C9.39452 13.909 9.55192 14.0663 9.55192 14.2605C9.55192 14.4548 9.39456 14.6121 9.20036 14.6121Z" fill="#0ED2B3"/>
<path d="M9.20036 16.1502H6.92969C6.73553 16.1502 6.57812 15.9929 6.57812 15.7987C6.57812 15.6045 6.73553 15.4471 6.92969 15.4471H9.20036C9.39452 15.4471 9.55192 15.6045 9.55192 15.7987C9.55192 15.9929 9.39456 16.1502 9.20036 16.1502Z" fill="#0ED2B3"/>
<path d="M9.20036 17.6884H6.92969C6.73553 17.6884 6.57812 17.531 6.57812 17.3368C6.57812 17.1426 6.73553 16.9852 6.92969 16.9852H9.20036C9.39452 16.9852 9.55192 17.1426 9.55192 17.3368C9.55192 17.531 9.39456 17.6884 9.20036 17.6884Z" fill="#0ED2B3"/>
<path d="M9.20036 19.2265H6.92969C6.73553 19.2265 6.57812 19.0691 6.57812 18.8749C6.57812 18.6807 6.73553 18.5234 6.92969 18.5234H9.20036C9.39452 18.5234 9.55192 18.6807 9.55192 18.8749C9.55192 19.0691 9.39456 19.2265 9.20036 19.2265Z" fill="#0ED2B3"/>
<path d="M9.20024 21.1306H2.95752C2.76336 21.1306 2.60596 20.9733 2.60596 20.7791C2.60596 20.5849 2.76336 20.4275 2.95752 20.4275H9.20024C9.39439 20.4275 9.5518 20.5849 9.5518 20.7791C9.5518 20.9733 9.39444 21.1306 9.20024 21.1306Z" fill="#0ED2B3"/>
<path d="M11.3481 5.91108H15.6369C15.8311 5.91108 15.9885 5.75372 15.9885 5.55952C15.9885 5.36531 15.8311 5.20795 15.6369 5.20795H11.3481C11.154 5.20795 10.9966 5.36531 10.9966 5.55952C10.9966 5.75372 11.154 5.91108 11.3481 5.91108Z" fill="#CDBFBA"/>
<path d="M11.3479 7.74398H12.3296C12.5238 7.74398 12.6812 7.58662 12.6812 7.39242C12.6812 7.19822 12.5238 7.04086 12.3296 7.04086H11.3479C11.1537 7.04086 10.9963 7.19822 10.9963 7.39242C10.9963 7.58662 11.1537 7.74398 11.3479 7.74398Z" fill="#CDBFBA"/>
<path d="M15.6367 7.04086H13.5144C13.3202 7.04086 13.1628 7.19822 13.1628 7.39242C13.1628 7.58662 13.3202 7.74398 13.5144 7.74398H15.6368C15.8309 7.74398 15.9883 7.58662 15.9883 7.39242C15.9883 7.19822 15.8309 7.04086 15.6367 7.04086Z" fill="#CDBFBA"/>
<path d="M15.6367 8.87381H11.3479C11.1537 8.87381 10.9963 9.03117 10.9963 9.22538C10.9963 9.41958 11.1537 9.57694 11.3479 9.57694H15.6367C15.8308 9.57694 15.9882 9.41958 15.9882 9.22538C15.9882 9.03117 15.8309 8.87381 15.6367 8.87381Z" fill="#CDBFBA"/>
<path d="M6.41193 11.7536C4.31329 11.7536 2.60596 10.0462 2.60596 7.94765C2.60596 5.84906 4.31333 4.14169 6.41193 4.14169C8.51052 4.14169 10.2179 5.84906 10.2179 7.94765C10.2179 10.0462 8.51052 11.7536 6.41193 11.7536ZM6.41193 4.84476C4.70099 4.84476 3.30908 6.23667 3.30908 7.94761C3.30908 9.65854 4.70104 11.0505 6.41193 11.0505C8.12282 11.0505 9.51477 9.65854 9.51477 7.94761C9.51477 6.23667 8.12282 4.84476 6.41193 4.84476Z" fill="#E1D3CE"/>
</g>
<defs>
<clipPath id="clip0_1_503">
<rect width="24" height="24" fill="white"/>
</clipPath>
</defs>
</svg>
