<svg width="30" height="30" viewBox="0 0 30 30" fill="none" xmlns="http://www.w3.org/2000/svg">
<rect width="30" height="30" rx="4" fill="#FF5B5B"/>
<path d="M20.25 12C20.0511 12 19.8603 12.0724 19.7197 12.2014C19.579 12.3303 19.5 12.5051 19.5 12.6875V20.3807C19.4785 20.7284 19.308 21.0541 19.0256 21.2871C18.7433 21.52 18.3719 21.6412 17.9925 21.6243H12.0075C11.6281 21.6412 11.2567 21.52 10.9744 21.2871C10.692 21.0541 10.5215 20.7284 10.5 20.3807V12.6875C10.5 12.5051 10.421 12.3303 10.2803 12.2014C10.1397 12.0724 9.94891 12 9.75 12C9.55109 12 9.36032 12.0724 9.21967 12.2014C9.07902 12.3303 9 12.5051 9 12.6875V20.3807C9.02141 21.0931 9.34994 21.7686 9.91364 22.2594C10.4773 22.7502 11.2303 23.0162 12.0075 22.9992H17.9925C18.7697 23.0162 19.5227 22.7502 20.0864 22.2594C20.6501 21.7686 20.9786 21.0931 21 20.3807V12.6875C21 12.5051 20.921 12.3303 20.7803 12.2014C20.6397 12.0724 20.4489 12 20.25 12Z" fill="white"/>
<path d="M20.3333 9.4H17.6667V7.8C17.6667 7.58783 17.5964 7.38434 17.4714 7.23431C17.3464 7.08429 17.1768 7 17 7H13C12.8232 7 12.6536 7.08429 12.5286 7.23431C12.4036 7.38434 12.3333 7.58783 12.3333 7.8V9.4H9.66667C9.48986 9.4 9.32029 9.48429 9.19526 9.63431C9.07024 9.78434 9 9.98783 9 10.2C9 10.4122 9.07024 10.6157 9.19526 10.7657C9.32029 10.9157 9.48986 11 9.66667 11H20.3333C20.5101 11 20.6797 10.9157 20.8047 10.7657C20.9298 10.6157 21 10.4122 21 10.2C21 9.98783 20.9298 9.78434 20.8047 9.63431C20.6797 9.48429 20.5101 9.4 20.3333 9.4ZM13.6667 9.4V8.6H16.3333V9.4H13.6667Z" fill="white"/>
<path d="M14 19.2222V13.7778C14 13.5715 13.8946 13.3737 13.7071 13.2278C13.5196 13.0819 13.2652 13 13 13C12.7348 13 12.4804 13.0819 12.2929 13.2278C12.1054 13.3737 12 13.5715 12 13.7778V19.2222C12 19.4285 12.1054 19.6263 12.2929 19.7722C12.4804 19.9181 12.7348 20 13 20C13.2652 20 13.5196 19.9181 13.7071 19.7722C13.8946 19.6263 14 19.4285 14 19.2222Z" fill="white"/>
<path d="M18 19.2222V13.7778C18 13.5715 17.8946 13.3737 17.7071 13.2278C17.5196 13.0819 17.2652 13 17 13C16.7348 13 16.4804 13.0819 16.2929 13.2278C16.1054 13.3737 16 13.5715 16 13.7778V19.2222C16 19.4285 16.1054 19.6263 16.2929 19.7722C16.4804 19.9181 16.7348 20 17 20C17.2652 20 17.5196 19.9181 17.7071 19.7722C17.8946 19.6263 18 19.4285 18 19.2222Z" fill="white"/>
</svg>
