<svg width="30" height="30" viewBox="0 0 30 30" fill="none" xmlns="http://www.w3.org/2000/svg">
<rect width="30" height="30" rx="4" fill="#FBC02D"/>
<path d="M9.70837 10H8.75004C8.24171 10 7.7542 10.2107 7.39475 10.5858C7.03531 10.9609 6.83337 11.4696 6.83337 12V21C6.83337 21.5304 7.03531 22.0391 7.39475 22.4142C7.7542 22.7893 8.24171 23 8.75004 23H17.375C17.8834 23 18.3709 22.7893 18.7303 22.4142C19.0898 22.0391 19.2917 21.5304 19.2917 21V20" stroke="white" stroke-width="2" stroke-linecap="round" stroke-linejoin="round"/>
<path d="M18.3333 8.00011L21.2083 11.0001M22.5356 9.58511C22.9131 9.19126 23.1251 8.65709 23.1251 8.10011C23.1251 7.54312 22.9131 7.00895 22.5356 6.61511C22.1582 6.22126 21.6463 6 21.1125 6C20.5787 6 20.0668 6.22126 19.6894 6.61511L11.625 15.0001V18.0001H14.5L22.5356 9.58511Z" stroke="white" stroke-width="2" stroke-linecap="round" stroke-linejoin="round"/>
</svg>
