<svg width="30" height="30" viewBox="0 0 30 30" fill="none" xmlns="http://www.w3.org/2000/svg">
<rect width="30" height="30" rx="4" fill="#FBC02D"/>
<path d="M21.53 12L16 6.47C15.8595 6.32931 15.6688 6.25018 15.47 6.25H11C10.2707 6.25 9.57118 6.53973 9.05546 7.05546C8.53973 7.57118 8.25 8.27065 8.25 9V21C8.25 21.7293 8.53973 22.4288 9.05546 22.9445C9.57118 23.4603 10.2707 23.75 11 23.75H19C19.7293 23.75 20.4288 23.4603 20.9445 22.9445C21.4603 22.4288 21.75 21.7293 21.75 21V12.5C21.7421 12.3116 21.6636 12.1331 21.53 12ZM16.25 8.81L19.19 11.75H16.25V8.81ZM19 22.25H11C10.6685 22.25 10.3505 22.1183 10.1161 21.8839C9.8817 21.6495 9.75 21.3315 9.75 21V9C9.75 8.66848 9.8817 8.35054 10.1161 8.11612C10.3505 7.8817 10.6685 7.75 11 7.75H14.75V12.5C14.7526 12.6981 14.8324 12.8874 14.9725 13.0275C15.1126 13.1676 15.3019 13.2474 15.5 13.25H20.25V21C20.25 21.3315 20.1183 21.6495 19.8839 21.8839C19.6495 22.1183 19.3315 22.25 19 22.25Z" fill="#F8F8F8"/>
<path d="M17.4699 14.9099C17.3119 14.7892 17.1134 14.7343 16.9158 14.7566C16.7182 14.779 16.5369 14.8769 16.4099 15.0299L14.9999 16.7999L13.5899 14.9999C13.5243 14.9225 13.444 14.8587 13.3537 14.8122C13.2634 14.7658 13.1648 14.7375 13.0636 14.7292C12.9624 14.7208 12.8605 14.7325 12.7638 14.7635C12.6671 14.7945 12.5774 14.8443 12.4999 14.9099C12.4225 14.9756 12.3587 15.0559 12.3122 15.1462C12.2658 15.2365 12.2375 15.3351 12.2292 15.4363C12.2208 15.5375 12.2325 15.6394 12.2635 15.7361C12.2945 15.8328 12.3443 15.9225 12.4099 15.9999L13.9999 17.9999L12.4099 19.9999C12.2853 20.1564 12.2279 20.356 12.2504 20.5548C12.2729 20.7536 12.3735 20.9353 12.5299 21.0599C12.6864 21.1846 12.886 21.242 13.0848 21.2195C13.2836 21.197 13.4653 21.0964 13.5899 20.9399L14.9999 19.1999L16.4099 20.9999C16.4817 21.087 16.5718 21.1572 16.6738 21.2056C16.7757 21.254 16.8871 21.2793 16.9999 21.2799C17.1533 21.2926 17.3069 21.2579 17.4398 21.1803C17.5727 21.1028 17.6785 20.9862 17.743 20.8464C17.8074 20.7067 17.8273 20.5505 17.7999 20.3991C17.7725 20.2476 17.6992 20.1083 17.5899 19.9999L15.9999 17.9999L17.6299 15.9999C17.6922 15.9183 17.7375 15.8251 17.7631 15.7257C17.7888 15.6263 17.7944 15.5228 17.7794 15.4212C17.7645 15.3197 17.7295 15.2221 17.6763 15.1343C17.6232 15.0465 17.553 14.9702 17.4699 14.9099Z" fill="#F8F8F8"/>
</svg>
