<svg width="25" height="25" viewBox="0 0 25 25" fill="none" xmlns="http://www.w3.org/2000/svg">
<g clip-path="url(#clip0_1_662)">
<path fill-rule="evenodd" clip-rule="evenodd" d="M19.7158 7.76015H22.0572V22.2479H19.7158V7.76015ZM2.94287 7.76015H5.28423V22.2479H2.94287V7.76015Z" fill="#9FACBA"/>
<path fill-rule="evenodd" clip-rule="evenodd" d="M21.3835 7.76015H22.0571V22.2479H21.3835V7.76015ZM4.6106 7.76015H5.28413V22.2479H4.6106V7.76015Z" fill="#8D9CA8"/>
<path fill-rule="evenodd" clip-rule="evenodd" d="M12.5 0.943115L24.2187 7.76016V8.61582C24.2187 8.8957 23.9902 9.12417 23.7104 9.12417H1.2896C1.00972 9.12417 0.78125 8.8958 0.78125 8.61582V7.76016L12.5 0.943115Z" fill="#8D9CA8"/>
<path fill-rule="evenodd" clip-rule="evenodd" d="M12.5002 0.943115L24.2189 7.76016H0.781494L12.5002 0.943115Z" fill="#8192A5"/>
<path fill-rule="evenodd" clip-rule="evenodd" d="M12.4999 0.943115L24.2186 7.76016V8.61582C24.2186 8.8957 23.9901 9.12417 23.7103 9.12417H23.0367C23.3166 9.12417 23.5451 8.89575 23.5451 8.61582V7.76016L12.1631 1.13901L12.4999 0.943115Z" fill="#8192A5"/>
<path fill-rule="evenodd" clip-rule="evenodd" d="M12.4999 0.943115L24.2186 7.76016H23.545L12.1631 1.13901L12.4999 0.943115Z" fill="#65788E"/>
<path d="M13.8433 5.40884C14.1498 4.66946 13.7988 3.82163 13.0594 3.51515C12.3201 3.20868 11.4722 3.55962 11.1658 4.299C10.8593 5.03838 11.2102 5.88621 11.9496 6.19268C12.689 6.49915 13.5368 6.14822 13.8433 5.40884Z" fill="#ECEFF1"/>
<path fill-rule="evenodd" clip-rule="evenodd" d="M12.4999 3.40498C12.5855 3.40498 12.6694 3.41245 12.751 3.42671C12.0705 3.5456 11.5533 4.13931 11.5533 4.85386C11.5533 5.56841 12.0706 6.16206 12.751 6.281C12.6695 6.29526 12.5855 6.30273 12.4999 6.30273C11.6997 6.30273 11.051 5.65405 11.051 4.85386C11.051 4.05366 11.6997 3.40498 12.4999 3.40498Z" fill="#D1D1D6"/>
<path fill-rule="evenodd" clip-rule="evenodd" d="M1.75244 21.8969H6.47456V20.0828C6.47456 19.8138 6.25513 19.5943 5.98608 19.5943H2.24092C1.97188 19.5943 1.75244 19.8138 1.75244 20.0828V21.8969Z" fill="#8D9CA8"/>
<path fill-rule="evenodd" clip-rule="evenodd" d="M5.69282 21.8969H6.47461V20.0828C6.47461 19.8138 6.25518 19.5943 5.98613 19.5943H5.20435C5.47339 19.5943 5.69282 19.8138 5.69282 20.0828V21.8969Z" fill="#8192A5"/>
<path fill-rule="evenodd" clip-rule="evenodd" d="M1.26973 20.9678H6.95723C7.22627 20.9678 7.4457 21.1872 7.4457 21.4562V22.176C7.4457 22.445 7.22627 22.6645 6.95723 22.6645H1.26973C1.00068 22.6645 0.78125 22.4451 0.78125 22.176V21.4562C0.78125 21.1872 1.00068 20.9678 1.26973 20.9678Z" fill="#8192A5"/>
<path fill-rule="evenodd" clip-rule="evenodd" d="M6.17554 20.9677H6.95732C7.22637 20.9677 7.4458 21.1872 7.4458 21.4562V22.1759C7.4458 22.445 7.22637 22.6645 6.95732 22.6645H6.17554C6.44458 22.6645 6.66401 22.445 6.66401 22.1759V21.4562C6.66406 21.1872 6.44463 20.9677 6.17554 20.9677Z" fill="#65788E"/>
<path fill-rule="evenodd" clip-rule="evenodd" d="M18.5254 21.8969H23.2475V20.0828C23.2475 19.8138 23.0281 19.5943 22.759 19.5943H19.0139C18.7448 19.5943 18.5254 19.8138 18.5254 20.0828V21.8969Z" fill="#8D9CA8"/>
<path fill-rule="evenodd" clip-rule="evenodd" d="M22.4658 21.8969H23.2476V20.0828C23.2476 19.8138 23.0281 19.5943 22.7591 19.5943H21.9773C22.2463 19.5943 22.4658 19.8138 22.4658 20.0828V21.8969Z" fill="#8192A5"/>
<path fill-rule="evenodd" clip-rule="evenodd" d="M18.0427 20.9678H23.7302C23.9992 20.9678 24.2187 21.1872 24.2187 21.4562V22.176C24.2187 22.445 23.9992 22.6645 23.7302 22.6645H18.0427C17.7736 22.6645 17.5542 22.4451 17.5542 22.176V21.4562C17.5542 21.1872 17.7736 20.9678 18.0427 20.9678Z" fill="#8192A5"/>
<path fill-rule="evenodd" clip-rule="evenodd" d="M22.9485 20.9677H23.7303C23.9993 20.9677 24.2187 21.1872 24.2187 21.4562V22.1759C24.2187 22.445 23.9993 22.6645 23.7303 22.6645H22.9485C23.2175 22.6645 23.437 22.445 23.437 22.1759V21.4562C23.437 21.1872 23.2176 20.9677 22.9485 20.9677Z" fill="#65788E"/>
<path fill-rule="evenodd" clip-rule="evenodd" d="M7.7 10.4742H15.8139C15.8868 10.4742 15.9495 10.5001 16.0011 10.5517L17.4872 12.0378C17.5387 12.0894 17.5647 12.1521 17.5647 12.225V23.3381C17.5647 23.4839 17.4459 23.6028 17.3001 23.6028H7.7C7.5542 23.6028 7.4353 23.4839 7.4353 23.3381V10.7389C7.4353 10.5931 7.5542 10.4742 7.7 10.4742Z" fill="#ECEFF1"/>
<path fill-rule="evenodd" clip-rule="evenodd" d="M7.7 10.4742H8.18423V23.6027H7.7C7.5542 23.6027 7.4353 23.4838 7.4353 23.338V10.7389C7.4353 10.5931 7.5542 10.4742 7.7 10.4742Z" fill="#D1D1D6"/>
<path fill-rule="evenodd" clip-rule="evenodd" d="M15.9236 10.4971C15.9517 10.51 15.9775 10.5282 16.0011 10.5517L17.4873 12.0378C17.5108 12.0614 17.529 12.0873 17.5418 12.1154H16.056C15.9831 12.1154 15.9236 12.056 15.9236 11.983L15.9236 10.4971Z" fill="#A79BA7"/>
<path fill-rule="evenodd" clip-rule="evenodd" d="M9.50244 21.9949C9.28672 21.9949 9.11182 21.82 9.11182 21.6042C9.11182 21.3885 9.28672 21.2136 9.50244 21.2136H15.4977C15.7134 21.2136 15.8883 21.3885 15.8883 21.6042C15.8883 21.82 15.7134 21.9949 15.4977 21.9949H9.50244ZM9.50244 13.1608C9.28672 13.1608 9.11182 12.9859 9.11182 12.7702C9.11182 12.5545 9.28672 12.3796 9.50244 12.3796H13.8061C14.0218 12.3796 14.1967 12.5545 14.1967 12.7702C14.1967 12.9859 14.0218 13.1608 13.8061 13.1608H9.50244ZM9.50244 14.9276C9.28672 14.9276 9.11182 14.7527 9.11182 14.537C9.11182 14.3213 9.28672 14.1464 9.50244 14.1464H15.4977C15.7134 14.1464 15.8883 14.3213 15.8883 14.537C15.8883 14.7527 15.7134 14.9276 15.4977 14.9276H9.50244ZM9.50244 16.6944C9.28672 16.6944 9.11182 16.5195 9.11182 16.3038C9.11182 16.0881 9.28672 15.9132 9.50244 15.9132H15.4977C15.7134 15.9132 15.8883 16.0881 15.8883 16.3038C15.8883 16.5195 15.7134 16.6944 15.4977 16.6944H9.50244ZM9.50244 18.4613C9.28672 18.4613 9.11182 18.2864 9.11182 18.0707C9.11182 17.8549 9.28672 17.68 9.50244 17.68H15.4977C15.7134 17.68 15.8883 17.8549 15.8883 18.0707C15.8883 18.2864 15.7134 18.4613 15.4977 18.4613H9.50244ZM9.50244 20.2281C9.28672 20.2281 9.11182 20.0532 9.11182 19.8375C9.11182 19.6217 9.28672 19.4468 9.50244 19.4468H15.4977C15.7134 19.4468 15.8883 19.6217 15.8883 19.8375C15.8883 20.0532 15.7134 20.2281 15.4977 20.2281H9.50244Z" fill="#A79BA7"/>
<path d="M10.3832 14.195C11.3409 13.2374 11.3409 11.6847 10.3832 10.727C9.42553 9.76933 7.87284 9.76933 6.91517 10.727C5.9575 11.6847 5.9575 13.2374 6.91517 14.195C7.87284 15.1527 9.42553 15.1527 10.3832 14.195Z" fill="#FFC338"/>
<path fill-rule="evenodd" clip-rule="evenodd" d="M8.65137 10.0087C10.006 10.0087 11.104 11.1068 11.104 12.4614C11.104 13.8159 10.0059 14.914 8.65137 14.914C8.57588 14.914 8.50122 14.9104 8.42749 14.9038C9.6771 14.7907 10.6562 13.7405 10.6562 12.4614C10.6562 11.1823 9.6771 10.1321 8.42749 10.019C8.50122 10.0124 8.57588 10.0087 8.65137 10.0087Z" fill="#F5B829"/>
<path fill-rule="evenodd" clip-rule="evenodd" d="M9.73359 11.5653C9.81699 11.7642 9.72343 11.993 9.52456 12.0765C9.32568 12.1599 9.09682 12.0663 9.01337 11.8674C8.96499 11.7522 8.87338 11.6857 8.7729 11.6603C8.70244 11.6424 8.62944 11.6412 8.56215 11.6547C8.49951 11.6673 8.44292 11.6919 8.39995 11.7269C8.35883 11.7604 8.33271 11.8079 8.33554 11.8662C8.33769 11.9104 8.36303 11.9423 8.39853 11.9654C8.47929 12.0182 8.59961 12.0489 8.71626 12.0681C8.92607 12.1025 9.15654 12.1608 9.35385 12.28C9.59672 12.4266 9.78003 12.6481 9.82153 12.9897C9.82441 13.0134 9.82627 13.0446 9.82719 13.0827C9.83476 13.4012 9.69043 13.6378 9.47353 13.8024C9.34672 13.8986 9.19619 13.9659 9.04209 14.007V14.0134C9.04209 14.2291 8.86718 14.4041 8.65146 14.4041C8.43574 14.4041 8.26084 14.2291 8.26084 14.0134V13.9987C8.14448 13.9639 8.03393 13.9134 7.93432 13.847C7.72006 13.7043 7.55581 13.4935 7.48623 13.2142C7.43481 13.0052 7.56259 12.7941 7.77158 12.7427C7.98056 12.6913 8.19169 12.8191 8.24306 13.0281C8.26137 13.1016 8.306 13.158 8.3646 13.197C8.44917 13.2533 8.56015 13.2802 8.67431 13.2774C8.69067 13.277 8.71508 13.2749 8.7476 13.2709C8.84614 13.259 8.94121 13.2302 9.00356 13.1829C9.03125 13.1619 9.0498 13.1345 9.04897 13.101C9.04897 13.0996 9.04814 13.0961 9.04633 13.0813C9.03901 13.021 9.00141 12.9788 8.95097 12.9483C8.85502 12.8904 8.71967 12.8582 8.59106 12.8371C8.38618 12.8034 8.16206 12.7411 7.97426 12.6185C7.74116 12.4663 7.57363 12.2404 7.55727 11.9028C7.54116 11.5711 7.68374 11.3054 7.90854 11.1226C8.01132 11.0391 8.13159 10.9747 8.26074 10.9314V10.9093C8.26074 10.6936 8.43564 10.5187 8.65136 10.5187C8.86709 10.5187 9.04199 10.6936 9.04199 10.9093V10.9266C9.3332 11.0218 9.59209 11.2283 9.73359 11.5653Z" fill="#FFE177"/>
<path d="M15.8848 24.026C17.2217 23.8092 18.1299 22.5497 17.9131 21.2128C17.6964 19.8758 16.4369 18.9677 15.1 19.1844C13.763 19.4012 12.8549 20.6607 13.0716 21.9976C13.2883 23.3346 14.5478 24.2427 15.8848 24.026Z" fill="#8AC9FE"/>
<path fill-rule="evenodd" clip-rule="evenodd" d="M15.4976 19.1516C16.8521 19.1516 17.9502 20.2497 17.9502 21.6042C17.9502 22.9588 16.8521 24.0569 15.4976 24.0569C15.4221 24.0569 15.3474 24.0533 15.2737 24.0466C16.5233 23.9335 17.5024 22.8833 17.5024 21.6042C17.5024 20.3252 16.5233 19.275 15.2737 19.1619C15.3474 19.1552 15.4221 19.1516 15.4976 19.1516Z" fill="#60B7FF"/>
<path fill-rule="evenodd" clip-rule="evenodd" d="M15.172 21.823L16.378 20.605C16.5207 20.4608 16.7536 20.4604 16.8974 20.6034C17.0411 20.7463 17.0415 20.9786 16.899 21.1225C16.4099 21.6161 15.9242 22.1129 15.4328 22.6042C15.2892 22.7479 15.0562 22.7479 14.9126 22.6042L14.0974 21.7892C13.9538 21.6455 13.9538 21.4125 14.0974 21.2689C14.2411 21.1252 14.4741 21.1252 14.6177 21.2689L15.172 21.823Z" fill="#ECEFF1"/>
</g>
<defs>
<clipPath id="clip0_1_662">
<rect width="25" height="25" fill="white"/>
</clipPath>
</defs>
</svg>
