<svg width="22" height="16" viewBox="0 0 22 16" fill="none" xmlns="http://www.w3.org/2000/svg">
<path fill-rule="evenodd" clip-rule="evenodd" d="M0.984864 1.99696H20.9849C21.5028 1.99696 21.9696 1.45827 21.9696 0.940482C21.9696 0.42318 21.5458 0 21.0279 0H0.941496C0.423768 0 0 0.42318 0 0.940482C0 1.45827 0.467136 1.99696 0.984864 1.99696ZM0.984864 8.99694H20.9849C21.5028 8.99694 21.9696 8.51402 21.9696 7.99672C21.9696 7.47941 21.5028 6.99696 20.9849 6.99696H0.984864C0.467136 6.99696 0 7.47941 0 7.99672C0 8.51402 0.467136 8.99694 0.984864 8.99694ZM21.0279 15.9936H0.941496C0.423768 15.9936 0 15.5701 0 15.0525C0 14.5353 0.467136 13.9971 0.984864 13.9971H20.9849C21.5028 13.9971 21.9696 14.5353 21.9696 15.0525C21.9696 15.5701 21.5458 15.9936 21.0279 15.9936Z" fill="#242E3A"/>
</svg>
