<svg width="1837" height="488" viewBox="0 0 1837 488" fill="none" xmlns="http://www.w3.org/2000/svg">
<g filter="url(#filter0_d_123_413)">
<path fill-rule="evenodd" clip-rule="evenodd" d="M13.9132 6.99987H1823.27C1825.23 6.99987 1826.82 8.34316 1826.82 10.0001V472C1826.82 473.657 1825.23 475 1823.27 475H13.9132C11.953 475 10.3642 473.657 10.3642 472V10.0001C10.3642 8.34316 11.953 6.99987 13.9132 6.99987Z" fill="white"/>
</g>
<path d="M48.616 67L51.322 51.6H53.412L50.706 67H48.616ZM58.12 67L60.848 51.6H62.938L60.21 67H58.12ZM51.124 59.938L51.454 57.958H60.782L60.43 59.938H51.124ZM65.3302 60.675C65.6382 60.7923 65.9352 60.884 66.2212 60.95C66.5145 61.0087 66.8628 61.038 67.2662 61.038C68.1462 61.038 68.8282 60.928 69.3122 60.708C69.8035 60.488 70.1445 60.2203 70.3352 59.905C70.5332 59.5897 70.6322 59.2853 70.6322 58.992C70.6322 58.6987 70.5588 58.464 70.4122 58.288C70.2728 58.1047 70.0822 57.9727 69.8402 57.892C69.5982 57.804 69.3342 57.76 69.0482 57.76C68.5568 57.76 68.0875 57.8883 67.6402 58.145C67.2002 58.3943 66.8005 58.7867 66.4412 59.322C66.0818 59.8573 65.7812 60.5503 65.5392 61.401L65.5282 61.511C65.4475 62.5597 65.5208 63.37 65.7482 63.942C65.9755 64.514 66.3128 64.91 66.7602 65.13C67.2148 65.35 67.7282 65.46 68.3002 65.46C68.7328 65.46 69.2168 65.4087 69.7522 65.306C70.2948 65.2033 70.8008 65.042 71.2702 64.822L71.1822 66.384C70.7642 66.626 70.2655 66.8277 69.6862 66.989C69.1142 67.143 68.4762 67.22 67.7722 67.22C66.7748 67.22 65.9498 67.0147 65.2972 66.604C64.6518 66.186 64.1678 65.625 63.8452 64.921C63.5298 64.217 63.3722 63.4287 63.3722 62.556C63.3722 61.7053 63.5115 60.8877 63.7902 60.103C64.0688 59.3183 64.4685 58.618 64.9892 58.002C65.5098 57.386 66.1295 56.8983 66.8482 56.539C67.5668 56.1797 68.3662 56 69.2462 56C70.2948 56 71.0905 56.2567 71.6332 56.77C72.1832 57.276 72.4582 57.936 72.4582 58.75C72.4582 59.1533 72.3775 59.5677 72.2162 59.993C72.0548 60.4183 71.7835 60.8143 71.4022 61.181C71.0208 61.5403 70.5075 61.83 69.8622 62.05C69.2168 62.27 68.4102 62.38 67.4422 62.38C67.0095 62.38 66.5805 62.3543 66.1552 62.303C65.7372 62.2443 65.4035 62.1673 65.1542 62.072L65.3302 60.675ZM77.0343 67.22C76.3083 67.22 75.674 67.0403 75.1313 66.681C74.596 66.3217 74.1817 65.8193 73.8883 65.174C73.595 64.5287 73.4483 63.7733 73.4483 62.908C73.4483 62.0353 73.5877 61.1883 73.8663 60.367C74.145 59.5457 74.5373 58.8087 75.0433 58.156C75.5567 57.496 76.158 56.9717 76.8473 56.583C77.544 56.1943 78.303 56 79.1243 56C79.491 56 79.8613 56.055 80.2353 56.165C80.6093 56.275 80.9467 56.4877 81.2473 56.803C81.5553 57.111 81.779 57.5693 81.9183 58.178L81.3133 58.244L82.0503 56.22H83.8103L82.5123 63.854C82.4537 64.1913 82.4243 64.4773 82.4243 64.712C82.4243 65.064 82.5013 65.306 82.6553 65.438C82.8093 65.57 83.077 65.636 83.4583 65.636L82.9083 67.22C82.5343 67.22 82.1933 67.2017 81.8853 67.165C81.5773 67.1283 81.306 67.0293 81.0713 66.868C80.844 66.7067 80.6607 66.45 80.5213 66.098C80.3893 65.7387 80.316 65.24 80.3013 64.602L80.8073 65.097C80.4993 65.5517 80.151 65.9403 79.7623 66.263C79.381 66.5783 78.9593 66.8167 78.4973 66.978C78.0427 67.1393 77.555 67.22 77.0343 67.22ZM77.6943 65.46C78.1123 65.46 78.523 65.3647 78.9263 65.174C79.337 64.976 79.711 64.6863 80.0483 64.305C80.3857 63.9163 80.6533 63.4397 80.8513 62.875C81.0493 62.303 81.1483 61.6467 81.1483 60.906C81.1483 59.806 80.932 59.0067 80.4993 58.508C80.074 58.0093 79.5423 57.76 78.9043 57.76C78.259 57.76 77.6797 57.98 77.1663 58.42C76.6603 58.86 76.257 59.4393 75.9563 60.158C75.663 60.8767 75.5163 61.654 75.5163 62.49C75.5163 63.3113 75.685 64.0117 76.0223 64.591C76.367 65.1703 76.9243 65.46 77.6943 65.46ZM88.7863 67.22C88.0676 67.22 87.4369 67.022 86.8943 66.626C86.3589 66.2227 85.9409 65.68 85.6403 64.998C85.3469 64.3087 85.2003 63.5313 85.2003 62.666C85.2003 61.83 85.3323 61.016 85.5963 60.224C85.8676 59.432 86.2489 58.717 86.7403 58.079C87.2316 57.441 87.8073 56.935 88.4673 56.561C89.1346 56.187 89.8643 56 90.6563 56C91.1623 56 91.6023 56.077 91.9763 56.231C92.3503 56.385 92.6729 56.6197 92.9443 56.935C93.2229 57.2503 93.4723 57.65 93.6923 58.134L93.2303 58.288L94.5943 50.5H96.5963L93.6923 67H91.8663L92.0203 64.701L92.3943 65.064C91.9176 65.7607 91.3639 66.296 90.7333 66.67C90.1099 67.0367 89.4609 67.22 88.7863 67.22ZM89.4463 65.46C89.8643 65.46 90.2749 65.3647 90.6783 65.174C91.0889 64.976 91.4629 64.6863 91.8003 64.305C92.1376 63.9163 92.4053 63.4397 92.6033 62.875C92.8013 62.303 92.9003 61.6467 92.9003 60.906C92.9003 59.806 92.6839 59.0067 92.2513 58.508C91.8259 58.0093 91.2943 57.76 90.6563 57.76C90.0109 57.76 89.4316 57.98 88.9183 58.42C88.4123 58.86 88.0089 59.4393 87.7083 60.158C87.4149 60.8767 87.2683 61.654 87.2683 62.49C87.2683 63.3113 87.4369 64.0117 87.7743 64.591C88.1189 65.1703 88.6763 65.46 89.4463 65.46ZM96.388 67L98.28 56.22H100.282L98.39 67H96.388ZM98.72 53.8L99.094 51.6H101.096L100.722 53.8H98.72ZM101.093 67L102.985 56.22H104.679L104.525 58.937L103.095 67H101.093ZM107.825 67C108.052 65.7093 108.239 64.6387 108.386 63.788C108.533 62.9373 108.65 62.259 108.738 61.753C108.826 61.2397 108.888 60.851 108.925 60.587C108.962 60.3157 108.984 60.1213 108.991 60.004C109.006 59.8867 109.013 59.7913 109.013 59.718C109.013 59.0433 108.863 58.5483 108.562 58.233C108.269 57.9177 107.803 57.76 107.165 57.76C106.6 57.76 106.072 57.8883 105.581 58.145C105.097 58.3943 104.697 58.7903 104.382 59.333L104.448 57.529C105.057 56.9057 105.632 56.495 106.175 56.297C106.718 56.099 107.268 56 107.825 56C108.969 56 109.79 56.3043 110.289 56.913C110.788 57.5143 111.037 58.3613 111.037 59.454C111.037 59.5493 111.03 59.6667 111.015 59.806C111.008 59.9453 110.982 60.158 110.938 60.444C110.901 60.73 110.839 61.137 110.751 61.665C110.67 62.193 110.553 62.8897 110.399 63.755C110.252 64.613 110.062 65.6947 109.827 67H107.825ZM116.441 64.514C115.385 64.514 114.549 64.217 113.933 63.623C113.317 63.029 113.009 62.1453 113.009 60.972C113.009 60.136 113.2 59.3403 113.581 58.585C113.97 57.8223 114.524 57.2027 115.242 56.726C115.961 56.242 116.815 56 117.805 56C118.854 56 119.679 56.3263 120.28 56.979C120.889 57.6243 121.193 58.4933 121.193 59.586C121.193 60.1727 121.08 60.7593 120.852 61.346C120.632 61.9253 120.313 62.457 119.895 62.941C119.477 63.4177 118.975 63.799 118.388 64.085C117.809 64.371 117.16 64.514 116.441 64.514ZM116.661 62.996C117.204 62.996 117.673 62.8347 118.069 62.512C118.473 62.1893 118.781 61.775 118.993 61.269C119.213 60.7557 119.323 60.2167 119.323 59.652C119.323 58.97 119.166 58.4567 118.85 58.112C118.542 57.76 118.106 57.584 117.541 57.584C116.991 57.584 116.515 57.738 116.111 58.046C115.715 58.3467 115.411 58.7463 115.198 59.245C114.986 59.7363 114.879 60.268 114.879 60.84C114.879 61.5293 115.037 62.061 115.352 62.435C115.668 62.809 116.104 62.996 116.661 62.996ZM115.363 72.5C114.344 72.5 113.534 72.3497 112.932 72.049C112.338 71.7557 111.913 71.3927 111.656 70.96C111.4 70.5273 111.271 70.1093 111.271 69.706C111.271 69.4347 111.337 69.1083 111.469 68.727C111.601 68.353 111.843 67.9827 112.195 67.616C112.54 67.2493 113.035 66.9523 113.68 66.725L115.121 67.253C114.777 67.341 114.45 67.4987 114.142 67.726C113.834 67.9533 113.581 68.2137 113.383 68.507C113.193 68.8077 113.097 69.112 113.097 69.42C113.097 69.8453 113.314 70.2083 113.746 70.509C114.179 70.8097 114.806 70.96 115.627 70.96C116.28 70.96 116.845 70.8647 117.321 70.674C117.798 70.4907 118.165 70.256 118.421 69.97C118.685 69.684 118.817 69.3907 118.817 69.09C118.817 68.738 118.671 68.463 118.377 68.265C118.084 68.0743 117.703 67.924 117.233 67.814C116.771 67.704 116.28 67.6013 115.759 67.506C115.239 67.418 114.744 67.3043 114.274 67.165C113.812 67.033 113.435 66.846 113.141 66.604C112.848 66.3547 112.701 66.021 112.701 65.603C112.701 65.383 112.822 65.0823 113.064 64.701C113.306 64.3197 113.728 64.0007 114.329 63.744L115.33 64.206C115.147 64.316 114.989 64.4407 114.857 64.58C114.725 64.7193 114.659 64.8733 114.659 65.042C114.659 65.2913 114.861 65.4857 115.264 65.625C115.675 65.757 116.353 65.922 117.299 66.12C117.637 66.1933 118.003 66.2887 118.399 66.406C118.803 66.516 119.184 66.67 119.543 66.868C119.903 67.0587 120.196 67.308 120.423 67.616C120.658 67.9313 120.775 68.32 120.775 68.782C120.775 69.3907 120.555 69.9773 120.115 70.542C119.683 71.114 119.059 71.5833 118.245 71.95C117.439 72.3167 116.478 72.5 115.363 72.5ZM120.588 57.716L119.972 56.869C120.273 56.6783 120.636 56.517 121.061 56.385C121.494 56.2457 121.963 56.176 122.469 56.176H122.777L122.359 57.496H121.765C121.692 57.496 121.523 57.5143 121.259 57.551C121.003 57.5803 120.779 57.6353 120.588 57.716Z" fill="#464A53"/>
<path fill-rule="evenodd" clip-rule="evenodd" d="M55 84.9999H77C79.7614 84.9999 82 87.2386 82 89.9999C82 92.7613 79.7614 94.9999 77 94.9999H55C52.2385 94.9999 49.9999 92.7613 49.9999 89.9999C49.9999 87.2386 52.2385 84.9999 55 84.9999Z" fill="#71D875"/>
<path d="M104.336 89.72H106.752C107.285 89.72 107.731 89.6 108.088 89.36C108.451 89.12 108.723 88.7973 108.904 88.392C109.091 87.9813 109.184 87.5227 109.184 87.016C109.184 86.456 109.059 86.008 108.808 85.672C108.557 85.3307 108.112 85.16 107.472 85.16H105.08L105.88 84.488L104.016 95H102.448L104.416 83.8H107.504C108.24 83.8 108.851 83.9067 109.336 84.12C109.821 84.328 110.184 84.6533 110.424 85.096C110.664 85.5387 110.784 86.1093 110.784 86.808C110.784 87.592 110.669 88.256 110.44 88.8C110.211 89.344 109.904 89.784 109.52 90.12C109.136 90.456 108.704 90.7013 108.224 90.856C107.749 91.0053 107.264 91.08 106.768 91.08H104.096L104.336 89.72ZM110.691 95L112.067 87.16H113.331L113.195 89.336L112.195 95H110.691ZM113.115 89.56L113.107 88.592C113.422 88.2027 113.723 87.8827 114.011 87.632C114.305 87.376 114.593 87.1867 114.875 87.064C115.163 86.936 115.454 86.872 115.747 86.872H115.971L115.395 88.456H114.867C114.654 88.456 114.43 88.512 114.195 88.624C113.961 88.7307 113.745 88.8693 113.547 89.04C113.355 89.2107 113.211 89.384 113.115 89.56ZM118.609 95.16C117.942 95.16 117.39 95.016 116.953 94.728C116.515 94.4347 116.187 94.0373 115.969 93.536C115.755 93.0347 115.649 92.472 115.649 91.848C115.649 91.2027 115.753 90.5893 115.961 90.008C116.174 89.4267 116.473 88.912 116.857 88.464C117.241 88.0107 117.694 87.6533 118.217 87.392C118.745 87.1307 119.323 87 119.953 87C120.619 87 121.171 87.1467 121.609 87.44C122.046 87.7333 122.371 88.1333 122.585 88.64C122.803 89.1413 122.913 89.704 122.913 90.328C122.913 90.968 122.806 91.5787 122.593 92.16C122.385 92.736 122.089 93.2507 121.705 93.704C121.321 94.1573 120.865 94.5147 120.337 94.776C119.814 95.032 119.238 95.16 118.609 95.16ZM118.817 93.88C119.35 93.88 119.811 93.7253 120.201 93.416C120.59 93.1067 120.891 92.6933 121.105 92.176C121.318 91.6533 121.425 91.0747 121.425 90.44C121.425 89.72 121.283 89.1813 121.001 88.824C120.718 88.4613 120.299 88.28 119.745 88.28C119.211 88.28 118.75 88.4347 118.361 88.744C117.971 89.0533 117.67 89.4693 117.457 89.992C117.243 90.5093 117.137 91.0853 117.137 91.72C117.137 92.4293 117.275 92.968 117.553 93.336C117.835 93.6987 118.257 93.88 118.817 93.88ZM126.475 95.16C125.953 95.16 125.494 95.016 125.099 94.728C124.71 94.4347 124.406 94.04 124.187 93.544C123.974 93.0427 123.867 92.4773 123.867 91.848C123.867 91.24 123.963 90.648 124.155 90.072C124.353 89.496 124.63 88.976 124.987 88.512C125.345 88.048 125.763 87.68 126.243 87.408C126.729 87.136 127.259 87 127.835 87C128.203 87 128.523 87.056 128.795 87.168C129.067 87.28 129.302 87.4507 129.499 87.68C129.702 87.9093 129.883 88.2 130.043 88.552L129.707 88.664L130.699 83H132.155L130.043 95H128.715L128.827 93.328L129.099 93.592C128.753 94.0987 128.35 94.488 127.891 94.76C127.438 95.0267 126.966 95.16 126.475 95.16ZM126.955 93.88C127.259 93.88 127.558 93.8107 127.851 93.672C128.15 93.528 128.422 93.3173 128.667 93.04C128.913 92.7573 129.107 92.4107 129.251 92C129.395 91.584 129.467 91.1067 129.467 90.568C129.467 89.768 129.31 89.1867 128.995 88.824C128.686 88.4613 128.299 88.28 127.835 88.28C127.366 88.28 126.945 88.44 126.571 88.76C126.203 89.08 125.91 89.5013 125.691 90.024C125.478 90.5467 125.371 91.112 125.371 91.72C125.371 92.3173 125.494 92.8267 125.739 93.248C125.99 93.6693 126.395 93.88 126.955 93.88ZM134.564 95.16C133.87 95.16 133.334 94.96 132.956 94.56C132.577 94.16 132.388 93.592 132.388 92.856C132.388 92.7333 132.398 92.5867 132.42 92.416C132.441 92.2453 132.473 92.0293 132.516 91.768L133.3 87.16H134.756L134.004 91.544C133.966 91.752 133.94 91.9307 133.924 92.08C133.913 92.224 133.908 92.3333 133.908 92.408C133.908 93.3893 134.324 93.88 135.156 93.88C135.486 93.88 135.806 93.8 136.116 93.64C136.425 93.4747 136.694 93.2133 136.924 92.856L136.74 94.04C136.473 94.3653 136.164 94.6347 135.812 94.848C135.46 95.056 135.044 95.16 134.564 95.16ZM136.612 95L136.676 93.912L137.86 87.16H139.316L137.94 95H136.612ZM143.11 95.16C142.39 95.16 141.811 95.0107 141.374 94.712C140.937 94.4133 140.617 94.0107 140.414 93.504C140.217 92.9973 140.118 92.4347 140.118 91.816C140.118 91.192 140.211 90.592 140.398 90.016C140.585 89.44 140.862 88.9253 141.23 88.472C141.603 88.0187 142.065 87.6613 142.614 87.4C143.169 87.1333 143.809 87 144.534 87C144.934 87 145.31 87.0427 145.662 87.128C146.019 87.208 146.305 87.32 146.518 87.464L146.102 88.76C145.862 88.6053 145.611 88.488 145.35 88.408C145.089 88.3227 144.817 88.28 144.534 88.28C143.883 88.28 143.339 88.4293 142.902 88.728C142.47 89.0267 142.145 89.4293 141.926 89.936C141.713 90.4373 141.606 90.9947 141.606 91.608C141.606 92.328 141.766 92.8907 142.086 93.296C142.406 93.696 142.902 93.896 143.574 93.896C144.118 93.896 144.694 93.736 145.302 93.416L145.254 94.648C145.014 94.776 144.715 94.8933 144.358 95C144.001 95.1067 143.585 95.16 143.11 95.16ZM148.806 95.16C148.23 95.16 147.824 95.0133 147.59 94.72C147.355 94.4267 147.238 94.088 147.238 93.704C147.238 93.672 147.243 93.6133 147.254 93.528C147.264 93.4427 147.291 93.2613 147.334 92.984C147.382 92.7013 147.456 92.264 147.558 91.672C147.659 91.0747 147.8 90.256 147.982 89.216C148.168 88.176 148.406 86.8453 148.694 85.224L150.166 85.08L148.742 93.384C148.742 93.672 148.827 93.848 148.998 93.912C149.174 93.976 149.488 94.008 149.942 94.008H150.326L150.006 95.16H148.806ZM146.998 88.28L147.318 87.16H151.574L151.366 88.28H146.998ZM157.795 95.224C157.059 95.224 156.414 95.1493 155.859 95C155.31 94.8507 154.899 94.6853 154.627 94.504L155.139 92.728C155.443 92.9893 155.838 93.2427 156.323 93.488C156.809 93.728 157.379 93.848 158.035 93.848C158.494 93.848 158.921 93.7813 159.315 93.648C159.71 93.5093 160.027 93.2987 160.267 93.016C160.507 92.7333 160.627 92.3707 160.627 91.928C160.627 91.5333 160.531 91.2133 160.339 90.968C160.147 90.7227 159.889 90.5173 159.563 90.352C159.238 90.1867 158.878 90.024 158.483 89.864C158.19 89.7413 157.883 89.6133 157.563 89.48C157.249 89.3467 156.955 89.184 156.683 88.992C156.417 88.8 156.198 88.5627 156.027 88.28C155.862 87.9973 155.779 87.6507 155.779 87.24C155.779 86.8827 155.854 86.4933 156.003 86.072C156.158 85.6507 156.401 85.2507 156.731 84.872C157.067 84.4933 157.507 84.184 158.051 83.944C158.595 83.6987 159.257 83.576 160.035 83.576C160.702 83.576 161.294 83.6587 161.811 83.824C162.334 83.984 162.755 84.1573 163.075 84.344L162.643 85.96C162.211 85.6293 161.785 85.3787 161.363 85.208C160.942 85.0373 160.462 84.952 159.923 84.952C159.571 84.952 159.203 85.016 158.819 85.144C158.441 85.272 158.118 85.472 157.851 85.744C157.59 86.016 157.459 86.3653 157.459 86.792C157.459 87.24 157.622 87.5787 157.947 87.808C158.278 88.032 158.723 88.2533 159.283 88.472C159.646 88.6107 160.006 88.7573 160.363 88.912C160.726 89.0613 161.054 89.248 161.347 89.472C161.646 89.6907 161.886 89.9707 162.067 90.312C162.249 90.648 162.339 91.0747 162.339 91.592C162.339 92.0133 162.265 92.4373 162.115 92.864C161.966 93.2907 161.718 93.6827 161.371 94.04C161.025 94.3973 160.558 94.6853 159.971 94.904C159.39 95.1173 158.665 95.224 157.795 95.224ZM166.437 95.16C165.77 95.16 165.218 95.016 164.781 94.728C164.343 94.4347 164.015 94.0373 163.797 93.536C163.583 93.0347 163.477 92.472 163.477 91.848C163.477 91.2027 163.581 90.5893 163.789 90.008C164.002 89.4267 164.301 88.912 164.685 88.464C165.069 88.0107 165.522 87.6533 166.045 87.392C166.573 87.1307 167.151 87 167.781 87C168.447 87 168.999 87.1467 169.437 87.44C169.874 87.7333 170.199 88.1333 170.413 88.64C170.631 89.1413 170.741 89.704 170.741 90.328C170.741 90.968 170.634 91.5787 170.421 92.16C170.213 92.736 169.917 93.2507 169.533 93.704C169.149 94.1573 168.693 94.5147 168.165 94.776C167.642 95.032 167.066 95.16 166.437 95.16ZM166.645 93.88C167.178 93.88 167.639 93.7253 168.029 93.416C168.418 93.1067 168.719 92.6933 168.933 92.176C169.146 91.6533 169.253 91.0747 169.253 90.44C169.253 89.72 169.111 89.1813 168.829 88.824C168.546 88.4613 168.127 88.28 167.573 88.28C167.039 88.28 166.578 88.4347 166.189 88.744C165.799 89.0533 165.498 89.4693 165.285 89.992C165.071 90.5093 164.965 91.0853 164.965 91.72C164.965 92.4293 165.103 92.968 165.381 93.336C165.663 93.6987 166.085 93.88 166.645 93.88ZM173.279 95.16C172.714 95.16 172.317 95.024 172.087 94.752C171.858 94.48 171.743 94.1573 171.743 93.784C171.743 93.6667 171.757 93.5147 171.783 93.328C171.81 93.136 171.85 92.8933 171.903 92.6L173.583 83H175.039L173.343 92.744C173.311 92.9253 173.29 93.0613 173.279 93.152C173.269 93.2427 173.263 93.3147 173.263 93.368C173.263 93.6293 173.33 93.8027 173.463 93.888C173.602 93.968 173.834 94.008 174.159 94.008L173.775 95.16H173.279ZM177.96 95.16C177.437 95.16 176.978 95.016 176.584 94.728C176.194 94.4347 175.89 94.04 175.672 93.544C175.458 93.0427 175.352 92.4773 175.352 91.848C175.352 91.24 175.448 90.648 175.64 90.072C175.837 89.496 176.114 88.976 176.472 88.512C176.829 88.048 177.248 87.68 177.728 87.408C178.213 87.136 178.744 87 179.32 87C179.688 87 180.008 87.056 180.28 87.168C180.552 87.28 180.786 87.4507 180.984 87.68C181.186 87.9093 181.368 88.2 181.528 88.552L181.192 88.664L182.184 83H183.64L181.528 95H180.2L180.312 93.328L180.584 93.592C180.237 94.0987 179.834 94.488 179.376 94.76C178.922 95.0267 178.45 95.16 177.96 95.16ZM178.44 93.88C178.744 93.88 179.042 93.8107 179.336 93.672C179.634 93.528 179.906 93.3173 180.152 93.04C180.397 92.7573 180.592 92.4107 180.736 92C180.88 91.584 180.952 91.1067 180.952 90.568C180.952 89.768 180.794 89.1867 180.48 88.824C180.17 88.4613 179.784 88.28 179.32 88.28C178.85 88.28 178.429 88.44 178.056 88.76C177.688 89.08 177.394 89.5013 177.176 90.024C176.962 90.5467 176.856 91.112 176.856 91.72C176.856 92.3173 176.978 92.8267 177.224 93.248C177.474 93.6693 177.88 93.88 178.44 93.88Z" fill="#ABAFB3"/>
<path d="M87.032 137.198C86.5653 137.198 86.1453 137.112 85.772 136.939C85.4033 136.762 85.1117 136.514 84.897 136.197C84.6823 135.88 84.5727 135.509 84.568 135.084C84.568 134.51 84.7103 133.99 84.995 133.523C85.2843 133.056 85.6763 132.688 86.171 132.417C86.6703 132.142 87.228 132.004 87.844 132.004C88.3993 132.004 88.852 132.104 89.202 132.305C89.552 132.501 89.8087 132.765 89.972 133.096C90.14 133.427 90.224 133.791 90.224 134.188C90.224 134.781 90.0817 135.303 89.797 135.756C89.5123 136.209 89.1273 136.563 88.642 136.82C88.1613 137.072 87.6247 137.198 87.032 137.198ZM87.172 136.106C87.676 136.106 88.0867 135.94 88.404 135.609C88.7213 135.273 88.88 134.865 88.88 134.384C88.88 134.025 88.7797 133.74 88.579 133.53C88.383 133.315 88.082 133.208 87.676 133.208C87.158 133.208 86.7333 133.371 86.402 133.698C86.0753 134.025 85.912 134.431 85.912 134.916C85.912 135.252 86.0193 135.534 86.234 135.763C86.4487 135.992 86.7613 136.106 87.172 136.106ZM86.192 142.196C85.6227 142.196 85.121 142.096 84.687 141.895C84.253 141.69 83.9147 141.403 83.672 141.034C83.4293 140.665 83.308 140.231 83.308 139.732C83.308 139.233 83.4083 138.768 83.609 138.339C83.8097 137.91 84.0873 137.534 84.442 137.212C84.8013 136.885 85.212 136.631 85.674 136.449C86.1407 136.267 86.6353 136.176 87.158 136.176C88.0213 136.176 88.7003 136.398 89.195 136.841C89.6943 137.284 89.944 137.884 89.944 138.64C89.944 139.335 89.776 139.951 89.44 140.488C89.104 141.02 88.6513 141.438 88.082 141.741C87.5173 142.044 86.8873 142.196 86.192 142.196ZM86.304 140.992C86.7473 140.992 87.1393 140.899 87.48 140.712C87.8207 140.521 88.0867 140.259 88.278 139.928C88.4693 139.597 88.5627 139.219 88.558 138.794C88.5533 138.327 88.411 137.956 88.131 137.681C87.851 137.406 87.4613 137.268 86.962 137.268C86.5187 137.268 86.1243 137.375 85.779 137.59C85.4383 137.8 85.1723 138.082 84.981 138.437C84.7897 138.787 84.694 139.172 84.694 139.592C84.6987 140.026 84.841 140.369 85.121 140.621C85.4057 140.868 85.8 140.992 86.304 140.992Z" fill="#6A707E"/>
<path d="M86.136 212.196C85.5527 212.196 85.0463 212.079 84.617 211.846C84.1923 211.608 83.8633 211.274 83.63 210.845C83.3967 210.416 83.28 209.909 83.28 209.326C83.28 208.57 83.434 207.828 83.742 207.1C84.05 206.372 84.4677 205.686 84.995 205.042C85.527 204.393 86.129 203.81 86.801 203.292C87.473 202.774 88.1707 202.345 88.894 202.004L89.65 202.998C89.1833 203.208 88.726 203.448 88.278 203.719C87.8347 203.985 87.4123 204.279 87.011 204.601C86.6143 204.923 86.255 205.271 85.933 205.644C85.611 206.013 85.338 206.407 85.114 206.827C84.8947 207.247 84.7407 207.688 84.652 208.15L84.484 207.576C84.778 207.128 85.1723 206.773 85.667 206.512C86.1617 206.251 86.71 206.12 87.312 206.12C88.0913 206.12 88.7073 206.356 89.16 206.827C89.6173 207.298 89.846 207.903 89.846 208.64C89.846 209.298 89.685 209.895 89.363 210.432C89.0457 210.969 88.607 211.398 88.047 211.72C87.4917 212.037 86.8547 212.196 86.136 212.196ZM86.22 211.048C86.6493 211.048 87.032 210.941 87.368 210.726C87.704 210.507 87.9677 210.224 88.159 209.879C88.3503 209.529 88.446 209.158 88.446 208.766C88.446 208.332 88.3153 207.975 88.054 207.695C87.7973 207.41 87.4333 207.268 86.962 207.268C86.5187 207.268 86.122 207.378 85.772 207.597C85.422 207.812 85.1467 208.094 84.946 208.444C84.75 208.789 84.652 209.158 84.652 209.55C84.6567 210.007 84.8013 210.371 85.086 210.642C85.3707 210.913 85.7487 211.048 86.22 211.048Z" fill="#6A707E"/>
<path d="M87.004 282L88.432 273.95L88.656 274.342L84.876 278.71L84.638 278.332H90.063L89.867 279.466H82.72L89.062 272.2H90.028L88.292 282H87.004Z" fill="#6A707E"/>
<path d="M82.58 351.986L85.814 347.926C86.248 347.38 86.6073 346.909 86.892 346.512C87.1767 346.115 87.3867 345.756 87.522 345.434C87.662 345.107 87.732 344.781 87.732 344.454C87.732 344.09 87.6293 343.801 87.424 343.586C87.2233 343.371 86.934 343.264 86.556 343.264C86.0893 343.264 85.6413 343.381 85.212 343.614C84.7873 343.847 84.3673 344.146 83.952 344.51L84.036 343.11C84.3953 342.807 84.82 342.548 85.31 342.333C85.8047 342.114 86.318 342.004 86.85 342.004C87.6153 342.004 88.187 342.209 88.565 342.62C88.943 343.031 89.132 343.572 89.132 344.244C89.132 344.729 89.0457 345.184 88.873 345.609C88.7003 346.034 88.446 346.479 88.11 346.946C87.7787 347.408 87.3727 347.94 86.892 348.542L84.729 351.251L84.505 350.782H88.446L88.236 351.986H82.58Z" fill="#6A707E"/>
<path d="M86.682 422.196C85.9867 422.196 85.401 422.037 84.925 421.72C84.449 421.403 84.0873 420.957 83.84 420.383C83.5973 419.809 83.476 419.139 83.476 418.374C83.476 417.557 83.5927 416.769 83.826 416.008C84.064 415.247 84.4023 414.566 84.841 413.964C85.2843 413.362 85.8117 412.886 86.423 412.536C87.039 412.181 87.7227 412.004 88.474 412.004C89.146 412.004 89.7223 412.156 90.203 412.459C90.6837 412.758 91.0523 413.185 91.309 413.74C91.5657 414.291 91.694 414.944 91.694 415.7C91.694 416.503 91.5727 417.291 91.33 418.066C91.092 418.836 90.7513 419.534 90.308 420.159C89.8693 420.78 89.342 421.274 88.726 421.643C88.1147 422.012 87.4333 422.196 86.682 422.196ZM86.892 420.992C87.452 420.992 87.9443 420.84 88.369 420.537C88.7937 420.229 89.1483 419.821 89.433 419.312C89.7177 418.803 89.9323 418.239 90.077 417.618C90.2217 416.997 90.294 416.372 90.294 415.742C90.294 414.893 90.112 414.258 89.748 413.838C89.3887 413.418 88.894 413.208 88.264 413.208C87.6993 413.208 87.2047 413.36 86.78 413.663C86.36 413.962 86.01 414.363 85.73 414.867C85.45 415.366 85.24 415.922 85.1 416.533C84.96 417.14 84.89 417.749 84.89 418.36C84.89 419.205 85.058 419.856 85.394 420.313C85.7347 420.766 86.234 420.992 86.892 420.992Z" fill="#6A707E"/>
<path fill-rule="evenodd" clip-rule="evenodd" d="M149.306 332.86C149.306 332.86 219.044 328.853 307.377 380.943C307.377 380.943 392.806 439.544 468.936 339.872C468.936 339.872 535.186 267.246 582.839 270.752C582.839 270.752 623.521 274.759 668.849 311.823C668.849 311.823 752.534 383.447 789.727 372.929C789.727 372.929 807.161 380.943 895.496 304.811C895.496 304.811 952.447 246.21 1001.26 255.726C1001.26 255.726 1037.29 256.227 1108.19 304.811C1108.19 304.811 1198.27 381.444 1284.86 282.773C1284.86 282.773 1362.73 202.635 1415.04 216.659C1415.04 216.659 1456.3 219.664 1527.78 269.75C1527.78 269.75 1585.89 316.832 1678.88 276.763C1678.88 276.763 1748.61 242.704 1774.18 228.68C1775.35 258.732 1774.18 414 1774.18 414H149.306C149.306 414 149.306 295.796 149.306 332.86Z" fill="#D5EDE2"/>
<path opacity="0.05" fill-rule="evenodd" clip-rule="evenodd" d="M138.486 135V134H1775.84V135H138.486Z" fill="black"/>
<path opacity="0.05" fill-rule="evenodd" clip-rule="evenodd" d="M138.486 204.999V203.999H1775.84V204.999H138.486Z" fill="black"/>
<path opacity="0.05" fill-rule="evenodd" clip-rule="evenodd" d="M138.486 275V273.999H1775.84V275H138.486Z" fill="black"/>
<path opacity="0.05" fill-rule="evenodd" clip-rule="evenodd" d="M138.486 345V343.999H1775.84V345H138.486Z" fill="black"/>
<path opacity="0.05" fill-rule="evenodd" clip-rule="evenodd" d="M138.486 415V414H1775.84V415H138.486Z" fill="black"/>
<path opacity="0.05" fill-rule="evenodd" clip-rule="evenodd" d="M137.324 133.999H138.494V414H137.324V133.999Z" fill="black"/>
<path opacity="0.05" fill-rule="evenodd" clip-rule="evenodd" d="M465.027 133.999H466.197V414H465.027V133.999Z" fill="black"/>
<path opacity="0.05" fill-rule="evenodd" clip-rule="evenodd" d="M792.729 133.999H793.9V414H792.729V133.999Z" fill="black"/>
<path opacity="0.05" fill-rule="evenodd" clip-rule="evenodd" d="M1119.26 133.999H1120.43V414H1119.26V133.999Z" fill="black"/>
<path opacity="0.05" fill-rule="evenodd" clip-rule="evenodd" d="M1446.96 133.999H1448.13V414H1446.96V133.999Z" fill="black"/>
<path opacity="0.05" fill-rule="evenodd" clip-rule="evenodd" d="M1774.67 133.999H1775.84V414H1774.67V133.999Z" fill="black"/>
<path d="M1555 37.4998H1773C1774.38 37.4998 1775.5 38.6191 1775.5 39.9999V82.9999C1775.5 84.3806 1774.38 85.4998 1773 85.4998H1555C1553.62 85.4998 1552.5 84.3806 1552.5 82.9999V39.9999C1552.5 38.6191 1553.62 37.4998 1555 37.4998Z" fill="#218DFA" fill-opacity="0.01" stroke="#DDDFE1"/>
<path d="M1572.42 67.5L1574.27 57H1575.69L1573.96 66.84L1573.43 66.21H1578.27L1578.03 67.5H1572.42ZM1582.06 67.65C1581.57 67.65 1581.13 67.5275 1580.76 67.2825C1580.4 67.0375 1580.12 66.695 1579.92 66.255C1579.72 65.815 1579.62 65.3 1579.62 64.71C1579.62 64.115 1579.71 63.5375 1579.9 62.9775C1580.09 62.4175 1580.36 61.915 1580.7 61.47C1581.05 61.02 1581.46 60.6625 1581.93 60.3975C1582.41 60.1325 1582.93 60 1583.49 60C1583.74 60 1583.99 60.0375 1584.24 60.1125C1584.5 60.1875 1584.73 60.3325 1584.93 60.5475C1585.14 60.7575 1585.3 61.07 1585.39 61.485L1584.98 61.53L1585.48 60.15H1586.68L1585.8 65.355C1585.76 65.585 1585.74 65.78 1585.74 65.94C1585.74 66.18 1585.79 66.345 1585.89 66.435C1586 66.525 1586.18 66.57 1586.44 66.57L1586.07 67.65C1585.81 67.65 1585.58 67.6375 1585.37 67.6125C1585.16 67.5875 1584.97 67.52 1584.81 67.41C1584.66 67.3 1584.53 67.125 1584.44 66.885C1584.35 66.64 1584.3 66.3 1584.29 65.865L1584.63 66.2025C1584.42 66.5125 1584.19 66.7775 1583.92 66.9975C1583.66 67.2125 1583.37 67.375 1583.06 67.485C1582.75 67.595 1582.42 67.65 1582.06 67.65ZM1582.51 66.45C1582.8 66.45 1583.08 66.385 1583.35 66.255C1583.63 66.12 1583.89 65.9225 1584.12 65.6625C1584.35 65.3975 1584.53 65.0725 1584.66 64.6875C1584.8 64.2975 1584.87 63.85 1584.87 63.345C1584.87 62.595 1584.72 62.05 1584.42 61.71C1584.13 61.37 1583.77 61.2 1583.34 61.2C1582.9 61.2 1582.5 61.35 1582.15 61.65C1581.81 61.95 1581.53 62.345 1581.33 62.835C1581.13 63.325 1581.03 63.855 1581.03 64.425C1581.03 64.985 1581.14 65.4625 1581.37 65.8575C1581.61 66.2525 1581.99 66.45 1582.51 66.45ZM1589.77 67.65C1589.16 67.65 1588.67 67.5725 1588.31 67.4175C1587.96 67.2625 1587.7 67.125 1587.55 67.005L1587.93 65.7C1588.07 65.84 1588.32 66 1588.66 66.18C1589 66.36 1589.41 66.45 1589.89 66.45C1590.37 66.45 1590.72 66.3525 1590.94 66.1575C1591.16 65.9575 1591.27 65.705 1591.27 65.4C1591.27 65.045 1591.15 64.7975 1590.91 64.6575C1590.68 64.5125 1590.43 64.4 1590.18 64.32C1589.9 64.23 1589.63 64.125 1589.36 64.005C1589.1 63.88 1588.89 63.705 1588.72 63.48C1588.55 63.255 1588.47 62.94 1588.47 62.535C1588.47 62.16 1588.56 61.7775 1588.75 61.3875C1588.94 60.9925 1589.24 60.6625 1589.66 60.3975C1590.09 60.1325 1590.65 60 1591.36 60C1591.81 60 1592.19 60.0525 1592.49 60.1575C1592.79 60.2575 1593.02 60.365 1593.19 60.48L1592.83 61.71C1592.68 61.53 1592.47 61.3775 1592.2 61.2525C1591.94 61.1275 1591.63 61.065 1591.27 61.065C1590.87 61.065 1590.53 61.1575 1590.25 61.3425C1589.97 61.5275 1589.83 61.805 1589.83 62.175C1589.83 62.475 1589.94 62.69 1590.16 62.82C1590.38 62.95 1590.71 63.095 1591.17 63.255C1591.38 63.33 1591.61 63.4325 1591.84 63.5625C1592.08 63.6875 1592.29 63.8725 1592.45 64.1175C1592.62 64.3575 1592.7 64.685 1592.7 65.1C1592.7 65.315 1592.66 65.5675 1592.59 65.8575C1592.52 66.1475 1592.38 66.43 1592.17 66.705C1591.97 66.975 1591.68 67.2 1591.29 67.38C1590.9 67.56 1590.4 67.65 1589.77 67.65ZM1596.05 67.65C1595.51 67.65 1595.13 67.5125 1594.91 67.2375C1594.69 66.9625 1594.58 66.645 1594.58 66.285C1594.58 66.255 1594.59 66.2 1594.6 66.12C1594.61 66.04 1594.63 65.87 1594.67 65.61C1594.72 65.345 1594.79 64.935 1594.88 64.38C1594.98 63.82 1595.11 63.0525 1595.28 62.0775C1595.46 61.1025 1595.68 59.855 1595.95 58.335L1597.33 58.2L1595.99 65.985C1595.99 66.255 1596.07 66.42 1596.23 66.48C1596.4 66.54 1596.69 66.57 1597.12 66.57H1597.48L1597.18 67.65H1596.05ZM1594.36 61.2L1594.66 60.15H1598.65L1598.45 61.2H1594.36ZM1604.69 67.71C1604.11 67.71 1603.55 67.625 1603.03 67.455C1602.51 67.28 1602.02 67.055 1601.57 66.78L1602.16 65.46C1602.59 65.75 1603.01 65.9825 1603.43 66.1575C1603.85 66.3325 1604.3 66.42 1604.78 66.42C1605.37 66.42 1605.85 66.2525 1606.23 65.9175C1606.61 65.5825 1606.81 65.115 1606.81 64.515C1606.81 63.975 1606.64 63.545 1606.3 63.225C1605.97 62.905 1605.44 62.745 1604.71 62.745H1604.12L1604.35 61.455H1604.93C1605.63 61.455 1606.2 61.28 1606.64 60.93C1607.08 60.575 1607.3 60.075 1607.3 59.43C1607.3 58.97 1607.18 58.63 1606.93 58.41C1606.69 58.19 1606.34 58.08 1605.88 58.08C1605.5 58.08 1605.12 58.1625 1604.73 58.3275C1604.34 58.4925 1603.97 58.695 1603.6 58.935L1603.61 57.48C1604.02 57.255 1604.44 57.085 1604.89 56.97C1605.35 56.85 1605.83 56.79 1606.33 56.79C1607.12 56.79 1607.75 57.0125 1608.21 57.4575C1608.67 57.8975 1608.91 58.47 1608.91 59.175C1608.91 59.685 1608.79 60.15 1608.56 60.57C1608.33 60.985 1608.01 61.335 1607.6 61.62C1607.2 61.905 1606.73 62.1 1606.19 62.205L1606.25 61.86C1606.91 62.025 1607.43 62.3275 1607.8 62.7675C1608.17 63.2025 1608.35 63.765 1608.35 64.455C1608.35 65.07 1608.19 65.6225 1607.88 66.1125C1607.56 66.6025 1607.13 66.9925 1606.57 67.2825C1606.02 67.5675 1605.4 67.71 1604.69 67.71ZM1613.96 67.71C1613.21 67.71 1612.58 67.54 1612.07 67.2C1611.56 66.86 1611.18 66.3825 1610.91 65.7675C1610.65 65.1525 1610.52 64.435 1610.52 63.615C1610.52 62.74 1610.65 61.895 1610.9 61.08C1611.15 60.265 1611.51 59.535 1611.98 58.89C1612.46 58.245 1613.02 57.735 1613.68 57.36C1614.34 56.98 1615.07 56.79 1615.88 56.79C1616.6 56.79 1617.21 56.9525 1617.73 57.2775C1618.24 57.5975 1618.64 58.055 1618.91 58.65C1619.19 59.24 1619.33 59.94 1619.33 60.75C1619.33 61.61 1619.2 62.455 1618.94 63.285C1618.68 64.11 1618.32 64.8575 1617.84 65.5275C1617.37 66.1925 1616.81 66.7225 1616.15 67.1175C1615.49 67.5125 1614.76 67.71 1613.96 67.71ZM1614.18 66.42C1614.78 66.42 1615.31 66.2575 1615.76 65.9325C1616.22 65.6025 1616.6 65.165 1616.9 64.62C1617.21 64.075 1617.44 63.47 1617.59 62.805C1617.75 62.14 1617.83 61.47 1617.83 60.795C1617.83 59.885 1617.63 59.205 1617.24 58.755C1616.86 58.305 1616.33 58.08 1615.65 58.08C1615.05 58.08 1614.52 58.2425 1614.06 58.5675C1613.61 58.8875 1613.24 59.3175 1612.94 59.8575C1612.64 60.3925 1612.41 60.9875 1612.26 61.6425C1612.11 62.2925 1612.04 62.945 1612.04 63.6C1612.04 64.505 1612.22 65.2025 1612.58 65.6925C1612.94 66.1775 1613.48 66.42 1614.18 66.42ZM1626.54 67.65C1626.05 67.65 1625.62 67.515 1625.25 67.245C1624.88 66.97 1624.6 66.6 1624.39 66.135C1624.19 65.665 1624.09 65.135 1624.09 64.545C1624.09 63.975 1624.18 63.42 1624.36 62.88C1624.55 62.34 1624.81 61.8525 1625.14 61.4175C1625.48 60.9825 1625.87 60.6375 1626.32 60.3825C1626.78 60.1275 1627.27 60 1627.81 60C1628.16 60 1628.46 60.0525 1628.71 60.1575C1628.97 60.2625 1629.19 60.4225 1629.37 60.6375C1629.56 60.8525 1629.73 61.125 1629.88 61.455L1629.57 61.56L1630.5 56.25H1631.86L1629.88 67.5H1628.64L1628.74 65.9325L1629 66.18C1628.67 66.655 1628.3 67.02 1627.87 67.275C1627.44 67.525 1627 67.65 1626.54 67.65ZM1626.99 66.45C1627.27 66.45 1627.55 66.385 1627.83 66.255C1628.11 66.12 1628.36 65.9225 1628.59 65.6625C1628.82 65.3975 1629.01 65.0725 1629.14 64.6875C1629.28 64.2975 1629.34 63.85 1629.34 63.345C1629.34 62.595 1629.2 62.05 1628.9 61.71C1628.61 61.37 1628.25 61.2 1627.81 61.2C1627.37 61.2 1626.98 61.35 1626.63 61.65C1626.28 61.95 1626.01 62.345 1625.8 62.835C1625.6 63.325 1625.5 63.855 1625.5 64.425C1625.5 64.985 1625.62 65.4625 1625.85 65.8575C1626.08 66.2525 1626.46 66.45 1626.99 66.45ZM1634.63 67.65C1634.14 67.65 1633.71 67.5275 1633.34 67.2825C1632.97 67.0375 1632.69 66.695 1632.49 66.255C1632.29 65.815 1632.19 65.3 1632.19 64.71C1632.19 64.115 1632.28 63.5375 1632.47 62.9775C1632.66 62.4175 1632.93 61.915 1633.28 61.47C1633.63 61.02 1634.04 60.6625 1634.51 60.3975C1634.98 60.1325 1635.5 60 1636.06 60C1636.31 60 1636.56 60.0375 1636.82 60.1125C1637.07 60.1875 1637.3 60.3325 1637.51 60.5475C1637.72 60.7575 1637.87 61.07 1637.96 61.485L1637.55 61.53L1638.05 60.15H1639.25L1638.37 65.355C1638.33 65.585 1638.31 65.78 1638.31 65.94C1638.31 66.18 1638.36 66.345 1638.47 66.435C1638.57 66.525 1638.75 66.57 1639.01 66.57L1638.64 67.65C1638.38 67.65 1638.15 67.6375 1637.94 67.6125C1637.73 67.5875 1637.55 67.52 1637.39 67.41C1637.23 67.3 1637.11 67.125 1637.01 66.885C1636.92 66.64 1636.87 66.3 1636.86 65.865L1637.21 66.2025C1637 66.5125 1636.76 66.7775 1636.49 66.9975C1636.23 67.2125 1635.95 67.375 1635.63 67.485C1635.32 67.595 1634.99 67.65 1634.63 67.65ZM1635.08 66.45C1635.37 66.45 1635.65 66.385 1635.92 66.255C1636.2 66.12 1636.46 65.9225 1636.69 65.6625C1636.92 65.3975 1637.1 65.0725 1637.24 64.6875C1637.37 64.2975 1637.44 63.85 1637.44 63.345C1637.44 62.595 1637.29 62.05 1637 61.71C1636.71 61.37 1636.34 61.2 1635.91 61.2C1635.47 61.2 1635.07 61.35 1634.72 61.65C1634.38 61.95 1634.1 62.345 1633.9 62.835C1633.7 63.325 1633.6 63.855 1633.6 64.425C1633.6 64.985 1633.71 65.4625 1633.94 65.8575C1634.18 66.2525 1634.56 66.45 1635.08 66.45ZM1639.98 71.13L1642.51 66.6075L1642.33 67.8L1640.65 60.15H1642.17L1643.28 66.24L1642.88 66.18L1645.96 60.15H1647.48L1641.43 71.13H1639.98ZM1649.43 67.65C1648.81 67.65 1648.32 67.5725 1647.96 67.4175C1647.61 67.2625 1647.36 67.125 1647.21 67.005L1647.58 65.7C1647.73 65.84 1647.97 66 1648.31 66.18C1648.65 66.36 1649.06 66.45 1649.55 66.45C1650.02 66.45 1650.37 66.3525 1650.59 66.1575C1650.81 65.9575 1650.93 65.705 1650.93 65.4C1650.93 65.045 1650.81 64.7975 1650.57 64.6575C1650.33 64.5125 1650.09 64.4 1649.83 64.32C1649.55 64.23 1649.28 64.125 1649.01 64.005C1648.75 63.88 1648.54 63.705 1648.37 63.48C1648.2 63.255 1648.12 62.94 1648.12 62.535C1648.12 62.16 1648.21 61.7775 1648.4 61.3875C1648.59 60.9925 1648.89 60.6625 1649.31 60.3975C1649.74 60.1325 1650.31 60 1651.02 60C1651.47 60 1651.84 60.0525 1652.14 60.1575C1652.44 60.2575 1652.68 60.365 1652.85 60.48L1652.49 61.71C1652.33 61.53 1652.12 61.3775 1651.86 61.2525C1651.59 61.1275 1651.28 61.065 1650.93 61.065C1650.52 61.065 1650.18 61.1575 1649.9 61.3425C1649.62 61.5275 1649.49 61.805 1649.49 62.175C1649.49 62.475 1649.59 62.69 1649.81 62.82C1650.03 62.95 1650.37 63.095 1650.82 63.255C1651.04 63.33 1651.26 63.4325 1651.5 63.5625C1651.74 63.6875 1651.94 63.8725 1652.1 64.1175C1652.27 64.3575 1652.35 64.685 1652.35 65.1C1652.35 65.315 1652.31 65.5675 1652.24 65.8575C1652.17 66.1475 1652.03 66.43 1651.83 66.705C1651.63 66.975 1651.33 67.2 1650.94 67.38C1650.56 67.56 1650.05 67.65 1649.43 67.65Z" fill="#464A53"/>
<path d="M1745 61L1748.5 64L1752 61" stroke="#464A53" stroke-linecap="round"/>
<path fill-rule="evenodd" clip-rule="evenodd" d="M172.378 414V338C172.378 332.477 177.543 328 183.914 328C190.285 328 195.45 332.477 195.45 338V414" fill="#71D875"/>
<path fill-rule="evenodd" clip-rule="evenodd" d="M225.443 414V350C225.443 344.477 230.607 340 236.978 340C243.349 340 248.514 344.477 248.514 350V414" fill="#71D875"/>
<path fill-rule="evenodd" clip-rule="evenodd" d="M278.507 414V370C278.507 364.477 283.672 360 290.043 360C296.414 360 301.579 364.477 301.579 370V414" fill="#71D875"/>
<path fill-rule="evenodd" clip-rule="evenodd" d="M331.572 414V395C331.572 389.477 336.736 385 343.107 385C349.478 385 354.643 389.477 354.643 395V414" fill="#71D875"/>
<path fill-rule="evenodd" clip-rule="evenodd" d="M385.789 414V390C385.789 384.477 390.954 380 397.325 380C403.696 380 408.861 384.477 408.861 390V414" fill="#71D875"/>
<path fill-rule="evenodd" clip-rule="evenodd" d="M438.854 414V350C438.854 344.477 444.019 340 450.39 340C456.761 340 461.925 344.477 461.925 350V414" fill="#71D875"/>
<path fill-rule="evenodd" clip-rule="evenodd" d="M491.918 414V300C491.918 294.477 497.083 290 503.454 290C509.825 290 514.99 294.477 514.99 300V414" fill="#71D875"/>
<path fill-rule="evenodd" clip-rule="evenodd" d="M544.983 414V272C544.983 266.477 550.147 262 556.519 262C562.889 262 568.054 266.477 568.054 272V414" fill="#71D875"/>
<path fill-rule="evenodd" clip-rule="evenodd" d="M598.047 414V280C598.047 274.477 603.212 270 609.583 270C615.954 270 621.119 274.477 621.119 280V414" fill="#71D875"/>
<path fill-rule="evenodd" clip-rule="evenodd" d="M651.112 414V305C651.112 299.477 656.276 295 662.647 295C669.018 295 674.183 299.477 674.183 305V414" fill="#71D875"/>
<path fill-rule="evenodd" clip-rule="evenodd" d="M704.176 414V340C704.176 334.477 709.341 330 715.712 330C722.083 330 727.248 334.477 727.248 340V414" fill="#71D875"/>
<path fill-rule="evenodd" clip-rule="evenodd" d="M758.394 414V370C758.394 364.477 763.559 360 769.93 360C776.301 360 781.465 364.477 781.465 370V414" fill="#71D875"/>
<path fill-rule="evenodd" clip-rule="evenodd" d="M811.458 414V350C811.458 344.477 816.623 340 822.994 340C829.365 340 834.53 344.477 834.53 350V414" fill="#71D875"/>
<path fill-rule="evenodd" clip-rule="evenodd" d="M864.523 414V308C864.523 302.477 869.687 298 876.059 298C882.43 298 887.594 302.477 887.594 308V414" fill="#71D875"/>
<path fill-rule="evenodd" clip-rule="evenodd" d="M917.587 414V269C917.587 263.477 922.752 259 929.123 259C935.494 259 940.659 263.477 940.659 269V414" fill="#71D875"/>
<path fill-rule="evenodd" clip-rule="evenodd" d="M970.652 414V252C970.652 246.477 975.816 242 982.187 242C988.558 242 993.723 246.477 993.723 252V414" fill="#71D875"/>
<path fill-rule="evenodd" clip-rule="evenodd" d="M1023.72 414V268C1023.72 262.477 1028.88 258 1035.25 258C1041.62 258 1046.79 262.477 1046.79 268V414" fill="#71D875"/>
<path fill-rule="evenodd" clip-rule="evenodd" d="M1076.78 414V291C1076.78 285.477 1081.95 281 1088.32 281C1094.69 281 1099.85 285.477 1099.85 291V414" fill="#71D875"/>
<path fill-rule="evenodd" clip-rule="evenodd" d="M1129.85 414V320C1129.85 314.477 1135.01 310 1141.38 310C1147.75 310 1152.92 314.477 1152.92 320V414" fill="#71D875"/>
<path fill-rule="evenodd" clip-rule="evenodd" d="M1184.06 414V330C1184.06 324.477 1189.23 320 1195.6 320C1201.97 320 1207.13 324.477 1207.13 330V414" fill="#71D875"/>
<path fill-rule="evenodd" clip-rule="evenodd" d="M1237.13 414V298C1237.13 292.477 1242.29 288 1248.66 288C1255.03 288 1260.2 292.477 1260.2 298V414" fill="#71D875"/>
<path fill-rule="evenodd" clip-rule="evenodd" d="M1290.19 414V256C1290.19 250.477 1295.36 246 1301.73 246C1308.1 246 1313.26 250.477 1313.26 256V414" fill="#71D875"/>
<path fill-rule="evenodd" clip-rule="evenodd" d="M1343.26 414V222C1343.26 216.477 1348.42 212 1354.79 212C1361.16 212 1366.33 216.477 1366.33 222V414" fill="#71D875"/>
<path fill-rule="evenodd" clip-rule="evenodd" d="M1396.31 414V217C1396.31 211.477 1401.47 207 1407.84 207C1414.21 207 1419.38 211.477 1419.38 217V414" fill="#71D875"/>
<path fill-rule="evenodd" clip-rule="evenodd" d="M1449.39 414V235C1449.39 229.477 1454.55 225 1460.92 225C1467.29 225 1472.46 229.477 1472.46 235V414" fill="#71D875"/>
<path fill-rule="evenodd" clip-rule="evenodd" d="M1502.45 414V260C1502.45 254.477 1507.61 250 1513.98 250C1520.36 250 1525.52 254.477 1525.52 260V414" fill="#71D875"/>
<path fill-rule="evenodd" clip-rule="evenodd" d="M1556.67 414V290C1556.67 284.477 1561.83 280 1568.2 280C1574.57 280 1579.74 284.477 1579.74 290V414" fill="#71D875"/>
<path fill-rule="evenodd" clip-rule="evenodd" d="M1609.73 414V292C1609.73 286.477 1614.9 282 1621.27 282C1627.64 282 1632.8 286.477 1632.8 292V414" fill="#71D875"/>
<path fill-rule="evenodd" clip-rule="evenodd" d="M1662.8 414V271C1662.8 265.477 1667.96 261 1674.33 261C1680.7 261 1685.87 265.477 1685.87 271V414" fill="#71D875"/>
<path fill-rule="evenodd" clip-rule="evenodd" d="M1715.86 414V249C1715.86 243.477 1721.02 239 1727.4 239C1733.77 239 1738.93 243.477 1738.93 249V414" fill="#71D875"/>
<path d="M364.958 447L367.884 437.2H369.088L370.558 442.639L370.089 442.569L373.428 437.2H374.632L374.1 447H372.7L373.218 439.181L373.505 439.279L369.956 444.676L368.255 439.202H368.598L366.358 447H364.958ZM378.161 447.14C377.699 447.14 377.296 447.026 376.95 446.797C376.61 446.568 376.346 446.249 376.159 445.838C375.973 445.427 375.879 444.947 375.879 444.396C375.879 443.841 375.968 443.302 376.145 442.779C376.323 442.256 376.572 441.787 376.894 441.372C377.221 440.952 377.604 440.618 378.042 440.371C378.486 440.124 378.969 440 379.491 440C379.725 440 379.96 440.035 380.198 440.105C380.436 440.175 380.651 440.31 380.842 440.511C381.038 440.707 381.181 440.999 381.269 441.386L380.884 441.428L381.353 440.14H382.473L381.647 444.998C381.61 445.213 381.591 445.395 381.591 445.544C381.591 445.768 381.64 445.922 381.738 446.006C381.836 446.09 382.007 446.132 382.249 446.132L381.899 447.14C381.661 447.14 381.444 447.128 381.248 447.105C381.052 447.082 380.88 447.019 380.73 446.916C380.586 446.813 380.469 446.65 380.38 446.426C380.296 446.197 380.25 445.88 380.24 445.474L380.562 445.789C380.366 446.078 380.145 446.326 379.897 446.531C379.655 446.732 379.386 446.883 379.092 446.986C378.803 447.089 378.493 447.14 378.161 447.14ZM378.581 446.02C378.847 446.02 379.109 445.959 379.365 445.838C379.627 445.712 379.865 445.528 380.079 445.285C380.294 445.038 380.464 444.734 380.59 444.375C380.716 444.011 380.779 443.593 380.779 443.122C380.779 442.422 380.642 441.913 380.366 441.596C380.096 441.279 379.757 441.12 379.351 441.12C378.941 441.12 378.572 441.26 378.245 441.54C377.923 441.82 377.667 442.189 377.475 442.646C377.289 443.103 377.195 443.598 377.195 444.13C377.195 444.653 377.303 445.098 377.517 445.467C377.737 445.836 378.091 446.02 378.581 446.02ZM383.008 450.388L385.374 446.167L385.206 447.28L383.638 440.14H385.052L386.095 445.824L385.717 445.768L388.594 440.14H390.008L384.366 450.388H383.008ZM396.422 447.196C395.726 447.196 395.141 447.037 394.665 446.72C394.189 446.403 393.827 445.957 393.58 445.383C393.337 444.809 393.216 444.139 393.216 443.374C393.216 442.557 393.332 441.769 393.566 441.008C393.804 440.247 394.142 439.566 394.581 438.964C395.024 438.362 395.551 437.886 396.163 437.536C396.779 437.181 397.462 437.004 398.214 437.004C398.886 437.004 399.462 437.156 399.943 437.459C400.423 437.758 400.792 438.185 401.049 438.74C401.305 439.291 401.434 439.944 401.434 440.7C401.434 441.503 401.312 442.291 401.07 443.066C400.832 443.836 400.491 444.534 400.048 445.159C399.609 445.78 399.082 446.274 398.466 446.643C397.854 447.012 397.173 447.196 396.422 447.196ZM396.632 445.992C397.192 445.992 397.684 445.84 398.109 445.537C398.533 445.229 398.888 444.821 399.173 444.312C399.457 443.803 399.672 443.239 399.817 442.618C399.961 441.997 400.034 441.372 400.034 440.742C400.034 439.893 399.852 439.258 399.488 438.838C399.128 438.418 398.634 438.208 398.004 438.208C397.439 438.208 396.944 438.36 396.52 438.663C396.1 438.962 395.75 439.363 395.47 439.867C395.19 440.366 394.98 440.922 394.84 441.533C394.7 442.14 394.63 442.749 394.63 443.36C394.63 444.205 394.798 444.856 395.134 445.313C395.474 445.766 395.974 445.992 396.632 445.992ZM401.907 446.986L405.141 442.926C405.575 442.38 405.934 441.909 406.219 441.512C406.504 441.115 406.714 440.756 406.849 440.434C406.989 440.107 407.059 439.781 407.059 439.454C407.059 439.09 406.956 438.801 406.751 438.586C406.55 438.371 406.261 438.264 405.883 438.264C405.416 438.264 404.968 438.381 404.539 438.614C404.114 438.847 403.694 439.146 403.279 439.51L403.363 438.11C403.722 437.807 404.147 437.548 404.637 437.333C405.132 437.114 405.645 437.004 406.177 437.004C406.942 437.004 407.514 437.209 407.892 437.62C408.27 438.031 408.459 438.572 408.459 439.244C408.459 439.729 408.373 440.184 408.2 440.609C408.027 441.034 407.773 441.479 407.437 441.946C407.106 442.408 406.7 442.94 406.219 443.542L404.056 446.251L403.832 445.782H407.773L407.563 446.986H401.907ZM409.681 448.498H408.883L409.653 447H409.163L409.429 445.516H410.941L410.703 446.86L409.681 448.498ZM414.618 446.986L417.852 442.926C418.286 442.38 418.645 441.909 418.93 441.512C419.215 441.115 419.425 440.756 419.56 440.434C419.7 440.107 419.77 439.781 419.77 439.454C419.77 439.09 419.667 438.801 419.462 438.586C419.261 438.371 418.972 438.264 418.594 438.264C418.127 438.264 417.679 438.381 417.25 438.614C416.825 438.847 416.405 439.146 415.99 439.51L416.074 438.11C416.433 437.807 416.858 437.548 417.348 437.333C417.843 437.114 418.356 437.004 418.888 437.004C419.653 437.004 420.225 437.209 420.603 437.62C420.981 438.031 421.17 438.572 421.17 439.244C421.17 439.729 421.084 440.184 420.911 440.609C420.738 441.034 420.484 441.479 420.148 441.946C419.817 442.408 419.411 442.94 418.93 443.542L416.767 446.251L416.543 445.782H420.484L420.274 446.986H414.618ZM425.696 447.196C425.001 447.196 424.415 447.037 423.939 446.72C423.463 446.403 423.101 445.957 422.854 445.383C422.611 444.809 422.49 444.139 422.49 443.374C422.49 442.557 422.607 441.769 422.84 441.008C423.078 440.247 423.416 439.566 423.855 438.964C424.298 438.362 424.826 437.886 425.437 437.536C426.053 437.181 426.737 437.004 427.488 437.004C428.16 437.004 428.736 437.156 429.217 437.459C429.698 437.758 430.066 438.185 430.323 438.74C430.58 439.291 430.708 439.944 430.708 440.7C430.708 441.503 430.587 442.291 430.344 443.066C430.106 443.836 429.765 444.534 429.322 445.159C428.883 445.78 428.356 446.274 427.74 446.643C427.129 447.012 426.447 447.196 425.696 447.196ZM425.906 445.992C426.466 445.992 426.958 445.84 427.383 445.537C427.808 445.229 428.162 444.821 428.447 444.312C428.732 443.803 428.946 443.239 429.091 442.618C429.236 441.997 429.308 441.372 429.308 440.742C429.308 439.893 429.126 439.258 428.762 438.838C428.403 438.418 427.908 438.208 427.278 438.208C426.713 438.208 426.219 438.36 425.794 438.663C425.374 438.962 425.024 439.363 424.744 439.867C424.464 440.366 424.254 440.922 424.114 441.533C423.974 442.14 423.904 442.749 423.904 443.36C423.904 444.205 424.072 444.856 424.408 445.313C424.749 445.766 425.248 445.992 425.906 445.992ZM432.525 447L434.03 438.53L434.478 438.705C434.1 438.994 433.781 439.223 433.519 439.391C433.263 439.554 433.039 439.68 432.847 439.769C432.661 439.853 432.483 439.921 432.315 439.972L432.301 438.726C432.572 438.642 432.852 438.523 433.141 438.369C433.435 438.21 433.713 438.031 433.974 437.83C434.236 437.629 434.457 437.419 434.639 437.2H435.549L433.813 447H432.525ZM440.203 442.198C439.736 442.198 439.316 442.112 438.943 441.939C438.574 441.762 438.283 441.514 438.068 441.197C437.853 440.88 437.744 440.509 437.739 440.084C437.739 439.51 437.881 438.99 438.166 438.523C438.455 438.056 438.847 437.688 439.342 437.417C439.841 437.142 440.399 437.004 441.015 437.004C441.57 437.004 442.023 437.104 442.373 437.305C442.723 437.501 442.98 437.765 443.143 438.096C443.311 438.427 443.395 438.791 443.395 439.188C443.395 439.781 443.253 440.303 442.968 440.756C442.683 441.209 442.298 441.563 441.813 441.82C441.332 442.072 440.796 442.198 440.203 442.198ZM440.343 441.106C440.847 441.106 441.258 440.94 441.575 440.609C441.892 440.273 442.051 439.865 442.051 439.384C442.051 439.025 441.951 438.74 441.75 438.53C441.554 438.315 441.253 438.208 440.847 438.208C440.329 438.208 439.904 438.371 439.573 438.698C439.246 439.025 439.083 439.431 439.083 439.916C439.083 440.252 439.19 440.534 439.405 440.763C439.62 440.992 439.932 441.106 440.343 441.106ZM439.363 447.196C438.794 447.196 438.292 447.096 437.858 446.895C437.424 446.69 437.086 446.403 436.843 446.034C436.6 445.665 436.479 445.231 436.479 444.732C436.479 444.233 436.579 443.768 436.78 443.339C436.981 442.91 437.258 442.534 437.613 442.212C437.972 441.885 438.383 441.631 438.845 441.449C439.312 441.267 439.806 441.176 440.329 441.176C441.192 441.176 441.871 441.398 442.366 441.841C442.865 442.284 443.115 442.884 443.115 443.64C443.115 444.335 442.947 444.951 442.611 445.488C442.275 446.02 441.822 446.438 441.253 446.741C440.688 447.044 440.058 447.196 439.363 447.196ZM439.475 445.992C439.918 445.992 440.31 445.899 440.651 445.712C440.992 445.521 441.258 445.259 441.449 444.928C441.64 444.597 441.734 444.219 441.729 443.794C441.724 443.327 441.582 442.956 441.302 442.681C441.022 442.406 440.632 442.268 440.133 442.268C439.69 442.268 439.295 442.375 438.95 442.59C438.609 442.8 438.343 443.082 438.152 443.437C437.961 443.787 437.865 444.172 437.865 444.592C437.87 445.026 438.012 445.369 438.292 445.621C438.577 445.868 438.971 445.992 439.475 445.992Z" fill="#6A707E"/>
<path d="M1694.94 449.408L1694.96 448.624H1695.09C1695.34 448.624 1695.55 448.577 1695.72 448.484C1695.88 448.391 1696.02 448.23 1696.13 448.001C1696.23 447.772 1696.32 447.453 1696.39 447.042L1698.13 437.2H1699.46L1697.65 447.448C1697.54 448.078 1697.28 448.561 1696.88 448.897C1696.47 449.238 1695.93 449.408 1695.23 449.408H1694.94ZM1702.1 447.14C1701.5 447.14 1701.03 446.965 1700.7 446.615C1700.36 446.265 1700.2 445.768 1700.2 445.124C1700.2 445.017 1700.21 444.888 1700.23 444.739C1700.24 444.59 1700.27 444.401 1700.31 444.172L1701 440.14H1702.27L1701.61 443.976C1701.58 444.158 1701.56 444.314 1701.54 444.445C1701.53 444.571 1701.53 444.667 1701.53 444.732C1701.53 445.591 1701.89 446.02 1702.62 446.02C1702.91 446.02 1703.19 445.95 1703.46 445.81C1703.73 445.665 1703.97 445.437 1704.17 445.124L1704.01 446.16C1703.77 446.445 1703.5 446.68 1703.19 446.867C1702.89 447.049 1702.52 447.14 1702.1 447.14ZM1703.89 447L1703.95 446.048L1704.99 440.14H1706.26L1705.06 447H1703.89ZM1706.92 447L1708.12 440.14H1709.2L1709.1 441.869L1708.19 447H1706.92ZM1711.2 447C1711.35 446.179 1711.47 445.497 1711.56 444.956C1711.65 444.415 1711.73 443.983 1711.78 443.661C1711.84 443.334 1711.88 443.087 1711.9 442.919C1711.93 442.746 1711.94 442.623 1711.95 442.548C1711.96 442.473 1711.96 442.413 1711.96 442.366C1711.96 441.937 1711.86 441.622 1711.67 441.421C1711.49 441.22 1711.19 441.12 1710.78 441.12C1710.42 441.12 1710.09 441.202 1709.78 441.365C1709.47 441.524 1709.21 441.776 1709.01 442.121L1709.05 440.973C1709.44 440.576 1709.81 440.315 1710.15 440.189C1710.5 440.063 1710.85 440 1711.2 440C1711.93 440 1712.45 440.194 1712.77 440.581C1713.09 440.964 1713.25 441.503 1713.25 442.198C1713.25 442.259 1713.24 442.333 1713.23 442.422C1713.23 442.511 1713.21 442.646 1713.18 442.828C1713.16 443.01 1713.12 443.269 1713.07 443.605C1713.01 443.941 1712.94 444.384 1712.84 444.935C1712.75 445.481 1712.63 446.169 1712.48 447H1711.2ZM1720.79 447.196C1720.1 447.196 1719.51 447.037 1719.03 446.72C1718.56 446.403 1718.2 445.957 1717.95 445.383C1717.71 444.809 1717.58 444.139 1717.58 443.374C1717.58 442.557 1717.7 441.769 1717.93 441.008C1718.17 440.247 1718.51 439.566 1718.95 438.964C1719.39 438.362 1719.92 437.886 1720.53 437.536C1721.15 437.181 1721.83 437.004 1722.58 437.004C1723.25 437.004 1723.83 437.156 1724.31 437.459C1724.79 437.758 1725.16 438.185 1725.42 438.74C1725.67 439.291 1725.8 439.944 1725.8 440.7C1725.8 441.503 1725.68 442.291 1725.44 443.066C1725.2 443.836 1724.86 444.534 1724.42 445.159C1723.98 445.78 1723.45 446.274 1722.83 446.643C1722.22 447.012 1721.54 447.196 1720.79 447.196ZM1721 445.992C1721.56 445.992 1722.05 445.84 1722.48 445.537C1722.9 445.229 1723.26 444.821 1723.54 444.312C1723.83 443.803 1724.04 443.239 1724.19 442.618C1724.33 441.997 1724.4 441.372 1724.4 440.742C1724.4 439.893 1724.22 439.258 1723.86 438.838C1723.5 438.418 1723 438.208 1722.37 438.208C1721.81 438.208 1721.31 438.36 1720.89 438.663C1720.47 438.962 1720.12 439.363 1719.84 439.867C1719.56 440.366 1719.35 440.922 1719.21 441.533C1719.07 442.14 1719 442.749 1719 443.36C1719 444.205 1719.17 444.856 1719.5 445.313C1719.84 445.766 1720.34 445.992 1721 445.992ZM1726.28 446.986L1729.51 442.926C1729.94 442.38 1730.3 441.909 1730.59 441.512C1730.87 441.115 1731.08 440.756 1731.22 440.434C1731.36 440.107 1731.43 439.781 1731.43 439.454C1731.43 439.09 1731.33 438.801 1731.12 438.586C1730.92 438.371 1730.63 438.264 1730.25 438.264C1729.79 438.264 1729.34 438.381 1728.91 438.614C1728.48 438.847 1728.06 439.146 1727.65 439.51L1727.73 438.11C1728.09 437.807 1728.52 437.548 1729.01 437.333C1729.5 437.114 1730.01 437.004 1730.55 437.004C1731.31 437.004 1731.88 437.209 1732.26 437.62C1732.64 438.031 1732.83 438.572 1732.83 439.244C1732.83 439.729 1732.74 440.184 1732.57 440.609C1732.4 441.034 1732.14 441.479 1731.81 441.946C1731.47 442.408 1731.07 442.94 1730.59 443.542L1728.43 446.251L1728.2 445.782H1732.14L1731.93 446.986H1726.28ZM1734.05 448.498H1733.25L1734.02 447H1733.53L1733.8 445.516H1735.31L1735.07 446.86L1734.05 448.498ZM1738.99 446.986L1742.22 442.926C1742.66 442.38 1743.01 441.909 1743.3 441.512C1743.58 441.115 1743.79 440.756 1743.93 440.434C1744.07 440.107 1744.14 439.781 1744.14 439.454C1744.14 439.09 1744.04 438.801 1743.83 438.586C1743.63 438.371 1743.34 438.264 1742.96 438.264C1742.5 438.264 1742.05 438.381 1741.62 438.614C1741.19 438.847 1740.77 439.146 1740.36 439.51L1740.44 438.11C1740.8 437.807 1741.23 437.548 1741.72 437.333C1742.21 437.114 1742.73 437.004 1743.26 437.004C1744.02 437.004 1744.59 437.209 1744.97 437.62C1745.35 438.031 1745.54 438.572 1745.54 439.244C1745.54 439.729 1745.45 440.184 1745.28 440.609C1745.11 441.034 1744.85 441.479 1744.52 441.946C1744.19 442.408 1743.78 442.94 1743.3 443.542L1741.14 446.251L1740.91 445.782H1744.85L1744.64 446.986H1738.99ZM1750.07 447.196C1749.37 447.196 1748.78 447.037 1748.31 446.72C1747.83 446.403 1747.47 445.957 1747.22 445.383C1746.98 444.809 1746.86 444.139 1746.86 443.374C1746.86 442.557 1746.98 441.769 1747.21 441.008C1747.45 440.247 1747.79 439.566 1748.22 438.964C1748.67 438.362 1749.19 437.886 1749.81 437.536C1750.42 437.181 1751.11 437.004 1751.86 437.004C1752.53 437.004 1753.11 437.156 1753.59 437.459C1754.07 437.758 1754.44 438.185 1754.69 438.74C1754.95 439.291 1755.08 439.944 1755.08 440.7C1755.08 441.503 1754.96 442.291 1754.71 443.066C1754.48 443.836 1754.13 444.534 1753.69 445.159C1753.25 445.78 1752.73 446.274 1752.11 446.643C1751.5 447.012 1750.82 447.196 1750.07 447.196ZM1750.28 445.992C1750.84 445.992 1751.33 445.84 1751.75 445.537C1752.18 445.229 1752.53 444.821 1752.82 444.312C1753.1 443.803 1753.32 443.239 1753.46 442.618C1753.6 441.997 1753.68 441.372 1753.68 440.742C1753.68 439.893 1753.5 439.258 1753.13 438.838C1752.77 438.418 1752.28 438.208 1751.65 438.208C1751.08 438.208 1750.59 438.36 1750.16 438.663C1749.74 438.962 1749.39 439.363 1749.11 439.867C1748.83 440.366 1748.62 440.922 1748.48 441.533C1748.34 442.14 1748.27 442.749 1748.27 443.36C1748.27 444.205 1748.44 444.856 1748.78 445.313C1749.12 445.766 1749.62 445.992 1750.28 445.992ZM1756.89 447L1758.4 438.53L1758.85 438.705C1758.47 438.994 1758.15 439.223 1757.89 439.391C1757.63 439.554 1757.41 439.68 1757.22 439.769C1757.03 439.853 1756.85 439.921 1756.68 439.972L1756.67 438.726C1756.94 438.642 1757.22 438.523 1757.51 438.369C1757.8 438.21 1758.08 438.031 1758.34 437.83C1758.6 437.629 1758.83 437.419 1759.01 437.2H1759.92L1758.18 447H1756.89ZM1764.57 442.198C1764.11 442.198 1763.69 442.112 1763.31 441.939C1762.94 441.762 1762.65 441.514 1762.44 441.197C1762.22 440.88 1762.11 440.509 1762.11 440.084C1762.11 439.51 1762.25 438.99 1762.54 438.523C1762.82 438.056 1763.22 437.688 1763.71 437.417C1764.21 437.142 1764.77 437.004 1765.38 437.004C1765.94 437.004 1766.39 437.104 1766.74 437.305C1767.09 437.501 1767.35 437.765 1767.51 438.096C1767.68 438.427 1767.76 438.791 1767.76 439.188C1767.76 439.781 1767.62 440.303 1767.34 440.756C1767.05 441.209 1766.67 441.563 1766.18 441.82C1765.7 442.072 1765.16 442.198 1764.57 442.198ZM1764.71 441.106C1765.22 441.106 1765.63 440.94 1765.94 440.609C1766.26 440.273 1766.42 439.865 1766.42 439.384C1766.42 439.025 1766.32 438.74 1766.12 438.53C1765.92 438.315 1765.62 438.208 1765.22 438.208C1764.7 438.208 1764.27 438.371 1763.94 438.698C1763.62 439.025 1763.45 439.431 1763.45 439.916C1763.45 440.252 1763.56 440.534 1763.77 440.763C1763.99 440.992 1764.3 441.106 1764.71 441.106ZM1763.73 447.196C1763.16 447.196 1762.66 447.096 1762.23 446.895C1761.79 446.69 1761.45 446.403 1761.21 446.034C1760.97 445.665 1760.85 445.231 1760.85 444.732C1760.85 444.233 1760.95 443.768 1761.15 443.339C1761.35 442.91 1761.63 442.534 1761.98 442.212C1762.34 441.885 1762.75 441.631 1763.21 441.449C1763.68 441.267 1764.18 441.176 1764.7 441.176C1765.56 441.176 1766.24 441.398 1766.74 441.841C1767.23 442.284 1767.48 442.884 1767.48 443.64C1767.48 444.335 1767.32 444.951 1766.98 445.488C1766.64 446.02 1766.19 446.438 1765.62 446.741C1765.06 447.044 1764.43 447.196 1763.73 447.196ZM1763.84 445.992C1764.29 445.992 1764.68 445.899 1765.02 445.712C1765.36 445.521 1765.63 445.259 1765.82 444.928C1766.01 444.597 1766.1 444.219 1766.1 443.794C1766.09 443.327 1765.95 442.956 1765.67 442.681C1765.39 442.406 1765 442.268 1764.5 442.268C1764.06 442.268 1763.66 442.375 1763.32 442.59C1762.98 442.8 1762.71 443.082 1762.52 443.437C1762.33 443.787 1762.23 444.172 1762.23 444.592C1762.24 445.026 1762.38 445.369 1762.66 445.621C1762.95 445.868 1763.34 445.992 1763.84 445.992Z" fill="#6A707E"/>
<path fill-rule="evenodd" clip-rule="evenodd" d="M1408 205C1415.18 205 1421 210.82 1421 218C1421 225.18 1415.18 231 1408 231C1400.82 231 1395 225.18 1395 218C1395 210.82 1400.82 205 1408 205Z" fill="#EC8737"/>
<path fill-rule="evenodd" clip-rule="evenodd" d="M1424 159H1579C1580.66 159 1582 160.014 1582 161.264V194.472C1582 195.722 1580.66 196.736 1579 196.736H1424C1422.34 196.736 1421 195.722 1421 194.472V161.264C1421 160.014 1422.34 159 1424 159Z" fill="#FFD7B7"/>
<path d="M1468.86 184.196C1468.21 184.196 1467.65 184.131 1467.16 184C1466.68 183.869 1466.32 183.725 1466.08 183.566L1466.53 182.012C1466.8 182.241 1467.14 182.462 1467.57 182.677C1467.99 182.887 1468.49 182.992 1469.07 182.992C1469.47 182.992 1469.84 182.934 1470.19 182.817C1470.53 182.696 1470.81 182.511 1471.02 182.264C1471.23 182.017 1471.33 181.699 1471.33 181.312C1471.33 180.967 1471.25 180.687 1471.08 180.472C1470.91 180.257 1470.69 180.078 1470.4 179.933C1470.12 179.788 1469.8 179.646 1469.46 179.506C1469.2 179.399 1468.93 179.287 1468.65 179.17C1468.38 179.053 1468.12 178.911 1467.88 178.743C1467.65 178.575 1467.46 178.367 1467.31 178.12C1467.16 177.873 1467.09 177.569 1467.09 177.21C1467.09 176.897 1467.16 176.557 1467.29 176.188C1467.42 175.819 1467.64 175.469 1467.93 175.138C1468.22 174.807 1468.6 174.536 1469.08 174.326C1469.56 174.111 1470.13 174.004 1470.82 174.004C1471.4 174.004 1471.92 174.076 1472.37 174.221C1472.83 174.361 1473.2 174.513 1473.48 174.676L1473.1 176.09C1472.72 175.801 1472.35 175.581 1471.98 175.432C1471.61 175.283 1471.19 175.208 1470.72 175.208C1470.41 175.208 1470.09 175.264 1469.75 175.376C1469.42 175.488 1469.14 175.663 1468.91 175.901C1468.68 176.139 1468.56 176.445 1468.56 176.818C1468.56 177.21 1468.7 177.506 1468.99 177.707C1469.28 177.903 1469.67 178.097 1470.16 178.288C1470.48 178.409 1470.79 178.538 1471.1 178.673C1471.42 178.804 1471.71 178.967 1471.96 179.163C1472.23 179.354 1472.44 179.599 1472.59 179.898C1472.75 180.192 1472.83 180.565 1472.83 181.018C1472.83 181.387 1472.77 181.758 1472.64 182.131C1472.51 182.504 1472.29 182.847 1471.99 183.16C1471.68 183.473 1471.27 183.725 1470.76 183.916C1470.25 184.103 1469.62 184.196 1468.86 184.196ZM1476.25 184.14C1475.79 184.14 1475.38 184.026 1475.04 183.797C1474.7 183.568 1474.43 183.249 1474.25 182.838C1474.06 182.427 1473.97 181.947 1473.97 181.396C1473.97 180.841 1474.06 180.302 1474.23 179.779C1474.41 179.256 1474.66 178.787 1474.98 178.372C1475.31 177.952 1475.69 177.618 1476.13 177.371C1476.57 177.124 1477.06 177 1477.58 177C1477.81 177 1478.05 177.035 1478.29 177.105C1478.52 177.175 1478.74 177.31 1478.93 177.511C1479.13 177.707 1479.27 177.999 1479.36 178.386L1478.97 178.428L1479.44 177.14H1480.56L1479.74 181.998C1479.7 182.213 1479.68 182.395 1479.68 182.544C1479.68 182.768 1479.73 182.922 1479.83 183.006C1479.92 183.09 1480.09 183.132 1480.34 183.132L1479.99 184.14C1479.75 184.14 1479.53 184.128 1479.34 184.105C1479.14 184.082 1478.97 184.019 1478.82 183.916C1478.67 183.813 1478.56 183.65 1478.47 183.426C1478.38 183.197 1478.34 182.88 1478.33 182.474L1478.65 182.789C1478.45 183.078 1478.23 183.326 1477.99 183.531C1477.74 183.732 1477.47 183.883 1477.18 183.986C1476.89 184.089 1476.58 184.14 1476.25 184.14ZM1476.67 183.02C1476.94 183.02 1477.2 182.959 1477.45 182.838C1477.71 182.712 1477.95 182.528 1478.17 182.285C1478.38 182.038 1478.55 181.734 1478.68 181.375C1478.8 181.011 1478.87 180.593 1478.87 180.122C1478.87 179.422 1478.73 178.913 1478.45 178.596C1478.18 178.279 1477.85 178.12 1477.44 178.12C1477.03 178.12 1476.66 178.26 1476.33 178.54C1476.01 178.82 1475.75 179.189 1475.56 179.646C1475.38 180.103 1475.28 180.598 1475.28 181.13C1475.28 181.653 1475.39 182.098 1475.61 182.467C1475.82 182.836 1476.18 183.02 1476.67 183.02ZM1481.51 184L1482.72 177.14H1483.73V178.701L1482.79 184H1481.51ZM1485.66 184C1485.8 183.174 1485.92 182.49 1486.01 181.949C1486.11 181.403 1486.18 180.967 1486.24 180.64C1486.29 180.313 1486.33 180.064 1486.36 179.891C1486.38 179.718 1486.4 179.595 1486.4 179.52C1486.41 179.441 1486.41 179.375 1486.41 179.324C1486.41 178.853 1486.32 178.535 1486.12 178.372C1485.93 178.204 1485.67 178.12 1485.34 178.12C1484.97 178.12 1484.64 178.202 1484.35 178.365C1484.05 178.524 1483.81 178.776 1483.6 179.121L1483.61 177.98C1484 177.583 1484.35 177.322 1484.66 177.196C1484.96 177.065 1485.29 177 1485.63 177C1485.92 177 1486.2 177.049 1486.47 177.147C1486.74 177.245 1486.97 177.436 1487.17 177.721C1487.37 178.006 1487.5 178.43 1487.57 178.995L1487.78 179.191L1486.93 184H1485.66ZM1489.8 184C1489.95 183.141 1490.07 182.432 1490.17 181.872C1490.27 181.312 1490.35 180.866 1490.4 180.535C1490.46 180.199 1490.5 179.947 1490.52 179.779C1490.55 179.606 1490.57 179.485 1490.57 179.415C1490.58 179.345 1490.59 179.287 1490.59 179.24C1490.59 178.862 1490.5 178.582 1490.32 178.4C1490.15 178.213 1489.87 178.12 1489.49 178.12C1489.06 178.12 1488.71 178.225 1488.45 178.435C1488.2 178.64 1488.01 178.89 1487.88 179.184C1487.76 179.478 1487.68 179.758 1487.63 180.024L1487.23 178.841C1487.38 178.463 1487.57 178.136 1487.81 177.861C1488.06 177.586 1488.36 177.373 1488.7 177.224C1489.05 177.075 1489.45 177 1489.9 177C1490.55 177 1491.05 177.163 1491.38 177.49C1491.72 177.812 1491.89 178.302 1491.89 178.96C1491.89 179.025 1491.88 179.102 1491.87 179.191C1491.87 179.28 1491.85 179.42 1491.82 179.611C1491.8 179.798 1491.75 180.066 1491.69 180.416C1491.64 180.766 1491.56 181.233 1491.45 181.816C1491.36 182.395 1491.23 183.123 1491.08 184H1489.8ZM1492.26 187.388L1494.07 177.14H1495.1L1495.03 178.715L1494.75 178.491C1495.13 178.02 1495.49 177.653 1495.85 177.392C1496.2 177.131 1496.63 177 1497.13 177C1497.66 177 1498.09 177.131 1498.44 177.392C1498.78 177.653 1499.04 178.003 1499.21 178.442C1499.39 178.881 1499.47 179.366 1499.47 179.898C1499.47 180.439 1499.39 180.964 1499.22 181.473C1499.05 181.977 1498.81 182.43 1498.51 182.831C1498.2 183.232 1497.84 183.552 1497.42 183.79C1497 184.023 1496.54 184.14 1496.03 184.14C1495.58 184.14 1495.19 184.028 1494.85 183.804C1494.52 183.58 1494.26 183.207 1494.09 182.684L1494.38 182.544L1493.54 187.388H1492.26ZM1495.96 183.02C1496.39 183.02 1496.77 182.878 1497.1 182.593C1497.43 182.304 1497.69 181.928 1497.88 181.466C1498.06 181.004 1498.16 180.509 1498.16 179.982C1498.16 179.436 1498.05 178.99 1497.83 178.645C1497.61 178.295 1497.27 178.12 1496.81 178.12C1496.44 178.12 1496.09 178.239 1495.75 178.477C1495.41 178.715 1495.14 179.058 1494.92 179.506C1494.71 179.954 1494.6 180.491 1494.6 181.116C1494.6 181.802 1494.73 182.292 1494.99 182.586C1495.25 182.875 1495.58 183.02 1495.96 183.02ZM1501.86 184.14C1501.36 184.14 1501.02 184.021 1500.82 183.783C1500.62 183.545 1500.52 183.263 1500.52 182.936C1500.52 182.833 1500.53 182.7 1500.55 182.537C1500.57 182.369 1500.61 182.157 1500.66 181.9L1502.13 173.5H1503.4L1501.92 182.026C1501.89 182.185 1501.87 182.304 1501.86 182.383C1501.85 182.462 1501.85 182.525 1501.85 182.572C1501.85 182.801 1501.9 182.952 1502.02 183.027C1502.14 183.097 1502.34 183.132 1502.63 183.132L1502.29 184.14H1501.86ZM1505.06 179.975C1505.25 180.05 1505.44 180.108 1505.63 180.15C1505.81 180.187 1506.03 180.206 1506.29 180.206C1506.85 180.206 1507.28 180.136 1507.59 179.996C1507.91 179.856 1508.12 179.686 1508.24 179.485C1508.37 179.284 1508.43 179.091 1508.43 178.904C1508.43 178.717 1508.39 178.568 1508.29 178.456C1508.2 178.339 1508.08 178.255 1507.93 178.204C1507.77 178.148 1507.61 178.12 1507.42 178.12C1507.11 178.12 1506.81 178.202 1506.53 178.365C1506.25 178.524 1505.99 178.773 1505.77 179.114C1505.54 179.455 1505.35 179.896 1505.19 180.437L1505.18 180.507C1505.13 181.174 1505.18 181.69 1505.32 182.054C1505.47 182.418 1505.68 182.67 1505.97 182.81C1506.26 182.95 1506.58 183.02 1506.95 183.02C1507.22 183.02 1507.53 182.987 1507.87 182.922C1508.22 182.857 1508.54 182.754 1508.84 182.614L1508.78 183.608C1508.52 183.762 1508.2 183.89 1507.83 183.993C1507.47 184.091 1507.06 184.14 1506.61 184.14C1505.98 184.14 1505.45 184.009 1505.04 183.748C1504.63 183.482 1504.32 183.125 1504.11 182.677C1503.91 182.229 1503.81 181.727 1503.81 181.172C1503.81 180.631 1503.9 180.11 1504.08 179.611C1504.26 179.112 1504.51 178.666 1504.84 178.274C1505.17 177.882 1505.57 177.572 1506.02 177.343C1506.48 177.114 1506.99 177 1507.55 177C1508.22 177 1508.72 177.163 1509.07 177.49C1509.42 177.812 1509.59 178.232 1509.59 178.75C1509.59 179.007 1509.54 179.27 1509.44 179.541C1509.34 179.812 1509.17 180.064 1508.92 180.297C1508.68 180.526 1508.35 180.71 1507.94 180.85C1507.53 180.99 1507.02 181.06 1506.4 181.06C1506.13 181.06 1505.85 181.044 1505.58 181.011C1505.32 180.974 1505.11 180.925 1504.95 180.864L1505.06 179.975ZM1515.31 184L1516.88 175.082H1518.21L1516.64 184H1515.31ZM1514.27 175.404L1514.48 174.2H1520.91L1520.7 175.404H1514.27ZM1520.98 179.975C1521.18 180.05 1521.37 180.108 1521.55 180.15C1521.74 180.187 1521.96 180.206 1522.21 180.206C1522.77 180.206 1523.21 180.136 1523.52 179.996C1523.83 179.856 1524.05 179.686 1524.17 179.485C1524.29 179.284 1524.36 179.091 1524.36 178.904C1524.36 178.717 1524.31 178.568 1524.22 178.456C1524.13 178.339 1524.01 178.255 1523.85 178.204C1523.7 178.148 1523.53 178.12 1523.35 178.12C1523.04 178.12 1522.74 178.202 1522.45 178.365C1522.17 178.524 1521.92 178.773 1521.69 179.114C1521.46 179.455 1521.27 179.896 1521.12 180.437L1521.11 180.507C1521.06 181.174 1521.1 181.69 1521.25 182.054C1521.39 182.418 1521.61 182.67 1521.89 182.81C1522.18 182.95 1522.51 183.02 1522.87 183.02C1523.15 183.02 1523.46 182.987 1523.8 182.922C1524.14 182.857 1524.46 182.754 1524.76 182.614L1524.71 183.608C1524.44 183.762 1524.12 183.89 1523.75 183.993C1523.39 184.091 1522.98 184.14 1522.54 184.14C1521.9 184.14 1521.38 184.009 1520.96 183.748C1520.55 183.482 1520.24 183.125 1520.04 182.677C1519.84 182.229 1519.74 181.727 1519.74 181.172C1519.74 180.631 1519.82 180.11 1520 179.611C1520.18 179.112 1520.43 178.666 1520.77 178.274C1521.1 177.882 1521.49 177.572 1521.95 177.343C1522.41 177.114 1522.91 177 1523.47 177C1524.14 177 1524.65 177.163 1524.99 177.49C1525.34 177.812 1525.52 178.232 1525.52 178.75C1525.52 179.007 1525.47 179.27 1525.36 179.541C1525.26 179.812 1525.09 180.064 1524.85 180.297C1524.6 180.526 1524.28 180.71 1523.87 180.85C1523.46 180.99 1522.94 181.06 1522.33 181.06C1522.05 181.06 1521.78 181.044 1521.51 181.011C1521.24 180.974 1521.03 180.925 1520.87 180.864L1520.98 179.975ZM1529.79 184L1528.68 181.221L1528.23 180.661L1526.72 177.14H1528.18L1529.14 179.905L1529.52 180.57L1531.24 184H1529.79ZM1525.48 184L1528.33 180.374L1528.86 181.13L1526.93 184H1525.48ZM1529.42 180.85L1528.97 179.989L1530.91 177.14H1532.41L1529.42 180.85ZM1534.36 184.14C1533.85 184.14 1533.5 184.012 1533.29 183.755C1533.09 183.498 1532.99 183.202 1532.99 182.866C1532.99 182.838 1532.99 182.787 1533 182.712C1533.01 182.637 1533.03 182.479 1533.07 182.236C1533.11 181.989 1533.18 181.606 1533.27 181.088C1533.36 180.565 1533.48 179.849 1533.64 178.939C1533.8 178.029 1534.01 176.865 1534.26 175.446L1535.55 175.32L1534.3 182.586C1534.3 182.838 1534.38 182.992 1534.53 183.048C1534.68 183.104 1534.96 183.132 1535.35 183.132H1535.69L1535.41 184.14H1534.36ZM1532.78 178.12L1533.06 177.14H1536.78L1536.6 178.12H1532.78Z" fill="#EC8737"/>
<defs>
<filter id="filter0_d_123_413" x="0.364258" y="0" width="1836.45" height="488" filterUnits="userSpaceOnUse" color-interpolation-filters="sRGB">
<feFlood flood-opacity="0" result="BackgroundImageFix"/>
<feColorMatrix in="SourceAlpha" type="matrix" values="0 0 0 0 0 0 0 0 0 0 0 0 0 0 0 0 0 0 127 0" result="hardAlpha"/>
<feOffset dy="3"/>
<feGaussianBlur stdDeviation="5"/>
<feColorMatrix type="matrix" values="0 0 0 0 0.466667 0 0 0 0 0.466667 0 0 0 0 0.466667 0 0 0 0.1 0"/>
<feBlend mode="normal" in2="BackgroundImageFix" result="effect1_dropShadow_123_413"/>
<feBlend mode="normal" in="SourceGraphic" in2="effect1_dropShadow_123_413" result="shape"/>
</filter>
</defs>
</svg>
