<svg width="30" height="30" viewBox="0 0 30 30" fill="none" xmlns="http://www.w3.org/2000/svg">
<rect width="30" height="30" rx="4" fill="#689F38"/>
<path d="M21.28 11.75L15.75 6.22C15.6095 6.07931 15.4188 6.00018 15.22 6H10.75C10.0207 6 9.32118 6.28973 8.80546 6.80546C8.28973 7.32118 8 8.02065 8 8.75V20.75C8 21.4793 8.28973 22.1788 8.80546 22.6945C9.32118 23.2103 10.0207 23.5 10.75 23.5H18.75C19.4793 23.5 20.1788 23.2103 20.6945 22.6945C21.2103 22.1788 21.5 21.4793 21.5 20.75V12.25C21.4921 12.0616 21.4136 11.8831 21.28 11.75ZM16 8.56L18.94 11.5H16V8.56ZM18.75 22H10.75C10.4185 22 10.1005 21.8683 9.86612 21.6339C9.6317 21.3995 9.5 21.0815 9.5 20.75V8.75C9.5 8.41848 9.6317 8.10054 9.86612 7.86612C10.1005 7.6317 10.4185 7.5 10.75 7.5H14.5V12.25C14.5026 12.4481 14.5824 12.6374 14.7225 12.7775C14.8626 12.9176 15.0519 12.9974 15.25 13H20V20.75C20 21.0815 19.8683 21.3995 19.6339 21.6339C19.3995 21.8683 19.0815 22 18.75 22Z" fill="#F8F8F8"/>
<path d="M16.24 17.6002C15.6251 17.2143 15.1624 16.6279 14.93 15.9402C15.1453 15.2968 15.2103 14.6126 15.12 13.9402C15.0912 13.7708 15.0086 13.6151 14.8844 13.4964C14.7602 13.3776 14.6011 13.3019 14.4306 13.2806C14.2601 13.2593 14.0872 13.2934 13.9376 13.378C13.788 13.4626 13.6697 13.5931 13.6 13.7502C13.4862 14.5586 13.572 15.3826 13.85 16.1502C13.4702 17.0374 13.0463 17.9052 12.58 18.7502C11.87 19.1502 10.9 19.7502 10.75 20.4402C10.63 21.0002 11.68 22.4402 13.47 19.3202C14.2659 19.0247 15.0812 18.7841 15.91 18.6002C16.5227 18.9505 17.2061 19.1589 17.91 19.2102C18.0716 19.2144 18.2309 19.1707 18.3678 19.0846C18.5046 18.9986 18.613 18.874 18.6792 18.7265C18.7455 18.579 18.7667 18.4152 18.7401 18.2558C18.7136 18.0963 18.6405 17.9482 18.53 17.8302C18.11 17.4002 16.86 17.5202 16.24 17.6002ZM11.46 20.6002C11.7403 20.1206 12.1103 19.6996 12.55 19.3602C11.87 20.4402 11.46 20.6302 11.46 20.6102V20.6002ZM14.38 13.7902C14.64 13.7902 14.62 14.9402 14.44 15.2502C14.3044 14.7786 14.2838 14.2814 14.38 13.8002V13.7902ZM13.51 18.6702C13.8488 18.052 14.1429 17.4104 14.39 16.7502C14.6549 17.2431 15.0234 17.673 15.47 18.0102C14.7991 18.1782 14.1434 18.4023 13.51 18.6802V18.6702ZM18.21 18.4902C18.21 18.4902 18.03 18.7102 16.88 18.2102C18.13 18.1302 18.34 18.4202 18.21 18.5002V18.4902Z" fill="#F8F8F8"/>
</svg>
