<svg width="600" height="420" viewBox="0 0 600 420" fill="none" xmlns="http://www.w3.org/2000/svg">
<g filter="url(#filter0_d_123_225)">
<path fill-rule="evenodd" clip-rule="evenodd" d="M13.5081 7H586.492C588.429 7 590 8.3428 590 9.99993V404C590 405.657 588.429 407 586.492 407H13.5081C11.5708 407 10 405.657 10 404V9.99993C10 8.3428 11.5708 7 13.5081 7Z" fill="white"/>
</g>
<path d="M117.616 62L120.322 46.6H122.412L119.706 62H117.616ZM127.12 62L129.848 46.6H131.938L129.21 62H127.12ZM120.124 54.938L120.454 52.958H129.782L129.43 54.938H120.124ZM134.33 55.675C134.638 55.7923 134.935 55.884 135.221 55.95C135.514 56.0087 135.863 56.038 136.266 56.038C137.146 56.038 137.828 55.928 138.312 55.708C138.803 55.488 139.144 55.2203 139.335 54.905C139.533 54.5897 139.632 54.2853 139.632 53.992C139.632 53.6987 139.559 53.464 139.412 53.288C139.273 53.1047 139.082 52.9727 138.84 52.892C138.598 52.804 138.334 52.76 138.048 52.76C137.557 52.76 137.087 52.8883 136.64 53.145C136.2 53.3943 135.8 53.7867 135.441 54.322C135.082 54.8573 134.781 55.5503 134.539 56.401L134.528 56.511C134.447 57.5597 134.521 58.37 134.748 58.942C134.975 59.514 135.313 59.91 135.76 60.13C136.215 60.35 136.728 60.46 137.3 60.46C137.733 60.46 138.217 60.4087 138.752 60.306C139.295 60.2033 139.801 60.042 140.27 59.822L140.182 61.384C139.764 61.626 139.265 61.8277 138.686 61.989C138.114 62.143 137.476 62.22 136.772 62.22C135.775 62.22 134.95 62.0147 134.297 61.604C133.652 61.186 133.168 60.625 132.845 59.921C132.53 59.217 132.372 58.4287 132.372 57.556C132.372 56.7053 132.511 55.8877 132.79 55.103C133.069 54.3183 133.468 53.618 133.989 53.002C134.51 52.386 135.129 51.8983 135.848 51.539C136.567 51.1797 137.366 51 138.246 51C139.295 51 140.09 51.2567 140.633 51.77C141.183 52.276 141.458 52.936 141.458 53.75C141.458 54.1533 141.377 54.5677 141.216 54.993C141.055 55.4183 140.783 55.8143 140.402 56.181C140.021 56.5403 139.507 56.83 138.862 57.05C138.217 57.27 137.41 57.38 136.442 57.38C136.009 57.38 135.58 57.3543 135.155 57.303C134.737 57.2443 134.403 57.1673 134.154 57.072L134.33 55.675ZM146.034 62.22C145.308 62.22 144.674 62.0403 144.131 61.681C143.596 61.3217 143.182 60.8193 142.888 60.174C142.595 59.5287 142.448 58.7733 142.448 57.908C142.448 57.0353 142.588 56.1883 142.866 55.367C143.145 54.5457 143.537 53.8087 144.043 53.156C144.557 52.496 145.158 51.9717 145.847 51.583C146.544 51.1943 147.303 51 148.124 51C148.491 51 148.861 51.055 149.235 51.165C149.609 51.275 149.947 51.4877 150.247 51.803C150.555 52.111 150.779 52.5693 150.918 53.178L150.313 53.244L151.05 51.22H152.81L151.512 58.854C151.454 59.1913 151.424 59.4773 151.424 59.712C151.424 60.064 151.501 60.306 151.655 60.438C151.809 60.57 152.077 60.636 152.458 60.636L151.908 62.22C151.534 62.22 151.193 62.2017 150.885 62.165C150.577 62.1283 150.306 62.0293 150.071 61.868C149.844 61.7067 149.661 61.45 149.521 61.098C149.389 60.7387 149.316 60.24 149.301 59.602L149.807 60.097C149.499 60.5517 149.151 60.9403 148.762 61.263C148.381 61.5783 147.959 61.8167 147.497 61.978C147.043 62.1393 146.555 62.22 146.034 62.22ZM146.694 60.46C147.112 60.46 147.523 60.3647 147.926 60.174C148.337 59.976 148.711 59.6863 149.048 59.305C149.386 58.9163 149.653 58.4397 149.851 57.875C150.049 57.303 150.148 56.6467 150.148 55.906C150.148 54.806 149.932 54.0067 149.499 53.508C149.074 53.0093 148.542 52.76 147.904 52.76C147.259 52.76 146.68 52.98 146.166 53.42C145.66 53.86 145.257 54.4393 144.956 55.158C144.663 55.8767 144.516 56.654 144.516 57.49C144.516 58.3113 144.685 59.0117 145.022 59.591C145.367 60.1703 145.924 60.46 146.694 60.46ZM157.786 62.22C157.068 62.22 156.437 62.022 155.894 61.626C155.359 61.2227 154.941 60.68 154.64 59.998C154.347 59.3087 154.2 58.5313 154.2 57.666C154.2 56.83 154.332 56.016 154.596 55.224C154.868 54.432 155.249 53.717 155.74 53.079C156.232 52.441 156.807 51.935 157.467 51.561C158.135 51.187 158.864 51 159.656 51C160.162 51 160.602 51.077 160.976 51.231C161.35 51.385 161.673 51.6197 161.944 51.935C162.223 52.2503 162.472 52.65 162.692 53.134L162.23 53.288L163.594 45.5H165.596L162.692 62H160.866L161.02 59.701L161.394 60.064C160.918 60.7607 160.364 61.296 159.733 61.67C159.11 62.0367 158.461 62.22 157.786 62.22ZM158.446 60.46C158.864 60.46 159.275 60.3647 159.678 60.174C160.089 59.976 160.463 59.6863 160.8 59.305C161.138 58.9163 161.405 58.4397 161.603 57.875C161.801 57.303 161.9 56.6467 161.9 55.906C161.9 54.806 161.684 54.0067 161.251 53.508C160.826 53.0093 160.294 52.76 159.656 52.76C159.011 52.76 158.432 52.98 157.918 53.42C157.412 53.86 157.009 54.4393 156.708 55.158C156.415 55.8767 156.268 56.654 156.268 57.49C156.268 58.3113 156.437 59.0117 156.774 59.591C157.119 60.1703 157.676 60.46 158.446 60.46ZM165.388 62L167.28 51.22H169.282L167.39 62H165.388ZM167.72 48.8L168.094 46.6H170.096L169.722 48.8H167.72ZM170.093 62L171.985 51.22H173.679L173.525 53.937L172.095 62H170.093ZM176.825 62C177.052 60.7093 177.239 59.6387 177.386 58.788C177.533 57.9373 177.65 57.259 177.738 56.753C177.826 56.2397 177.888 55.851 177.925 55.587C177.962 55.3157 177.984 55.1213 177.991 55.004C178.006 54.8867 178.013 54.7913 178.013 54.718C178.013 54.0433 177.863 53.5483 177.562 53.233C177.269 52.9177 176.803 52.76 176.165 52.76C175.6 52.76 175.072 52.8883 174.581 53.145C174.097 53.3943 173.697 53.7903 173.382 54.333L173.448 52.529C174.057 51.9057 174.632 51.495 175.175 51.297C175.718 51.099 176.268 51 176.825 51C177.969 51 178.79 51.3043 179.289 51.913C179.788 52.5143 180.037 53.3613 180.037 54.454C180.037 54.5493 180.03 54.6667 180.015 54.806C180.008 54.9453 179.982 55.158 179.938 55.444C179.901 55.73 179.839 56.137 179.751 56.665C179.67 57.193 179.553 57.8897 179.399 58.755C179.252 59.613 179.062 60.6947 178.827 62H176.825ZM185.441 59.514C184.385 59.514 183.549 59.217 182.933 58.623C182.317 58.029 182.009 57.1453 182.009 55.972C182.009 55.136 182.2 54.3403 182.581 53.585C182.97 52.8223 183.524 52.2027 184.242 51.726C184.961 51.242 185.815 51 186.805 51C187.854 51 188.679 51.3263 189.28 51.979C189.889 52.6243 190.193 53.4933 190.193 54.586C190.193 55.1727 190.08 55.7593 189.852 56.346C189.632 56.9253 189.313 57.457 188.895 57.941C188.477 58.4177 187.975 58.799 187.388 59.085C186.809 59.371 186.16 59.514 185.441 59.514ZM185.661 57.996C186.204 57.996 186.673 57.8347 187.069 57.512C187.473 57.1893 187.781 56.775 187.993 56.269C188.213 55.7557 188.323 55.2167 188.323 54.652C188.323 53.97 188.166 53.4567 187.85 53.112C187.542 52.76 187.106 52.584 186.541 52.584C185.991 52.584 185.515 52.738 185.111 53.046C184.715 53.3467 184.411 53.7463 184.198 54.245C183.986 54.7363 183.879 55.268 183.879 55.84C183.879 56.5293 184.037 57.061 184.352 57.435C184.668 57.809 185.104 57.996 185.661 57.996ZM184.363 67.5C183.344 67.5 182.534 67.3497 181.932 67.049C181.338 66.7557 180.913 66.3927 180.656 65.96C180.4 65.5273 180.271 65.1093 180.271 64.706C180.271 64.4347 180.337 64.1083 180.469 63.727C180.601 63.353 180.843 62.9827 181.195 62.616C181.54 62.2493 182.035 61.9523 182.68 61.725L184.121 62.253C183.777 62.341 183.45 62.4987 183.142 62.726C182.834 62.9533 182.581 63.2137 182.383 63.507C182.193 63.8077 182.097 64.112 182.097 64.42C182.097 64.8453 182.314 65.2083 182.746 65.509C183.179 65.8097 183.806 65.96 184.627 65.96C185.28 65.96 185.845 65.8647 186.321 65.674C186.798 65.4907 187.165 65.256 187.421 64.97C187.685 64.684 187.817 64.3907 187.817 64.09C187.817 63.738 187.671 63.463 187.377 63.265C187.084 63.0743 186.703 62.924 186.233 62.814C185.771 62.704 185.28 62.6013 184.759 62.506C184.239 62.418 183.744 62.3043 183.274 62.165C182.812 62.033 182.435 61.846 182.141 61.604C181.848 61.3547 181.701 61.021 181.701 60.603C181.701 60.383 181.822 60.0823 182.064 59.701C182.306 59.3197 182.728 59.0007 183.329 58.744L184.33 59.206C184.147 59.316 183.989 59.4407 183.857 59.58C183.725 59.7193 183.659 59.8733 183.659 60.042C183.659 60.2913 183.861 60.4857 184.264 60.625C184.675 60.757 185.353 60.922 186.299 61.12C186.637 61.1933 187.003 61.2887 187.399 61.406C187.803 61.516 188.184 61.67 188.543 61.868C188.903 62.0587 189.196 62.308 189.423 62.616C189.658 62.9313 189.775 63.32 189.775 63.782C189.775 64.3907 189.555 64.9773 189.115 65.542C188.683 66.114 188.059 66.5833 187.245 66.95C186.439 67.3167 185.478 67.5 184.363 67.5ZM189.588 52.716L188.972 51.869C189.273 51.6783 189.636 51.517 190.061 51.385C190.494 51.2457 190.963 51.176 191.469 51.176H191.777L191.359 52.496H190.765C190.692 52.496 190.523 52.5143 190.259 52.551C190.003 52.5803 189.779 52.6353 189.588 52.716Z" fill="#464A53"/>
<path fill-rule="evenodd" clip-rule="evenodd" d="M137.094 242.203C137.094 165.291 198.39 102.709 274.75 100.735V241.333L175.961 339.661C151.874 314.283 137.094 279.971 137.094 242.203Z" fill="#FF9800"/>
<path fill-rule="evenodd" clip-rule="evenodd" d="M186.801 335.352C210.37 358.63 242.757 373 278.5 373C330.198 373 374.875 342.938 396.003 299.342L275.026 245.011L275 245.999L186.801 335.352Z" fill="#7BB31A"/>
<path fill-rule="evenodd" clip-rule="evenodd" d="M279 240.922V243.911L397.482 296.183C404.881 279.809 409 261.635 409 242.5C409 207.419 395.158 175.572 372.638 152.121L279 240.922Z" fill="#00A2FF"/>
<path fill-rule="evenodd" clip-rule="evenodd" d="M279 235.433L368.932 148.413C345.588 125.97 313.91 112.132 279 112.001V235.433Z" fill="#FFC107"/>
<path fill-rule="evenodd" clip-rule="evenodd" d="M279.5 176C316.779 176 347 206.221 347 243.5C347 280.779 316.779 311 279.5 311C242.221 311 212 280.779 212 243.5C212 206.221 242.221 176 279.5 176Z" fill="white"/>
<path fill-rule="evenodd" clip-rule="evenodd" d="M422 52.4374C424.52 52.4374 426.562 54.4801 426.562 57C426.562 59.5198 424.52 61.5624 422 61.5624C419.48 61.5624 417.437 59.5198 417.437 57C417.437 54.4801 419.48 52.4374 422 52.4374Z" fill="#71D875"/>
<path d="M434.392 62L436.114 52.2H437.444L435.722 62H434.392ZM439.671 62.14C439.167 62.14 438.812 62.0117 438.607 61.755C438.402 61.4983 438.299 61.202 438.299 60.866C438.299 60.838 438.304 60.7867 438.313 60.712C438.322 60.6373 438.346 60.4787 438.383 60.236C438.425 59.9887 438.49 59.606 438.579 59.088C438.668 58.5653 438.791 57.849 438.95 56.939C439.113 56.029 439.321 54.8647 439.573 53.446L440.861 53.32L439.615 60.586C439.615 60.838 439.69 60.992 439.839 61.048C439.993 61.104 440.268 61.132 440.665 61.132H441.001L440.721 62.14H439.671ZM438.089 56.12L438.369 55.14H442.093L441.911 56.12H438.089ZM443.517 57.975C443.713 58.0497 443.902 58.108 444.084 58.15C444.271 58.1873 444.493 58.206 444.749 58.206C445.309 58.206 445.743 58.136 446.051 57.996C446.364 57.856 446.581 57.6857 446.702 57.485C446.828 57.2843 446.891 57.0907 446.891 56.904C446.891 56.7173 446.845 56.568 446.751 56.456C446.663 56.3393 446.541 56.2553 446.387 56.204C446.233 56.148 446.065 56.12 445.883 56.12C445.571 56.12 445.272 56.2017 444.987 56.365C444.707 56.5237 444.453 56.7733 444.224 57.114C443.996 57.4547 443.804 57.8957 443.65 58.437L443.643 58.507C443.592 59.1743 443.639 59.69 443.783 60.054C443.928 60.418 444.143 60.67 444.427 60.81C444.717 60.95 445.043 61.02 445.407 61.02C445.683 61.02 445.991 60.9873 446.331 60.922C446.677 60.8567 446.999 60.754 447.297 60.614L447.241 61.608C446.975 61.762 446.658 61.8903 446.289 61.993C445.925 62.091 445.519 62.14 445.071 62.14C444.437 62.14 443.912 62.0093 443.496 61.748C443.086 61.482 442.778 61.125 442.572 60.677C442.372 60.229 442.271 59.7273 442.271 59.172C442.271 58.6307 442.36 58.1103 442.537 57.611C442.715 57.1117 442.969 56.666 443.3 56.274C443.632 55.882 444.026 55.5717 444.483 55.343C444.941 55.1143 445.449 55 446.009 55C446.677 55 447.183 55.1633 447.528 55.49C447.878 55.812 448.053 56.232 448.053 56.75C448.053 57.0067 448.002 57.2703 447.899 57.541C447.797 57.8117 447.624 58.0637 447.381 58.297C447.139 58.5257 446.812 58.71 446.401 58.85C445.991 58.99 445.477 59.06 444.861 59.06C444.586 59.06 444.313 59.0437 444.042 59.011C443.776 58.9737 443.564 58.9247 443.405 58.864L443.517 57.975ZM448.669 62L449.873 55.14H450.881V56.701L449.943 62H448.669ZM452.813 62C452.958 61.174 453.077 60.4903 453.17 59.949C453.264 59.403 453.338 58.9667 453.394 58.64C453.45 58.3133 453.49 58.0637 453.513 57.891C453.537 57.7183 453.551 57.5947 453.555 57.52C453.565 57.4407 453.569 57.3753 453.569 57.324C453.569 56.8527 453.471 56.5353 453.275 56.372C453.084 56.204 452.823 56.12 452.491 56.12C452.127 56.12 451.798 56.2017 451.504 56.365C451.21 56.5237 450.961 56.7757 450.755 57.121L450.769 55.98C451.157 55.5833 451.504 55.322 451.812 55.196C452.12 55.0653 452.445 55 452.785 55C453.075 55 453.355 55.049 453.625 55.147C453.896 55.245 454.129 55.4363 454.325 55.721C454.526 56.0057 454.659 56.4303 454.724 56.995L454.934 57.191L454.087 62H452.813ZM456.957 62C457.107 61.1413 457.23 60.432 457.328 59.872C457.426 59.312 457.503 58.8663 457.559 58.535C457.615 58.199 457.655 57.947 457.678 57.779C457.706 57.6063 457.723 57.485 457.727 57.415C457.737 57.345 457.741 57.2867 457.741 57.24C457.741 56.862 457.653 56.582 457.475 56.4C457.303 56.2133 457.027 56.12 456.649 56.12C456.211 56.12 455.863 56.225 455.606 56.435C455.354 56.6403 455.165 56.89 455.039 57.184C454.918 57.478 454.834 57.758 454.787 58.024L454.381 56.841C454.531 56.463 454.727 56.1363 454.969 55.861C455.217 55.5857 455.513 55.3733 455.858 55.224C456.204 55.0747 456.603 55 457.055 55C457.709 55 458.203 55.1633 458.539 55.49C458.875 55.812 459.043 56.302 459.043 56.96C459.043 57.0253 459.039 57.1023 459.029 57.191C459.025 57.2797 459.008 57.4197 458.98 57.611C458.952 57.7977 458.908 58.066 458.847 58.416C458.791 58.766 458.712 59.2327 458.609 59.816C458.511 60.3947 458.385 61.1227 458.231 62H456.957ZM463.788 62L465.293 53.53L465.741 53.705C465.363 53.9943 465.043 54.223 464.782 54.391C464.525 54.5543 464.301 54.6803 464.11 54.769C463.923 54.853 463.746 54.9207 463.578 54.972L463.564 53.726C463.835 53.642 464.115 53.523 464.404 53.369C464.698 53.2103 464.976 53.0307 465.237 52.83C465.498 52.6293 465.72 52.4193 465.902 52.2H466.812L465.076 62H463.788Z" fill="#34C73B"/>
<path fill-rule="evenodd" clip-rule="evenodd" d="M422 75.4374C424.52 75.4374 426.562 77.4802 426.562 80C426.562 82.5198 424.52 84.5624 422 84.5624C419.48 84.5624 417.437 82.5198 417.437 80C417.437 77.4802 419.48 75.4374 422 75.4374Z" fill="#00A2FF"/>
<path d="M433.392 85L435.114 75.2H436.444L434.722 85H433.392ZM438.671 85.14C438.167 85.14 437.812 85.0117 437.607 84.755C437.402 84.4983 437.299 84.202 437.299 83.866C437.299 83.838 437.304 83.7867 437.313 83.712C437.322 83.6373 437.346 83.4787 437.383 83.236C437.425 82.9887 437.49 82.606 437.579 82.088C437.668 81.5653 437.791 80.849 437.95 79.939C438.113 79.029 438.321 77.8647 438.573 76.446L439.861 76.32L438.615 83.586C438.615 83.838 438.69 83.992 438.839 84.048C438.993 84.104 439.268 84.132 439.665 84.132H440.001L439.721 85.14H438.671ZM437.089 79.12L437.369 78.14H441.093L440.911 79.12H437.089ZM442.517 80.975C442.713 81.0497 442.902 81.108 443.084 81.15C443.271 81.1873 443.493 81.206 443.749 81.206C444.309 81.206 444.743 81.136 445.051 80.996C445.364 80.856 445.581 80.6857 445.702 80.485C445.828 80.2843 445.891 80.0907 445.891 79.904C445.891 79.7173 445.845 79.568 445.751 79.456C445.663 79.3393 445.541 79.2553 445.387 79.204C445.233 79.148 445.065 79.12 444.883 79.12C444.571 79.12 444.272 79.2017 443.987 79.365C443.707 79.5237 443.453 79.7733 443.224 80.114C442.996 80.4547 442.804 80.8957 442.65 81.437L442.643 81.507C442.592 82.1743 442.639 82.69 442.783 83.054C442.928 83.418 443.143 83.67 443.427 83.81C443.717 83.95 444.043 84.02 444.407 84.02C444.683 84.02 444.991 83.9873 445.331 83.922C445.677 83.8567 445.999 83.754 446.297 83.614L446.241 84.608C445.975 84.762 445.658 84.8903 445.289 84.993C444.925 85.091 444.519 85.14 444.071 85.14C443.437 85.14 442.912 85.0093 442.496 84.748C442.086 84.482 441.778 84.125 441.572 83.677C441.372 83.229 441.271 82.7273 441.271 82.172C441.271 81.6307 441.36 81.1103 441.537 80.611C441.715 80.1117 441.969 79.666 442.3 79.274C442.632 78.882 443.026 78.5717 443.483 78.343C443.941 78.1143 444.449 78 445.009 78C445.677 78 446.183 78.1633 446.528 78.49C446.878 78.812 447.053 79.232 447.053 79.75C447.053 80.0067 447.002 80.2703 446.899 80.541C446.797 80.8117 446.624 81.0637 446.381 81.297C446.139 81.5257 445.812 81.71 445.401 81.85C444.991 81.99 444.477 82.06 443.861 82.06C443.586 82.06 443.313 82.0437 443.042 82.011C442.776 81.9737 442.564 81.9247 442.405 81.864L442.517 80.975ZM447.669 85L448.873 78.14H449.881V79.701L448.943 85H447.669ZM451.813 85C451.958 84.174 452.077 83.4903 452.17 82.949C452.264 82.403 452.338 81.9667 452.394 81.64C452.45 81.3133 452.49 81.0637 452.513 80.891C452.537 80.7183 452.551 80.5947 452.555 80.52C452.565 80.4407 452.569 80.3753 452.569 80.324C452.569 79.8527 452.471 79.5353 452.275 79.372C452.084 79.204 451.823 79.12 451.491 79.12C451.127 79.12 450.798 79.2017 450.504 79.365C450.21 79.5237 449.961 79.7757 449.755 80.121L449.769 78.98C450.157 78.5833 450.504 78.322 450.812 78.196C451.12 78.0653 451.445 78 451.785 78C452.075 78 452.355 78.049 452.625 78.147C452.896 78.245 453.129 78.4363 453.325 78.721C453.526 79.0057 453.659 79.4303 453.724 79.995L453.934 80.191L453.087 85H451.813ZM455.957 85C456.107 84.1413 456.23 83.432 456.328 82.872C456.426 82.312 456.503 81.8663 456.559 81.535C456.615 81.199 456.655 80.947 456.678 80.779C456.706 80.6063 456.723 80.485 456.727 80.415C456.737 80.345 456.741 80.2867 456.741 80.24C456.741 79.862 456.653 79.582 456.475 79.4C456.303 79.2133 456.027 79.12 455.649 79.12C455.211 79.12 454.863 79.225 454.606 79.435C454.354 79.6403 454.165 79.89 454.039 80.184C453.918 80.478 453.834 80.758 453.787 81.024L453.381 79.841C453.531 79.463 453.727 79.1363 453.969 78.861C454.217 78.5857 454.513 78.3733 454.858 78.224C455.204 78.0747 455.603 78 456.055 78C456.709 78 457.203 78.1633 457.539 78.49C457.875 78.812 458.043 79.302 458.043 79.96C458.043 80.0253 458.039 80.1023 458.029 80.191C458.025 80.2797 458.008 80.4197 457.98 80.611C457.952 80.7977 457.908 81.066 457.847 81.416C457.791 81.766 457.712 82.2327 457.609 82.816C457.511 83.3947 457.385 84.1227 457.231 85H455.957ZM461.444 84.986L464.678 80.926C465.112 80.38 465.471 79.9087 465.756 79.512C466.041 79.1153 466.251 78.756 466.386 78.434C466.526 78.1073 466.596 77.7807 466.596 77.454C466.596 77.09 466.493 76.8007 466.288 76.586C466.087 76.3713 465.798 76.264 465.42 76.264C464.953 76.264 464.505 76.3807 464.076 76.614C463.651 76.8473 463.231 77.146 462.816 77.51L462.9 76.11C463.259 75.8067 463.684 75.5477 464.174 75.333C464.669 75.1137 465.182 75.004 465.714 75.004C466.479 75.004 467.051 75.2093 467.429 75.62C467.807 76.0307 467.996 76.572 467.996 77.244C467.996 77.7293 467.91 78.1843 467.737 78.609C467.564 79.0337 467.31 79.4793 466.974 79.946C466.643 80.408 466.237 80.94 465.756 81.542L463.593 84.251L463.369 83.782H467.31L467.1 84.986H461.444Z" fill="#00A2FF"/>
<path fill-rule="evenodd" clip-rule="evenodd" d="M422 98.4374C424.52 98.4374 426.562 100.48 426.562 103C426.562 105.52 424.52 107.562 422 107.562C419.48 107.562 417.437 105.52 417.437 103C417.437 100.48 419.48 98.4374 422 98.4374Z" fill="#FF9800"/>
<path d="M433.392 108L435.114 98.2H436.444L434.722 108H433.392ZM438.671 108.14C438.167 108.14 437.812 108.012 437.607 107.755C437.402 107.498 437.299 107.202 437.299 106.866C437.299 106.838 437.304 106.787 437.313 106.712C437.322 106.637 437.346 106.479 437.383 106.236C437.425 105.989 437.49 105.606 437.579 105.088C437.668 104.565 437.791 103.849 437.95 102.939C438.113 102.029 438.321 100.865 438.573 99.446L439.861 99.32L438.615 106.586C438.615 106.838 438.69 106.992 438.839 107.048C438.993 107.104 439.268 107.132 439.665 107.132H440.001L439.721 108.14H438.671ZM437.089 102.12L437.369 101.14H441.093L440.911 102.12H437.089ZM442.517 103.975C442.713 104.05 442.902 104.108 443.084 104.15C443.271 104.187 443.493 104.206 443.749 104.206C444.309 104.206 444.743 104.136 445.051 103.996C445.364 103.856 445.581 103.686 445.702 103.485C445.828 103.284 445.891 103.091 445.891 102.904C445.891 102.717 445.845 102.568 445.751 102.456C445.663 102.339 445.541 102.255 445.387 102.204C445.233 102.148 445.065 102.12 444.883 102.12C444.571 102.12 444.272 102.202 443.987 102.365C443.707 102.524 443.453 102.773 443.224 103.114C442.996 103.455 442.804 103.896 442.65 104.437L442.643 104.507C442.592 105.174 442.639 105.69 442.783 106.054C442.928 106.418 443.143 106.67 443.427 106.81C443.717 106.95 444.043 107.02 444.407 107.02C444.683 107.02 444.991 106.987 445.331 106.922C445.677 106.857 445.999 106.754 446.297 106.614L446.241 107.608C445.975 107.762 445.658 107.89 445.289 107.993C444.925 108.091 444.519 108.14 444.071 108.14C443.437 108.14 442.912 108.009 442.496 107.748C442.086 107.482 441.778 107.125 441.572 106.677C441.372 106.229 441.271 105.727 441.271 105.172C441.271 104.631 441.36 104.11 441.537 103.611C441.715 103.112 441.969 102.666 442.3 102.274C442.632 101.882 443.026 101.572 443.483 101.343C443.941 101.114 444.449 101 445.009 101C445.677 101 446.183 101.163 446.528 101.49C446.878 101.812 447.053 102.232 447.053 102.75C447.053 103.007 447.002 103.27 446.899 103.541C446.797 103.812 446.624 104.064 446.381 104.297C446.139 104.526 445.812 104.71 445.401 104.85C444.991 104.99 444.477 105.06 443.861 105.06C443.586 105.06 443.313 105.044 443.042 105.011C442.776 104.974 442.564 104.925 442.405 104.864L442.517 103.975ZM447.669 108L448.873 101.14H449.881V102.701L448.943 108H447.669ZM451.813 108C451.958 107.174 452.077 106.49 452.17 105.949C452.264 105.403 452.338 104.967 452.394 104.64C452.45 104.313 452.49 104.064 452.513 103.891C452.537 103.718 452.551 103.595 452.555 103.52C452.565 103.441 452.569 103.375 452.569 103.324C452.569 102.853 452.471 102.535 452.275 102.372C452.084 102.204 451.823 102.12 451.491 102.12C451.127 102.12 450.798 102.202 450.504 102.365C450.21 102.524 449.961 102.776 449.755 103.121L449.769 101.98C450.157 101.583 450.504 101.322 450.812 101.196C451.12 101.065 451.445 101 451.785 101C452.075 101 452.355 101.049 452.625 101.147C452.896 101.245 453.129 101.436 453.325 101.721C453.526 102.006 453.659 102.43 453.724 102.995L453.934 103.191L453.087 108H451.813ZM455.957 108C456.107 107.141 456.23 106.432 456.328 105.872C456.426 105.312 456.503 104.866 456.559 104.535C456.615 104.199 456.655 103.947 456.678 103.779C456.706 103.606 456.723 103.485 456.727 103.415C456.737 103.345 456.741 103.287 456.741 103.24C456.741 102.862 456.653 102.582 456.475 102.4C456.303 102.213 456.027 102.12 455.649 102.12C455.211 102.12 454.863 102.225 454.606 102.435C454.354 102.64 454.165 102.89 454.039 103.184C453.918 103.478 453.834 103.758 453.787 104.024L453.381 102.841C453.531 102.463 453.727 102.136 453.969 101.861C454.217 101.586 454.513 101.373 454.858 101.224C455.204 101.075 455.603 101 456.055 101C456.709 101 457.203 101.163 457.539 101.49C457.875 101.812 458.043 102.302 458.043 102.96C458.043 103.025 458.039 103.102 458.029 103.191C458.025 103.28 458.008 103.42 457.98 103.611C457.952 103.798 457.908 104.066 457.847 104.416C457.791 104.766 457.712 105.233 457.609 105.816C457.511 106.395 457.385 107.123 457.231 108H455.957ZM464.356 108.196C463.81 108.196 463.292 108.117 462.802 107.958C462.317 107.795 461.864 107.585 461.444 107.328L461.99 106.096C462.391 106.367 462.788 106.584 463.18 106.747C463.572 106.91 463.992 106.992 464.44 106.992C464.986 106.992 465.436 106.836 465.791 106.523C466.15 106.21 466.33 105.774 466.33 105.214C466.33 104.71 466.174 104.309 465.861 104.01C465.548 103.711 465.051 103.562 464.37 103.562H463.824L464.034 102.358H464.58C465.233 102.358 465.765 102.195 466.176 101.868C466.587 101.537 466.792 101.07 466.792 100.468C466.792 100.039 466.678 99.7213 466.449 99.516C466.22 99.3107 465.891 99.208 465.462 99.208C465.112 99.208 464.755 99.285 464.391 99.439C464.032 99.593 463.679 99.782 463.334 100.006L463.348 98.648C463.726 98.438 464.125 98.2793 464.545 98.172C464.97 98.06 465.415 98.004 465.882 98.004C466.624 98.004 467.21 98.2117 467.639 98.627C468.073 99.0377 468.29 99.572 468.29 100.23C468.29 100.706 468.183 101.14 467.968 101.532C467.753 101.919 467.455 102.246 467.072 102.512C466.694 102.778 466.255 102.96 465.756 103.058L465.812 102.736C466.428 102.89 466.909 103.172 467.254 103.583C467.599 103.989 467.772 104.514 467.772 105.158C467.772 105.732 467.625 106.248 467.331 106.705C467.037 107.162 466.631 107.526 466.113 107.797C465.6 108.063 465.014 108.196 464.356 108.196Z" fill="#FF9800"/>
<path fill-rule="evenodd" clip-rule="evenodd" d="M422 121.437C424.52 121.437 426.562 123.48 426.562 126C426.562 128.52 424.52 130.562 422 130.562C419.48 130.562 417.437 128.52 417.437 126C417.437 123.48 419.48 121.437 422 121.437Z" fill="#FFC107"/>
<path d="M434.392 131L436.114 121.2H437.444L435.722 131H434.392ZM439.671 131.14C439.167 131.14 438.812 131.012 438.607 130.755C438.402 130.498 438.299 130.202 438.299 129.866C438.299 129.838 438.304 129.787 438.313 129.712C438.322 129.637 438.346 129.479 438.383 129.236C438.425 128.989 438.49 128.606 438.579 128.088C438.668 127.565 438.791 126.849 438.95 125.939C439.113 125.029 439.321 123.865 439.573 122.446L440.861 122.32L439.615 129.586C439.615 129.838 439.69 129.992 439.839 130.048C439.993 130.104 440.268 130.132 440.665 130.132H441.001L440.721 131.14H439.671ZM438.089 125.12L438.369 124.14H442.093L441.911 125.12H438.089ZM443.517 126.975C443.713 127.05 443.902 127.108 444.084 127.15C444.271 127.187 444.493 127.206 444.749 127.206C445.309 127.206 445.743 127.136 446.051 126.996C446.364 126.856 446.581 126.686 446.702 126.485C446.828 126.284 446.891 126.091 446.891 125.904C446.891 125.717 446.845 125.568 446.751 125.456C446.663 125.339 446.541 125.255 446.387 125.204C446.233 125.148 446.065 125.12 445.883 125.12C445.571 125.12 445.272 125.202 444.987 125.365C444.707 125.524 444.453 125.773 444.224 126.114C443.996 126.455 443.804 126.896 443.65 127.437L443.643 127.507C443.592 128.174 443.639 128.69 443.783 129.054C443.928 129.418 444.143 129.67 444.427 129.81C444.717 129.95 445.043 130.02 445.407 130.02C445.683 130.02 445.991 129.987 446.331 129.922C446.677 129.857 446.999 129.754 447.297 129.614L447.241 130.608C446.975 130.762 446.658 130.89 446.289 130.993C445.925 131.091 445.519 131.14 445.071 131.14C444.437 131.14 443.912 131.009 443.496 130.748C443.086 130.482 442.778 130.125 442.572 129.677C442.372 129.229 442.271 128.727 442.271 128.172C442.271 127.631 442.36 127.11 442.537 126.611C442.715 126.112 442.969 125.666 443.3 125.274C443.632 124.882 444.026 124.572 444.483 124.343C444.941 124.114 445.449 124 446.009 124C446.677 124 447.183 124.163 447.528 124.49C447.878 124.812 448.053 125.232 448.053 125.75C448.053 126.007 448.002 126.27 447.899 126.541C447.797 126.812 447.624 127.064 447.381 127.297C447.139 127.526 446.812 127.71 446.401 127.85C445.991 127.99 445.477 128.06 444.861 128.06C444.586 128.06 444.313 128.044 444.042 128.011C443.776 127.974 443.564 127.925 443.405 127.864L443.517 126.975ZM448.669 131L449.873 124.14H450.881V125.701L449.943 131H448.669ZM452.813 131C452.958 130.174 453.077 129.49 453.17 128.949C453.264 128.403 453.338 127.967 453.394 127.64C453.45 127.313 453.49 127.064 453.513 126.891C453.537 126.718 453.551 126.595 453.555 126.52C453.565 126.441 453.569 126.375 453.569 126.324C453.569 125.853 453.471 125.535 453.275 125.372C453.084 125.204 452.823 125.12 452.491 125.12C452.127 125.12 451.798 125.202 451.504 125.365C451.21 125.524 450.961 125.776 450.755 126.121L450.769 124.98C451.157 124.583 451.504 124.322 451.812 124.196C452.12 124.065 452.445 124 452.785 124C453.075 124 453.355 124.049 453.625 124.147C453.896 124.245 454.129 124.436 454.325 124.721C454.526 125.006 454.659 125.43 454.724 125.995L454.934 126.191L454.087 131H452.813ZM456.957 131C457.107 130.141 457.23 129.432 457.328 128.872C457.426 128.312 457.503 127.866 457.559 127.535C457.615 127.199 457.655 126.947 457.678 126.779C457.706 126.606 457.723 126.485 457.727 126.415C457.737 126.345 457.741 126.287 457.741 126.24C457.741 125.862 457.653 125.582 457.475 125.4C457.303 125.213 457.027 125.12 456.649 125.12C456.211 125.12 455.863 125.225 455.606 125.435C455.354 125.64 455.165 125.89 455.039 126.184C454.918 126.478 454.834 126.758 454.787 127.024L454.381 125.841C454.531 125.463 454.727 125.136 454.969 124.861C455.217 124.586 455.513 124.373 455.858 124.224C456.204 124.075 456.603 124 457.055 124C457.709 124 458.203 124.163 458.539 124.49C458.875 124.812 459.043 125.302 459.043 125.96C459.043 126.025 459.039 126.102 459.029 126.191C459.025 126.28 459.008 126.42 458.98 126.611C458.952 126.798 458.908 127.066 458.847 127.416C458.791 127.766 458.712 128.233 458.609 128.816C458.511 129.395 458.385 130.123 458.231 131H456.957ZM466.868 131L468.296 122.95L468.52 123.342L464.74 127.71L464.502 127.332H469.927L469.731 128.466H462.584L468.926 121.2H469.892L468.156 131H466.868Z" fill="#FFC107"/>
<path opacity="0.7" fill-rule="evenodd" clip-rule="evenodd" d="M122 143H233C234.657 143 236 144.343 236 146V161C236 162.657 234.657 164 233 164H122C120.343 164 119 162.657 119 161V146C119 144.343 120.343 143 122 143Z" fill="black"/>
<path d="M145.392 158L147.114 148.2H148.444L146.722 158H145.392ZM150.671 158.14C150.167 158.14 149.812 158.012 149.607 157.755C149.402 157.498 149.299 157.202 149.299 156.866C149.299 156.838 149.304 156.787 149.313 156.712C149.322 156.637 149.346 156.479 149.383 156.236C149.425 155.989 149.49 155.606 149.579 155.088C149.668 154.565 149.791 153.849 149.95 152.939C150.113 152.029 150.321 150.865 150.573 149.446L151.861 149.32L150.615 156.586C150.615 156.838 150.69 156.992 150.839 157.048C150.993 157.104 151.268 157.132 151.665 157.132H152.001L151.721 158.14H150.671ZM149.089 152.12L149.369 151.14H153.093L152.911 152.12H149.089ZM154.517 153.975C154.713 154.05 154.902 154.108 155.084 154.15C155.271 154.187 155.493 154.206 155.749 154.206C156.309 154.206 156.743 154.136 157.051 153.996C157.364 153.856 157.581 153.686 157.702 153.485C157.828 153.284 157.891 153.091 157.891 152.904C157.891 152.717 157.845 152.568 157.751 152.456C157.663 152.339 157.541 152.255 157.387 152.204C157.233 152.148 157.065 152.12 156.883 152.12C156.571 152.12 156.272 152.202 155.987 152.365C155.707 152.524 155.453 152.773 155.224 153.114C154.996 153.455 154.804 153.896 154.65 154.437L154.643 154.507C154.592 155.174 154.639 155.69 154.783 156.054C154.928 156.418 155.143 156.67 155.427 156.81C155.717 156.95 156.043 157.02 156.407 157.02C156.683 157.02 156.991 156.987 157.331 156.922C157.677 156.857 157.999 156.754 158.297 156.614L158.241 157.608C157.975 157.762 157.658 157.89 157.289 157.993C156.925 158.091 156.519 158.14 156.071 158.14C155.437 158.14 154.912 158.009 154.496 157.748C154.086 157.482 153.778 157.125 153.572 156.677C153.372 156.229 153.271 155.727 153.271 155.172C153.271 154.631 153.36 154.11 153.537 153.611C153.715 153.112 153.969 152.666 154.3 152.274C154.632 151.882 155.026 151.572 155.483 151.343C155.941 151.114 156.449 151 157.009 151C157.677 151 158.183 151.163 158.528 151.49C158.878 151.812 159.053 152.232 159.053 152.75C159.053 153.007 159.002 153.27 158.899 153.541C158.797 153.812 158.624 154.064 158.381 154.297C158.139 154.526 157.812 154.71 157.401 154.85C156.991 154.99 156.477 155.06 155.861 155.06C155.586 155.06 155.313 155.044 155.042 155.011C154.776 154.974 154.564 154.925 154.405 154.864L154.517 153.975ZM159.669 158L160.873 151.14H161.881V152.701L160.943 158H159.669ZM163.813 158C163.958 157.174 164.077 156.49 164.17 155.949C164.264 155.403 164.338 154.967 164.394 154.64C164.45 154.313 164.49 154.064 164.513 153.891C164.537 153.718 164.551 153.595 164.555 153.52C164.565 153.441 164.569 153.375 164.569 153.324C164.569 152.853 164.471 152.535 164.275 152.372C164.084 152.204 163.823 152.12 163.491 152.12C163.127 152.12 162.798 152.202 162.504 152.365C162.21 152.524 161.961 152.776 161.755 153.121L161.769 151.98C162.157 151.583 162.504 151.322 162.812 151.196C163.12 151.065 163.445 151 163.785 151C164.075 151 164.355 151.049 164.625 151.147C164.896 151.245 165.129 151.436 165.325 151.721C165.526 152.006 165.659 152.43 165.724 152.995L165.934 153.191L165.087 158H163.813ZM167.957 158C168.107 157.141 168.23 156.432 168.328 155.872C168.426 155.312 168.503 154.866 168.559 154.535C168.615 154.199 168.655 153.947 168.678 153.779C168.706 153.606 168.723 153.485 168.727 153.415C168.737 153.345 168.741 153.287 168.741 153.24C168.741 152.862 168.653 152.582 168.475 152.4C168.303 152.213 168.027 152.12 167.649 152.12C167.211 152.12 166.863 152.225 166.606 152.435C166.354 152.64 166.165 152.89 166.039 153.184C165.918 153.478 165.834 153.758 165.787 154.024L165.381 152.841C165.531 152.463 165.727 152.136 165.969 151.861C166.217 151.586 166.513 151.373 166.858 151.224C167.204 151.075 167.603 151 168.055 151C168.709 151 169.203 151.163 169.539 151.49C169.875 151.812 170.043 152.302 170.043 152.96C170.043 153.025 170.039 153.102 170.029 153.191C170.025 153.28 170.008 153.42 169.98 153.611C169.952 153.798 169.908 154.066 169.847 154.416C169.791 154.766 169.712 155.233 169.609 155.816C169.511 156.395 169.385 157.123 169.231 158H167.957ZM174.256 158L175.978 148.2H177.378L180.465 156.096L180.143 156.124L181.536 148.2H182.88L181.144 158H180.024L176.741 149.705L177.063 149.67L175.586 158H174.256ZM185.604 158.14C185.142 158.14 184.738 158.026 184.393 157.797C184.052 157.568 183.788 157.249 183.602 156.838C183.415 156.427 183.322 155.947 183.322 155.396C183.322 154.841 183.41 154.302 183.588 153.779C183.765 153.256 184.015 152.787 184.337 152.372C184.663 151.952 185.046 151.618 185.485 151.371C185.928 151.124 186.411 151 186.934 151C187.167 151 187.403 151.035 187.641 151.105C187.879 151.175 188.093 151.31 188.285 151.511C188.481 151.707 188.623 151.999 188.712 152.386L188.327 152.428L188.796 151.14H189.916L189.09 155.998C189.052 156.213 189.034 156.395 189.034 156.544C189.034 156.768 189.083 156.922 189.181 157.006C189.279 157.09 189.449 157.132 189.692 157.132L189.342 158.14C189.104 158.14 188.887 158.128 188.691 158.105C188.495 158.082 188.322 158.019 188.173 157.916C188.028 157.813 187.911 157.65 187.823 157.426C187.739 157.197 187.692 156.88 187.683 156.474L188.005 156.789C187.809 157.078 187.587 157.326 187.34 157.531C187.097 157.732 186.829 157.883 186.535 157.986C186.245 158.089 185.935 158.14 185.604 158.14ZM186.024 157.02C186.29 157.02 186.551 156.959 186.808 156.838C187.069 156.712 187.307 156.528 187.522 156.285C187.736 156.038 187.907 155.734 188.033 155.375C188.159 155.011 188.222 154.593 188.222 154.122C188.222 153.422 188.084 152.913 187.809 152.596C187.538 152.279 187.2 152.12 186.794 152.12C186.383 152.12 186.014 152.26 185.688 152.54C185.366 152.82 185.109 153.189 184.918 153.646C184.731 154.103 184.638 154.598 184.638 155.13C184.638 155.653 184.745 156.098 184.96 156.467C185.179 156.836 185.534 157.02 186.024 157.02ZM190.868 158L192.072 151.14H193.08V152.701L192.142 158H190.868ZM195.012 158C195.157 157.174 195.276 156.49 195.369 155.949C195.462 155.403 195.537 154.967 195.593 154.64C195.649 154.313 195.689 154.064 195.712 153.891C195.735 153.718 195.749 153.595 195.754 153.52C195.763 153.441 195.768 153.375 195.768 153.324C195.768 152.853 195.67 152.535 195.474 152.372C195.283 152.204 195.021 152.12 194.69 152.12C194.326 152.12 193.997 152.202 193.703 152.365C193.409 152.524 193.159 152.776 192.954 153.121L192.968 151.98C193.355 151.583 193.703 151.322 194.011 151.196C194.319 151.065 194.643 151 194.984 151C195.273 151 195.553 151.049 195.824 151.147C196.095 151.245 196.328 151.436 196.524 151.721C196.725 152.006 196.858 152.43 196.923 152.995L197.133 153.191L196.286 158H195.012ZM199.156 158C199.305 157.141 199.429 156.432 199.527 155.872C199.625 155.312 199.702 154.866 199.758 154.535C199.814 154.199 199.854 153.947 199.877 153.779C199.905 153.606 199.921 153.485 199.926 153.415C199.935 153.345 199.94 153.287 199.94 153.24C199.94 152.862 199.851 152.582 199.674 152.4C199.501 152.213 199.226 152.12 198.848 152.12C198.409 152.12 198.062 152.225 197.805 152.435C197.553 152.64 197.364 152.89 197.238 153.184C197.117 153.478 197.033 153.758 196.986 154.024L196.58 152.841C196.729 152.463 196.925 152.136 197.168 151.861C197.415 151.586 197.712 151.373 198.057 151.224C198.402 151.075 198.801 151 199.254 151C199.907 151 200.402 151.163 200.738 151.49C201.074 151.812 201.242 152.302 201.242 152.96C201.242 153.025 201.237 153.102 201.228 153.191C201.223 153.28 201.207 153.42 201.179 153.611C201.151 153.798 201.107 154.066 201.046 154.416C200.99 154.766 200.911 155.233 200.808 155.816C200.71 156.395 200.584 157.123 200.43 158H199.156ZM203.619 153.975C203.815 154.05 204.004 154.108 204.186 154.15C204.373 154.187 204.594 154.206 204.851 154.206C205.411 154.206 205.845 154.136 206.153 153.996C206.466 153.856 206.683 153.686 206.804 153.485C206.93 153.284 206.993 153.091 206.993 152.904C206.993 152.717 206.946 152.568 206.853 152.456C206.764 152.339 206.643 152.255 206.489 152.204C206.335 152.148 206.167 152.12 205.985 152.12C205.672 152.12 205.374 152.202 205.089 152.365C204.809 152.524 204.555 152.773 204.326 153.114C204.097 153.455 203.906 153.896 203.752 154.437L203.745 154.507C203.694 155.174 203.74 155.69 203.885 156.054C204.03 156.418 204.244 156.67 204.529 156.81C204.818 156.95 205.145 157.02 205.509 157.02C205.784 157.02 206.092 156.987 206.433 156.922C206.778 156.857 207.1 156.754 207.399 156.614L207.343 157.608C207.077 157.762 206.76 157.89 206.391 157.993C206.027 158.091 205.621 158.14 205.173 158.14C204.538 158.14 204.013 158.009 203.598 157.748C203.187 157.482 202.879 157.125 202.674 156.677C202.473 156.229 202.373 155.727 202.373 155.172C202.373 154.631 202.462 154.11 202.639 153.611C202.816 153.112 203.071 152.666 203.402 152.274C203.733 151.882 204.128 151.572 204.585 151.343C205.042 151.114 205.551 151 206.111 151C206.778 151 207.285 151.163 207.63 151.49C207.98 151.812 208.155 152.232 208.155 152.75C208.155 153.007 208.104 153.27 208.001 153.541C207.898 153.812 207.726 154.064 207.483 154.297C207.24 154.526 206.914 154.71 206.503 154.85C206.092 154.99 205.579 155.06 204.963 155.06C204.688 155.06 204.415 155.044 204.144 155.011C203.878 154.974 203.666 154.925 203.507 154.864L203.619 153.975Z" fill="white"/>
<defs>
<filter id="filter0_d_123_225" x="0" y="0" width="600" height="420" filterUnits="userSpaceOnUse" color-interpolation-filters="sRGB">
<feFlood flood-opacity="0" result="BackgroundImageFix"/>
<feColorMatrix in="SourceAlpha" type="matrix" values="0 0 0 0 0 0 0 0 0 0 0 0 0 0 0 0 0 0 127 0" result="hardAlpha"/>
<feOffset dy="3"/>
<feGaussianBlur stdDeviation="5"/>
<feColorMatrix type="matrix" values="0 0 0 0 0.466667 0 0 0 0 0.466667 0 0 0 0 0.466667 0 0 0 0.1 0"/>
<feBlend mode="normal" in2="BackgroundImageFix" result="effect1_dropShadow_123_225"/>
<feBlend mode="normal" in="SourceGraphic" in2="effect1_dropShadow_123_225" result="shape"/>
</filter>
</defs>
</svg>
