<svg width="30" height="30" viewBox="0 0 30 30" fill="none" xmlns="http://www.w3.org/2000/svg">
<rect width="30" height="30" rx="4" fill="#5BD8FF"/>
<path d="M11.5918 13.2058H12.9459V17.2225C12.9459 17.63 13.2763 17.9601 13.6834 17.9601H15.6966C16.1037 17.9601 16.4341 17.6301 16.4341 17.2225V13.2058H17.7877C18.012 13.2058 18.2135 13.0707 18.2998 12.8635C18.3851 12.6571 18.3376 12.4186 18.1792 12.2601L15.0814 9.16194C14.865 8.94602 14.5145 8.94602 14.2977 9.16194L11.2004 12.2601C11.042 12.4186 10.9945 12.6567 11.0803 12.8635C11.1665 13.0703 11.3676 13.2058 11.5918 13.2058Z" fill="white"/>
<path d="M20.7143 14.7114C20.3473 14.7114 20.0495 15.0092 20.0495 15.3767V18.1583C20.0495 18.9916 19.3712 19.6695 18.5379 19.6695H10.8417C10.0084 19.6695 9.3305 18.9916 9.3305 18.1583V15.3767C9.3305 15.0092 9.03228 14.7114 8.66525 14.7114C8.29779 14.7114 8 15.0092 8 15.3767V18.1584C8 19.7252 9.27476 21.0001 10.8417 21.0001H18.5379C20.1048 21.0001 21.3796 19.7253 21.3796 18.1584V15.3767C21.3796 15.0092 21.0818 14.7114 20.7143 14.7114Z" fill="white"/>
</svg>
